<?xml version="1.0" encoding="UTF-8" standalone="no"?>
<svg width="80px" height="80px" viewBox="0 0 80 80" version="1.1" xmlns="http://www.w3.org/2000/svg" xmlns:xlink="http://www.w3.org/1999/xlink">
    <!-- Generator: Sketch 40.1 (33804) - http://www.bohemiancoding.com/sketch -->
    <title>bed</title>
    <desc>Created with Sketch.</desc>
    <defs></defs>
    <g id="Page-3" stroke="none" stroke-width="1" fill="none" fill-rule="evenodd">
        <g id="bed" fill="#000000">
            <g id="Group" transform="translate(1.000000, 13.000000)">
                <path d="M72.3015543,53.2714882 L8.49192134,53.2714882 C5.85861834,53.2714882 3.72011151,51.1318594 3.72011151,48.5030443 L3.72011151,8.34713697 C3.72011151,5.71383397 5.86310628,3.57083919 8.49192134,3.57083919 L72.3015543,3.57083919 C74.9348573,3.57083919 77.0699982,5.71383397 77.0699982,8.34713697 L77.0699982,48.4985564 C77.0733641,51.1318594 74.9303693,53.2714882 72.3015543,53.2714882 L72.3015543,53.2714882 Z M8.49192134,4.86336798 C6.57332393,4.86336798 5.0126403,6.42853955 5.0126403,8.34713697 L5.0126403,48.4985564 C5.0126403,50.4182758 6.57332393,51.9778374 8.49192134,51.9778374 L72.3015543,51.9778374 C74.2201517,51.9778374 75.7808353,50.4182758 75.7808353,48.4985564 L75.7808353,8.34713697 C75.7808353,6.42853955 74.2201517,4.86336798 72.3015543,4.86336798 L8.49192134,4.86336798 Z" id="Fill-1" stroke="#000000"></path>
                <path d="M1.89688297,50.996099 C0.814165713,49.9223576 0.270002118,48.52885 0.270002118,46.8548457 L0.270002118,5.40192164 C0.274490065,2.77310658 2.41748484,0.630111803 5.04742189,0.630111803 L70.0441169,0.630111803 C74.3738639,0.630111803 76.7143283,4.59633512 77.0699982,8.28206174 L75.7808353,8.4043583 C75.4835088,5.28411302 73.5593015,1.92264059 70.0396289,1.92264059 L5.04742189,1.92264059 C3.12770248,1.92264059 1.56814084,3.48332422 1.56814084,5.40192164 L1.56814084,46.8503578 C1.56814084,48.9406192 2.61944246,50.4306176 4.69287406,51.2765957 C6.3803422,51.9610076 8.04985855,53.2400726 8.04985855,53.2400726 C7.79965549,53.2445605 4.11841682,53.2097789 1.89688297,50.996099 Z" id="Fill-2" stroke="#000000"></path>
                <path d="M15.2204761,16.7059386 C14.3127888,16.7059386 13.5722775,15.9654273 13.5722775,15.05774 C13.5722775,14.1500527 14.3127888,13.4095414 15.2204761,13.4095414 C16.1270415,13.4095414 16.8630648,14.1500527 16.8630648,15.05774 C16.8630648,15.9654273 16.1270415,16.7059386 15.2204761,16.7059386 L15.2204761,16.7059386 Z" id="Fill-3"></path>
                <polygon id="Fill-4" points="17.9985154 11.8185641 18.4540421 12.2785787 16.3637807 14.3654741 15.9082541 13.9054595"></polygon>
                <polygon id="Fill-5" points="14.2073221 15.6097575 14.6628487 16.0697721 12.5725873 18.1566675 12.1170607 17.6966529"></polygon>
                <polygon id="Fill-6" points="16.1887507 15.6097575 18.2790121 17.7000189 17.8234855 18.1566675 15.7332241 16.0652841"></polygon>
                <polygon id="Fill-7" points="12.4020453 11.8185641 14.4923067 13.9054595 14.0367801 14.3609862 11.9465187 12.2740907"></polygon>
                <path d="M31.6160692,16.7059386 C30.7083818,16.7059386 29.9678706,15.9654273 29.9678706,15.05774 C29.9678706,14.1500527 30.7083818,13.4095414 31.6160692,13.4095414 C32.5226345,13.4095414 33.2642678,14.1500527 33.2642678,15.05774 C33.2642678,15.9654273 32.5271224,16.7059386 31.6160692,16.7059386 L31.6160692,16.7059386 Z" id="Fill-8"></path>
                <polygon id="Fill-9" points="34.3941085 11.8185641 34.8507571 12.2785787 32.7593737 14.3654741 32.3038471 13.9054595"></polygon>
                <polygon id="Fill-10" points="30.607403 15.6097575 31.0640517 16.0697721 28.9681803 18.1566675 28.5126537 17.6966529"></polygon>
                <polygon id="Fill-11" points="32.5888317 15.6097575 34.6790931 17.7000189 34.2235665 18.1566675 32.1333051 16.0652841"></polygon>
                <polygon id="Fill-12" points="28.8021263 11.8230521 30.8923877 13.9088255 30.436861 14.3654741 28.3465996 12.2785787"></polygon>
                <path d="M48.0161501,16.7059386 C47.1050969,16.7059386 46.3679515,15.9654273 46.3679515,15.05774 C46.3679515,14.1500527 47.1050969,13.4095414 48.0161501,13.4095414 C48.9283254,13.4095414 49.6643487,14.1500527 49.6643487,15.05774 C49.6643487,15.9654273 48.9238374,16.7059386 48.0161501,16.7059386 L48.0161501,16.7059386 Z" id="Fill-13"></path>
                <polygon id="Fill-14" points="50.7908235 11.8185641 51.2463501 12.2740907 49.1560887 14.3654741 48.6994401 13.9088255"></polygon>
                <polygon id="Fill-15" points="47.008606 15.6187334 47.4596447 16.078748 45.3559194 18.1521796 44.9048808 17.692165"></polygon>
                <polygon id="Fill-16" points="48.9844247 15.6142454 51.0713202 17.7045068 50.6146715 18.1566675 48.5288981 16.0652841"></polygon>
                <polygon id="Fill-17" points="45.1977193 11.8185641 47.2846147 13.9054595 46.8279661 14.3609862 44.7421927 12.2740907"></polygon>
                <path d="M64.4162311,16.7059386 C63.5051778,16.7059386 62.7646665,15.9654273 62.7646665,15.05774 C62.7646665,14.1500527 63.5051778,13.4095414 64.4162311,13.4095414 C65.3239184,13.4095414 66.0599417,14.1500527 66.0599417,15.05774 C66.0599417,15.9654273 65.3239184,16.7059386 64.4162311,16.7059386 L64.4162311,16.7059386 Z" id="Fill-18"></path>
                <polygon id="Fill-19" points="67.1909044 11.8185641 67.6464311 12.2740907 65.5561697 14.3654741 65.100643 13.9088255"></polygon>
                <polygon id="Fill-20" points="63.3997111 15.6052695 63.8552377 16.0607962 61.7649763 18.1521796 61.3094497 17.6966529"></polygon>
                <polygon id="Fill-21" points="65.3856277 15.6097575 67.4758891 17.7000189 67.0203624 18.1566675 64.9289791 16.0652841"></polygon>
                <polygon id="Fill-22" points="61.5944343 11.8185641 63.6802078 13.9054595 63.2246811 14.3609862 61.1377857 12.2740907"></polygon>
                <path d="M15.2204761,30.1383645 C14.3127888,30.1383645 13.5722775,29.4023411 13.5722775,28.4946538 C13.5722775,27.5880885 14.3127888,26.8475772 15.2204761,26.8475772 C16.1270415,26.8475772 16.8630648,27.5880885 16.8630648,28.4946538 C16.8630648,29.4023411 16.1270415,30.1383645 15.2204761,30.1383645 L15.2204761,30.1383645 Z" id="Fill-23"></path>
                <polygon id="Fill-24" points="17.9940275 25.252112 18.4495541 25.7076386 16.3637807 27.7979 15.9082541 27.3423734"></polygon>
                <polygon id="Fill-25" points="14.2073221 29.0477933 14.6628487 29.5078079 12.5725873 31.5935814 12.1170607 31.1335668"></polygon>
                <polygon id="Fill-26" points="16.1887507 29.0433054 18.2790121 31.1290788 17.8234855 31.5846055 15.7332241 29.498832"></polygon>
                <polygon id="Fill-27" points="12.4020453 25.252112 14.4923067 27.3423734 14.0367801 27.7979 11.9465187 25.7076386"></polygon>
                <path d="M31.6160692,30.1383645 C30.7083818,30.1383645 29.9678706,29.4023411 29.9678706,28.4946538 C29.9678706,27.5880885 30.7083818,26.8475772 31.6160692,26.8475772 C32.5226345,26.8475772 33.2642678,27.5880885 33.2642678,28.4946538 C33.2642678,29.4023411 32.5271224,30.1383645 31.6160692,30.1383645 L31.6160692,30.1383645 Z" id="Fill-28"></path>
                <polygon id="Fill-29" points="34.3896205 25.252112 34.8462691 25.7076386 32.7593737 27.7979 32.3038471 27.3423734"></polygon>
                <polygon id="Fill-30" points="30.607403 29.0433054 31.0640517 29.50332 28.9726683 31.5890934 28.5171416 31.1290788"></polygon>
                <polygon id="Fill-31" points="32.5888317 29.0433054 34.6790931 31.1290788 34.2235665 31.5846055 32.1333051 29.498832"></polygon>
                <polygon id="Fill-32" points="28.7976383 25.2565999 30.8845338 27.3468613 30.4278851 27.802388 28.3421117 25.7121266"></polygon>
                <path d="M48.0161501,30.1383645 C47.1050969,30.1383645 46.3679515,29.4023411 46.3679515,28.4946538 C46.3679515,27.5880885 47.1050969,26.8475772 48.0161501,26.8475772 C48.9283254,26.8475772 49.6643487,27.5880885 49.6643487,28.4946538 C49.6643487,29.4023411 48.9238374,30.1383645 48.0161501,30.1383645 L48.0161501,30.1383645 Z" id="Fill-33"></path>
                <polygon id="Fill-34" points="50.7863355 25.252112 51.2463501 25.7076386 49.1639426 27.802388 48.703928 27.3468613"></polygon>
                <polygon id="Fill-35" points="47.008606 29.0522813 47.4596447 29.5122959 45.3604074 31.5846055 44.9093687 31.1245909"></polygon>
                <polygon id="Fill-36" points="48.9844247 29.0433054 51.0713202 31.1290788 50.6146715 31.5846055 48.5288981 29.498832"></polygon>
                <polygon id="Fill-37" points="45.1932314 25.252112 47.2801268 27.3423734 46.8246002 27.7979 44.7377047 25.7076386"></polygon>
                <path d="M64.4162311,30.1383645 C63.5051778,30.1383645 62.7646665,29.4023411 62.7646665,28.4946538 C62.7646665,27.5880885 63.5051778,26.8475772 64.4162311,26.8475772 C65.3239184,26.8475772 66.0599417,27.5880885 66.0599417,28.4946538 C66.0599417,29.4023411 65.3239184,30.1383645 64.4162311,30.1383645 L64.4162311,30.1383645 Z" id="Fill-38"></path>
                <polygon id="Fill-39" points="67.1864165 25.252112 67.6464311 25.7076386 65.5651456 27.802388 65.105131 27.3468613"></polygon>
                <polygon id="Fill-40" points="63.3997111 29.0433054 63.8552377 29.498832 61.7649763 31.5890934 61.3094497 31.1335668"></polygon>
                <polygon id="Fill-41" points="65.3856277 29.0433054 67.480377 31.1290788 67.0237284 31.5890934 64.9289791 29.50332"></polygon>
                <polygon id="Fill-42" points="61.5944343 25.2565999 63.6802078 27.3468613 63.2246811 27.7979 61.1377857 25.7076386"></polygon>
                <path d="M15.2204761,43.5764003 C14.3127888,43.5764003 13.5722775,42.835889 13.5722775,41.9326897 C13.5722775,41.0216364 14.3127888,40.2844911 15.2204761,40.2844911 C16.1270415,40.2844911 16.8630648,41.0216364 16.8630648,41.9326897 C16.8630648,42.835889 16.1270415,43.5764003 15.2204761,43.5764003 L15.2204761,43.5764003 Z" id="Fill-43"></path>
                <polygon id="Fill-44" points="17.9985154 38.6935138 18.4540421 39.1535284 16.3637807 41.2404238 15.9082541 40.7804092"></polygon>
                <polygon id="Fill-45" points="14.2028341 42.4723653 14.6594827 42.9278919 12.5725873 45.0226413 12.1170607 44.5671147"></polygon>
                <polygon id="Fill-46" points="16.1887507 42.4757313 18.2790121 44.5671147 17.8234855 45.0226413 15.7332241 42.9323799"></polygon>
                <polygon id="Fill-47" points="12.4020453 38.6890258 14.4923067 40.7804092 14.0367801 41.2359359 11.9465187 39.1456745"></polygon>
                <path d="M31.6160692,43.5764003 C30.7083818,43.5764003 29.9678706,42.835889 29.9678706,41.9326897 C29.9678706,41.0216364 30.7083818,40.2844911 31.6160692,40.2844911 C32.5226345,40.2844911 33.2642678,41.0216364 33.2642678,41.9326897 C33.2642678,42.835889 32.5271224,43.5764003 31.6160692,43.5764003 L31.6160692,43.5764003 Z" id="Fill-48"></path>
                <polygon id="Fill-49" points="34.3941085 38.6890258 34.8507571 39.1501624 32.7593737 41.2359359 32.3038471 40.7759213"></polygon>
                <polygon id="Fill-50" points="30.5995491 42.4757313 31.0550758 42.9323799 28.9681803 45.0271292 28.5126537 44.5716026"></polygon>
                <polygon id="Fill-51" points="32.5888317 42.4757313 34.6790931 44.5671147 34.2235665 45.0226413 32.1333051 42.9323799"></polygon>
                <polygon id="Fill-52" points="28.7976383 38.6935138 30.8845338 40.7848972 30.4278851 41.2404238 28.3421117 39.1501624"></polygon>
                <path d="M48.0161501,43.5764003 C47.1050969,43.5764003 46.3679515,42.835889 46.3679515,41.9326897 C46.3679515,41.0216364 47.1050969,40.2844911 48.0161501,40.2844911 C48.9283254,40.2844911 49.6643487,41.0216364 49.6643487,41.9326897 C49.6598608,42.835889 48.9238374,43.5764003 48.0161501,43.5764003 L48.0161501,43.5764003 Z" id="Fill-53"></path>
                <polygon id="Fill-54" points="50.7908235 38.6890258 51.2463501 39.1456745 49.1560887 41.2359359 48.6994401 40.7804092"></polygon>
                <polygon id="Fill-55" points="46.9996301 42.4802192 47.4506688 42.9368678 45.3514315 45.0181533 44.9003928 44.5626267"></polygon>
                <polygon id="Fill-56" points="48.9799368 42.4802192 51.0668322 44.5760905 50.6113056 45.0271292 48.5244101 42.9323799"></polygon>
                <polygon id="Fill-57" points="45.1977193 38.6890258 47.2846147 40.7804092 46.8279661 41.2359359 44.7421927 39.1456745"></polygon>
                <path d="M64.4162311,43.5764003 C63.5051778,43.5764003 62.7646665,42.835889 62.7646665,41.9326897 C62.7646665,41.0216364 63.5051778,40.2844911 64.4162311,40.2844911 C65.3239184,40.2844911 66.0599417,41.0216364 66.0599417,41.9326897 C66.0554538,42.835889 65.3239184,43.5764003 64.4162311,43.5764003 L64.4162311,43.5764003 Z" id="Fill-58"></path>
                <polygon id="Fill-59" points="67.1909044 38.6890258 67.6464311 39.1456745 65.5561697 41.2359359 65.100643 40.7804092"></polygon>
                <polygon id="Fill-60" points="63.3952231 42.4723653 63.8552377 42.9278919 61.7694642 45.0271292 61.3094497 44.5716026"></polygon>
                <polygon id="Fill-61" points="65.3856277 42.4757313 67.4758891 44.5671147 67.0203624 45.0226413 64.9289791 42.9323799"></polygon>
                <polygon id="Fill-62" points="61.5944343 38.6890258 63.6802078 40.7804092 63.2246811 41.2314479 61.1377857 39.1411865"></polygon>
                <polygon id="Fill-63" points="1.63321607 3.3913213 4.71419181 6.70006036 4.00397417 7.36203257 0.922998432 4.05217152"></polygon>
                <polygon id="Fill-64" points="2.50948776 1.73863475 5.59158548 5.04737381 4.88136784 5.70934602 1.8003921 2.40060696"></polygon>
                <polygon id="Fill-65" points="4.0264139 0.927438303 7.10738964 3.86816569 6.43644154 4.56940744 3.3554658 1.62868005"></polygon>
            </g>
        </g>
    </g>
</svg>