<?xml version="1.0" encoding="UTF-8" standalone="no"?>
<svg width="80px" height="80px" viewBox="0 0 80 80" version="1.1" xmlns="http://www.w3.org/2000/svg" xmlns:xlink="http://www.w3.org/1999/xlink">
    <!-- Generator: Sketch 40.1 (33804) - http://www.bohemiancoding.com/sketch -->
    <title>bike</title>
    <desc>Created with Sketch.</desc>
    <defs></defs>
    <g id="Page-3" stroke="none" stroke-width="1" fill="none" fill-rule="evenodd">
        <g id="bike" fill="#000000">
            <path d="M78.8423444,47.156599 L79.7256461,47.1109381 C79.1950353,38.8762355 72.3506276,32.3593266 63.9813042,32.3593266 C61.3833578,32.3593266 58.9357775,32.9907062 56.7747585,34.1023124 L53.178571,27.7672596 L54.1319386,25.6526888 C54.3287527,25.6912643 54.5011618,25.711733 54.639719,25.711733 C55.5655326,25.711733 58.7129839,22.853992 58.1099455,21.3196292 C57.8501508,20.6583338 56.3315331,21.2897134 54.431096,21.6888525 C54.007552,21.7778125 52.7046426,21.7707271 51.9496637,21.6888525 C50.19172,21.4983364 48.6479101,21.0889631 48.3558379,21.8927519 C48.0047215,22.8634391 50.4137263,24.3112037 52.4346136,25.1165671 L51.9197479,26.2588762 L26.3394237,26.2588762 L27.104637,24.1254112 L26.896014,24.0506219 L28.0682389,20.7827203 L28.0343869,20.7709114 L28.0343869,20.7701242 C27.5636075,20.6079494 26.5204927,20.0797003 26.2961246,19.4766618 C26.2465275,19.342041 26.2024411,19.1231837 26.4008297,18.7854506 C26.7724148,18.1509219 29.937973,18.1288788 33.1743843,18.7382153 L33.4207956,17.4345186 C31.7809404,17.125914 26.3449345,16.2607192 25.2577333,18.1139209 C24.9050424,18.7161721 24.8341894,19.3467645 25.0530467,19.9379941 C25.3002452,20.6048003 25.8765169,21.1047082 26.4205111,21.4487393 L25.6474253,23.6042474 L25.4388023,23.5294581 L21.8536364,33.5260406 C20.0153926,32.7757852 18.0047396,32.3593266 15.897254,32.3593266 C15.0974015,32.3593266 14.3125068,32.4199453 13.5449317,32.5348847 L13.6897869,33.4079522 C6.50922072,34.4746847 1,40.6633077 1,48.1406696 C1,56.3682868 7.66963674,63.0379236 15.897254,63.0379236 C22.0614721,63.0379236 27.350261,59.2945191 29.6159851,53.9569203 L30.4244975,54.3135475 C31.2314354,52.4178339 31.678597,50.3316043 31.678597,48.1406696 C31.678597,42.165393 28.3563748,36.9671386 23.4596396,34.2873176 L24.2390235,32.1144898 L38.5277283,47.9800693 C38.0160116,48.682302 37.7066198,49.5411988 37.7066198,50.4772467 C37.7066198,52.8303563 39.6141422,54.738666 41.968039,54.738666 C42.1412354,54.738666 42.3120701,54.7244954 42.4789684,54.7048139 L43.1489237,57.2445033 L42.1805982,57.2445033 L42.1805982,59.0134686 L45.955493,59.0134686 L45.955493,57.2445033 L44.5211117,57.2445033 L43.7558984,54.3411015 C45.1517041,53.6931894 46.1310512,52.3131288 46.2129258,50.6921678 L49.2580338,50.3693926 C50.3342134,57.5373627 56.5126021,63.0371363 63.9813042,63.0371363 C72.2081342,63.0371363 78.8785582,56.3674996 78.8785582,48.1398823 C78.8785582,47.8060856 78.862813,47.4762251 78.8415571,47.1471519 C78.8423444,47.1510882 78.8423444,47.15345 78.8423444,47.156599 L78.8423444,47.156599 L78.8423444,47.156599 Z M28.1414538,48.1406696 C28.1414538,54.9032026 22.659787,60.3856566 15.897254,60.3856566 C9.13472101,60.3856566 3.65305427,54.9024153 3.65305427,48.1406696 C3.65305427,41.3789238 9.13472101,35.8964698 15.897254,35.8964698 C17.6874752,35.8964698 19.3871619,36.2845873 20.9199502,36.9750112 L18.9061482,42.5897243 L16.5372935,46.2284236 C16.3404794,46.1646559 16.1342182,46.1213567 15.9161482,46.1213567 C14.8006058,46.1213567 13.8968353,47.0251272 13.8968353,48.1398823 C13.8968353,49.2554247 14.8006058,50.1591951 15.9161482,50.1591951 C17.0316906,50.1591951 17.935461,49.2554247 17.935461,48.1398823 C17.935461,47.7289344 17.8110745,47.3463278 17.5993025,47.0267017 L20.0594789,43.2478707 L22.1063457,37.588284 C25.7167039,39.7178127 28.1414538,43.6454352 28.1414538,48.1406696 L28.1414538,48.1406696 L28.1414538,48.1406696 Z M42.8741712,46.3150218 C42.5813118,46.2512541 42.2790053,46.2158275 41.968039,46.2158275 C41.8216093,46.2158275 41.6783286,46.2237001 41.5366224,46.2370834 L40.786367,43.3927259 L41.8656956,43.3927259 L41.8656956,41.6245478 L38.0908009,41.6245478 L38.0908009,43.3927259 L39.4149663,43.3927259 L40.2541817,46.5771782 C40.110901,46.6401588 39.9762801,46.7173099 39.8416593,46.794461 L24.9168513,30.224287 L25.7041078,28.0286288 L51.1191081,28.0286288 L42.8741712,46.3150218 L42.8741712,46.3150218 L42.8741712,46.3150218 Z M48.2385367,49.1444216 L46.0798795,49.3735132 C45.8248084,48.4272309 45.2548347,47.610846 44.4856851,47.0455958 L52.5038922,29.2646214 L55.6222151,34.7573097 C51.1663435,37.5465594 48.2007484,42.496828 48.2007484,48.1406696 C48.1999611,48.4784026 48.2164935,48.8121993 48.2385367,49.1444216 L48.2385367,49.1444216 L48.2385367,49.1444216 Z M51.7371044,48.1406696 C51.7371044,43.8146953 53.9831471,40.0153956 57.3691371,37.8378443 L62.3005116,46.5236448 C61.9887581,46.8472072 61.7714753,47.2589423 61.6864516,47.7179129 L51.7528495,48.7728365 C51.7426152,48.562639 51.7371044,48.3524416 51.7371044,48.1406696 L51.7371044,48.1406696 L51.7371044,48.1406696 Z M63.9813042,60.3848693 C57.8824284,60.3848693 52.8274546,55.9250615 51.8937684,50.0899166 L61.8242215,49.0357802 C62.1753378,49.8812936 63.0090424,50.4764595 63.9813042,50.4764595 C65.2724048,50.4764595 66.3186686,49.4309829 66.3186686,48.1398823 C66.3186686,46.849569 65.2724048,45.8033051 63.9813042,45.8033051 C63.8002352,45.8033051 63.624677,45.8284973 63.4546296,45.8678602 L58.5224679,37.1804851 C60.1654721,36.3601639 62.0186738,35.8956826 63.9813042,35.8956826 C70.7438372,35.8956826 76.2255039,41.3781366 76.2255039,48.1398823 C76.2255039,54.9024153 70.7438372,60.3848693 63.9813042,60.3848693 L63.9813042,60.3848693 L63.9813042,60.3848693 Z" id="Shape"></path>
        </g>
    </g>
</svg>