<?xml version="1.0" encoding="UTF-8" standalone="no"?>
<svg width="80px" height="86px" viewBox="0 0 80 86" version="1.1" xmlns="http://www.w3.org/2000/svg" xmlns:xlink="http://www.w3.org/1999/xlink">
    <!-- Generator: Sketch 3.6.1 (26313) - http://www.bohemiancoding.com/sketch -->
    <title>noun_159278</title>
    <desc>Created with Sketch.</desc>
    <defs></defs>
    <g id="Page-1" stroke="none" stroke-width="1" fill="none" fill-rule="evenodd">
        <g id="noun_159278" fill="#FFFFFF">
            <rect id="Rectangle-path" x="10.246" y="10.41" width="30.846" height="4.783"></rect>
            <rect id="Rectangle-path" x="10.246" y="53.432" width="15.423" height="3.96"></rect>
            <path d="M74.373,17.612 L50.904,17.612 L50.904,6.082 C50.904,3.218 48.574,0.889 45.713,0.889 L5.627,0.889 C2.763,0.889 0.432,3.218 0.432,6.082 L0.432,63.193 C0.432,66.057 2.763,68.386 5.627,68.386 L29.093,68.386 L29.093,79.915 C29.093,82.781 31.424,85.11 34.29,85.11 L74.373,85.11 C77.237,85.11 79.568,82.781 79.568,79.915 L79.568,22.807 C79.568,19.943 77.237,17.612 74.373,17.612 L74.373,17.612 Z M5.627,64.429 C4.947,64.429 4.392,63.875 4.392,63.194 L4.392,6.082 C4.392,5.402 4.947,4.847 5.627,4.847 L45.713,4.847 C46.393,4.847 46.948,5.402 46.948,6.082 L46.948,17.612 L34.29,17.612 C31.672,17.612 29.522,19.564 29.166,22.085 L10.246,22.085 L10.246,26.043 L29.093,26.043 L29.093,29.043 L10.246,29.043 L10.246,33.002 L29.093,33.002 L29.093,36 L10.246,36 L10.246,39.959 L29.093,39.959 L29.093,42.959 L10.246,42.959 L10.246,46.917 L29.093,46.917 L29.093,64.429 L5.627,64.429 L5.627,64.429 Z M75.609,79.916 C75.609,80.599 75.053,81.152 74.373,81.152 L34.29,81.152 C33.608,81.152 33.053,80.598 33.053,79.916 L33.053,22.807 C33.053,22.125 33.608,21.571 34.29,21.571 L74.373,21.571 C75.054,21.571 75.609,22.125 75.609,22.807 L75.609,79.916 L75.609,79.916 Z" id="Shape"></path>
            <path d="M55.656,72.513 L55.656,74.589 L53.06,74.589 L53.06,72.592 C51.818,72.536 50.567,72.357 49.752,72.221 L49.752,69.054 L51.749,69.054 L51.93,70.116 C52.523,70.136 53.113,70.151 53.874,70.151 C55.269,70.151 55.958,69.709 55.958,68.774 C55.958,68.085 55.605,67.785 54.454,67.242 L52.511,66.318 C50.676,65.454 49.397,64.701 49.397,62.552 C49.397,60.502 50.655,59.371 53.06,59.051 L53.06,57.111 L55.656,57.111 L55.656,58.96 C56.967,59.032 58.308,59.242 58.804,59.372 L58.804,62.407 L56.807,62.407 L56.629,61.417 C56.014,61.364 55.397,61.346 54.741,61.346 C53.409,61.346 52.691,61.618 52.691,62.5 C52.691,63.135 52.991,63.433 54.172,63.958 L56.013,64.774 C58.076,65.699 59.261,66.579 59.261,68.668 C59.263,70.86 57.938,72.157 55.656,72.513 L55.656,72.513 Z" id="Shape"></path>
            <rect id="Rectangle-path" x="38.907" y="32.042" width="30.846" height="3.959"></rect>
            <rect id="Rectangle-path" x="38.907" y="39" width="30.846" height="3.959"></rect>
            <rect id="Rectangle-path" x="38.907" y="45.959" width="30.846" height="3.96"></rect>
        </g>
    </g>
</svg>