<?xml version="1.0" encoding="UTF-8" standalone="no"?>
<svg width="80px" height="80px" viewBox="0 0 80 80" version="1.1" xmlns="http://www.w3.org/2000/svg" xmlns:xlink="http://www.w3.org/1999/xlink">
    <!-- Generator: Sketch 40.1 (33804) - http://www.bohemiancoding.com/sketch -->
    <title>box-of-junk</title>
    <desc>Created with Sketch.</desc>
    <defs></defs>
    <g id="Page-3" stroke="none" stroke-width="1" fill="none" fill-rule="evenodd">
        <g id="box-of-junk" fill="#000000">
            <path d="M77.3286429,32.3336429 L70.9521429,22.1685714 C70.9493571,22.163 70.9382143,22.1602143 70.9354286,22.1546429 C70.9159286,22.124 70.8825,22.1072857 70.8602143,22.0766429 C70.7125714,21.8844286 70.5342857,21.7172857 70.3058571,21.6225714 C70.3030714,21.6225714 70.3030714,21.6197857 70.3030714,21.6197857 L39.0557143,8.76928571 C38.8384286,8.68292857 38.6127857,8.669 38.3871429,8.69128571 C38.3230714,8.69685714 38.2701429,8.71078571 38.2088571,8.7275 C38.1364286,8.74421429 38.0612143,8.74142857 37.9943571,8.76928571 L6.75535714,21.617 C6.75257143,21.617 6.74978571,21.6197857 6.747,21.6197857 L6.747,21.6197857 L6.747,21.6197857 C6.74421429,21.6197857 6.74421429,21.6225714 6.74142857,21.6225714 C6.68571429,21.6476429 6.64114286,21.6922143 6.591,21.7228571 C6.48792857,21.7813571 6.38485714,21.8342857 6.30128571,21.9178571 C6.25392857,21.9624286 6.22885714,22.0265 6.18985714,22.0766429 C6.15364286,22.124 6.12578571,22.1657857 6.09514286,22.2159286 C6.07842857,22.2437857 6.05892857,22.2632857 6.045,22.2911429 C6.03107143,22.319 6.00878571,22.3329286 5.99764286,22.358 L5.99764286,22.3607857 C5.99485714,22.3663571 5.99485714,22.3691429 5.99207143,22.3719286 L0.573857143,34.955 C0.426214286,35.2976429 0.420642857,35.6848571 0.559928571,36.0275 C0.702,36.3729286 0.972214286,36.6487143 1.31485714,36.7907857 L5.88342857,38.6934286 L5.88342857,63.3720714 C5.88342857,63.9375714 6.22328571,64.4473571 6.747,64.6618571 L36.8020714,77.0220714 C37.0750714,77.1362857 37.3536429,77.2198571 37.6377857,77.2755714 C37.8801429,77.4789286 38.181,77.6154286 38.5236429,77.6154286 C38.8635,77.6154286 39.1643571,77.4789286 39.4067143,77.2755714 C39.6908571,77.2170714 39.975,77.1335 40.248,77.0220714 L70.3002857,64.6590714 C70.824,64.4445714 71.1638571,63.9347857 71.1638571,63.3692857 L71.1638571,32.7515 L75.6739286,34.3811429 C75.8299286,34.4368571 75.9887143,34.4647143 76.1475,34.4647143 C76.5597857,34.4647143 76.9609286,34.2808571 77.2339286,33.9465714 C77.6044286,33.4841429 77.6434286,32.8350714 77.3286429,32.3336429 L77.3286429,32.3336429 L77.3286429,32.3336429 Z M45.8305714,24.581 C46.0144286,24.9765714 46.371,25.2607143 46.8,25.3526429 C47.2262143,25.4417857 47.6691429,25.3331429 48.0006429,25.049 C48.6218571,24.5197143 49.6581429,23.8873571 51.0816429,23.8873571 C53.196,23.8873571 55.0401429,25.3052857 55.6502143,27.2580714 L38.3648571,34.2557857 L20.0097857,26.6424286 C20.7424286,24.0127143 23.0406429,21.4415 25.7678571,21.4415 C27.2888571,21.4415 28.743,22.0265 29.874,23.0878571 C30.1581429,23.3552857 30.5147143,23.489 30.9297857,23.4611429 C31.317,23.4332857 31.6763571,23.2438571 31.9187143,22.9402143 C33.5121429,20.9372857 35.8605,19.7895714 38.3592857,19.7895714 C41.5377857,19.7923571 44.4711429,21.6727143 45.8305714,24.581 L45.8305714,24.581 L45.8305714,24.581 Z M38.5152857,11.5661429 L38.4790714,17.015 C38.4372857,17.015 38.3982857,17.0066429 38.3565,17.0066429 C35.4677143,17.0066429 32.7321429,18.146 30.6707143,20.1712143 C29.2221429,19.1878571 27.5228571,18.6585714 25.7650714,18.6585714 C21.7982143,18.6585714 18.5723571,21.9875 17.433,25.5838571 L10.9395,22.9095714 L38.5152857,11.5661429 L38.5152857,11.5661429 L38.5152857,11.5661429 Z M8.0145,24.7202857 L36.5485714,36.5205714 L32.4257143,46.7246429 L3.68828571,34.7627857 L8.0145,24.7202857 L8.0145,24.7202857 L8.0145,24.7202857 Z M39.9165,74.1472143 L39.9165,72.5259286 C39.9165,71.7570714 39.2925,71.1330714 38.5236429,71.1330714 C37.7547857,71.1330714 37.1307857,71.7570714 37.1307857,72.5259286 L37.1307857,74.1416429 L8.66914286,62.4388571 L8.66914286,39.8522857 L32.6513571,49.8390714 C32.8240714,49.9087143 33.0051429,49.9449286 33.1862143,49.9449286 C33.3672857,49.9449286 33.5511429,49.9087143 33.7238571,49.8362857 C34.0665,49.6942143 34.3367143,49.4212143 34.4787857,49.0757857 L37.128,42.5182143 L37.128,57.0763571 C37.128,57.8452143 37.752,58.4692143 38.5208571,58.4692143 C39.2897143,58.4692143 39.9137143,57.8452143 39.9137143,57.0763571 L39.9137143,36.6960714 L49.4325,32.7821429 L57.7506429,29.4142143 C57.8035714,29.3919286 57.8258571,29.3362143 57.876,29.3083571 L68.3753571,24.9905 L68.3753571,62.4416429 L39.9165,74.1472143 L39.9165,74.1472143 L39.9165,74.1472143 Z M71.1638571,29.7902857 L71.1638571,27.7511429 L72.8185714,30.3892143 L71.1638571,29.7902857 L71.1638571,29.7902857 L71.1638571,29.7902857 Z" id="Shape"></path>
            <path d="M38.5236429,62.45 C37.7547857,62.45 37.1307857,63.074 37.1307857,63.8428571 L37.1307857,68.6287143 C37.1307857,69.3975714 37.7547857,70.0215714 38.5236429,70.0215714 C39.2925,70.0215714 39.9165,69.3975714 39.9165,68.6287143 L39.9165,63.8428571 C39.9165,63.074 39.2925,62.45 38.5236429,62.45 L38.5236429,62.45 L38.5236429,62.45 Z" id="Shape"></path>
        </g>
    </g>
</svg>