<?xml version="1.0" encoding="UTF-8" standalone="no"?>
<svg width="80px" height="80px" viewBox="0 0 80 80" version="1.1" xmlns="http://www.w3.org/2000/svg" xmlns:xlink="http://www.w3.org/1999/xlink">
    <!-- Generator: Sketch 40.1 (33804) - http://www.bohemiancoding.com/sketch -->
    <title>carpet</title>
    <desc>Created with Sketch.</desc>
    <defs></defs>
    <g id="Page-3" stroke="none" stroke-width="1" fill="none" fill-rule="evenodd">
        <g id="carpet" fill="#000000">
            <path d="M23.425,48.115 L28.117,50.986 L22.683,50.986 L23.425,48.115 Z M54.765,48.619 L54.48,50.904 L50.234,50.94 L54.765,48.619 Z M55.96,39.287 L52.324,37.104 L56.242,37.104 L55.96,39.287 Z M25.562,38.744 L25.984,37.104 L28.976,37.104 L25.562,38.744 Z M41.812,33.717 L58.613,43.811 L38.281,54.252 L21.042,43.717 L41.812,33.717 Z M70.878,59.193 L15.082,59.182 C15.097,59.162 15.109,59.143 15.124,59.123 C15.132,59.111 15.136,59.104 15.144,59.1 C15.25,58.959 15.355,58.822 15.453,58.674 C15.468,58.65 15.48,58.627 15.496,58.608 C15.582,58.475 15.664,58.342 15.742,58.201 C15.769,58.15 15.789,58.108 15.816,58.057 C15.878,57.94 15.941,57.822 15.996,57.697 C16.027,57.627 16.054,57.553 16.085,57.483 C16.113,57.412 16.144,57.35 16.167,57.283 C16.207,57.287 16.246,57.295 16.289,57.295 L31.164,57.295 C31.847,57.295 32.402,56.725 32.402,56.033 C32.402,55.33 31.847,54.772 31.164,54.772 L17.023,54.772 L19.449,45.686 L21.214,46.764 L19.878,51.924 C19.781,52.303 19.859,52.705 20.093,53.018 C20.328,53.326 20.691,53.51 21.078,53.51 L32.246,53.51 L37.589,56.776 C37.785,56.897 38.007,56.955 38.226,56.955 C38.417,56.955 38.609,56.908 38.785,56.822 L45.468,53.389 C45.496,53.389 45.519,53.397 45.546,53.397 L55.566,53.51 L55.57,53.51 C56.195,53.51 56.718,52.951 56.8,52.322 L57.429,47.248 L61.753,45.022 C62.16,44.815 62.421,44.404 62.437,43.943 C62.449,43.475 62.218,43.049 61.828,42.815 L58.277,40.682 L58.886,36.006 C58.933,35.647 58.828,35.279 58.593,35.01 C58.355,34.736 58.015,34.58 57.66,34.58 L48.124,34.58 L42.507,31.205 C42.152,30.99 41.718,30.971 41.347,31.147 L34.218,34.58 L25.027,34.58 C24.464,34.58 23.972,34.963 23.828,35.522 L22.64,40.15 L20.671,41.096 L22.75,33.318 L34.882,33.318 C35.566,33.318 36.121,32.748 36.121,32.057 C36.121,31.358 35.566,30.795 34.882,30.795 L23.421,30.795 L23.929,28.897 L74.886,28.908 L70.878,59.193 Z M5.476,54.772 C5.476,54.248 5.574,53.725 5.761,53.213 C6.398,51.502 8.027,50.354 9.816,50.354 C12.21,50.354 14.16,52.334 14.16,54.772 C14.16,55.15 14.105,55.541 14,55.936 C14,55.936 14,55.936 13.996,55.943 C13.937,56.166 13.859,56.381 13.765,56.588 C13.738,56.65 13.703,56.713 13.671,56.776 C13.597,56.916 13.523,57.061 13.437,57.193 C13.398,57.256 13.351,57.318 13.304,57.377 C13.218,57.502 13.124,57.623 13.027,57.729 C12.972,57.791 12.921,57.842 12.867,57.9 C12.761,58.006 12.652,58.104 12.539,58.197 C12.48,58.248 12.417,58.299 12.351,58.346 C12.238,58.428 12.121,58.506 12,58.576 C11.925,58.619 11.851,58.662 11.777,58.709 C11.66,58.764 11.539,58.815 11.417,58.865 C11.328,58.904 11.238,58.94 11.148,58.971 C11.039,59.002 10.929,59.029 10.816,59.053 C10.707,59.084 10.597,59.119 10.48,59.135 C10.296,59.162 10.113,59.182 9.921,59.182 L9.878,59.186 L9.874,59.186 C9.855,59.186 9.839,59.193 9.816,59.193 C7.425,59.193 5.476,57.205 5.476,54.772 L5.476,54.772 Z M16.058,23.729 C16.07,23.701 16.078,23.678 16.085,23.65 C16.722,21.873 17.972,20.807 19.425,20.807 C20.492,20.807 21.484,21.24 22.082,21.975 C22.582,22.592 22.753,23.35 22.593,24.193 C22.558,24.358 22.304,25.361 22.304,25.361 L17.574,43.08 L17.484,43.412 L15.484,50.916 C15.484,50.908 15.48,50.908 15.48,50.904 C15.339,50.693 15.183,50.494 15.023,50.295 C14.976,50.24 14.925,50.19 14.874,50.131 C14.757,49.994 14.628,49.861 14.5,49.736 C14.437,49.678 14.374,49.623 14.312,49.565 C14.179,49.443 14.042,49.33 13.898,49.225 C13.835,49.174 13.777,49.123 13.71,49.08 C13.515,48.94 13.312,48.807 13.101,48.69 C13.093,48.69 13.082,48.682 13.074,48.674 C12.851,48.549 12.621,48.443 12.386,48.346 C12.316,48.315 12.242,48.291 12.171,48.264 C12,48.201 11.828,48.139 11.652,48.096 C11.566,48.068 11.48,48.045 11.394,48.026 C11.218,47.983 11.039,47.951 10.855,47.92 C10.773,47.904 10.695,47.893 10.613,47.881 C10.351,47.85 10.089,47.83 9.816,47.83 C9.628,47.83 9.441,47.838 9.253,47.854 C9.191,47.861 9.132,47.869 9.07,47.881 C8.945,47.893 8.82,47.904 8.699,47.932 C8.624,47.943 8.554,47.955 8.484,47.967 C8.371,47.994 8.261,48.018 8.152,48.049 C8.078,48.065 8.007,48.088 7.933,48.108 C7.828,48.139 7.722,48.178 7.617,48.213 C7.574,48.229 7.535,48.233 7.496,48.252 L16.058,23.729 Z M77.238,26.815 C77.003,26.541 76.664,26.385 76.304,26.385 L24.601,26.369 L24.699,26.006 C25,24.83 25.019,24.733 25.027,24.686 C25.324,23.092 24.957,21.557 23.992,20.365 C22.929,19.065 21.222,18.283 19.425,18.283 C16.949,18.283 14.796,19.975 13.789,22.705 C13.773,22.736 13.761,22.768 13.75,22.799 L3.437,52.342 C3.433,52.346 3.433,52.346 3.433,52.354 C3.144,53.135 3,53.951 3,54.772 C3,58.6 6.058,61.717 9.816,61.717 C9.89,61.717 9.96,61.709 10.035,61.705 L71.96,61.717 C72.582,61.717 73.105,61.244 73.191,60.619 L77.535,27.811 C77.582,27.451 77.472,27.092 77.238,26.815 L77.238,26.815 Z" id="Fill-1"></path>
            <path d="M40.804,40.049 L46.992,43.779 L39.285,47.678 L33.011,43.861 L40.804,40.049 Z M29.761,44.818 L38.593,50.197 C38.789,50.315 39.007,50.377 39.23,50.377 C39.417,50.377 39.609,50.334 39.781,50.248 L50.136,45.01 C50.542,44.803 50.808,44.385 50.824,43.924 C50.839,43.463 50.609,43.029 50.218,42.795 L41.5,37.533 C41.14,37.318 40.703,37.299 40.328,37.483 L29.863,42.6 C29.449,42.803 29.183,43.217 29.16,43.678 C29.14,44.147 29.371,44.58 29.761,44.818 L29.761,44.818 Z" id="Fill-2"></path>
            <path d="M69.593,42.783 L65.874,42.783 C65.187,42.783 64.632,43.342 64.632,44.045 C64.632,44.736 65.187,45.307 65.874,45.307 L69.593,45.307 C70.277,45.307 70.832,44.736 70.832,44.045 C70.832,43.342 70.277,42.783 69.593,42.783" id="Fill-3"></path>
            <path d="M67.734,54.772 L45.417,54.772 C44.734,54.772 44.179,55.33 44.179,56.033 C44.179,56.725 44.734,57.295 45.417,57.295 L67.734,57.295 C68.417,57.295 68.972,56.725 68.972,56.033 C68.972,55.33 68.417,54.772 67.734,54.772" id="Fill-4"></path>
            <path d="M49.757,33.318 L71.453,33.318 C72.136,33.318 72.691,32.748 72.691,32.057 C72.691,31.358 72.136,30.795 71.453,30.795 L49.757,30.795 C49.074,30.795 48.519,31.358 48.519,32.057 C48.519,32.748 49.074,33.318 49.757,33.318" id="Fill-5"></path>
            <path d="M10.671,55.084 C10.671,55.779 11.226,56.346 11.91,56.346 C12.593,56.346 13.148,55.779 13.148,55.084 C13.148,52.865 11.378,51.061 9.199,51.061 C8.515,51.061 7.957,51.627 7.957,52.322 C7.957,53.022 8.515,53.584 9.199,53.584 C10.011,53.584 10.671,54.26 10.671,55.084" id="Fill-6"></path>
            <path d="M70.214,36.471 L62.773,36.471 C62.089,36.471 61.535,37.033 61.535,37.736 C61.535,38.428 62.089,38.998 62.773,38.998 L70.214,38.998 C70.898,38.998 71.453,38.428 71.453,37.736 C71.453,37.033 70.898,36.471 70.214,36.471" id="Fill-7"></path>
            <path d="M68.972,48.459 L61.535,48.459 C60.851,48.459 60.296,49.022 60.296,49.721 C60.296,50.416 60.851,50.986 61.535,50.986 L68.972,50.986 C69.656,50.986 70.214,50.416 70.214,49.721 C70.214,49.022 69.656,48.459 68.972,48.459" id="Fill-8"></path>
        </g>
    </g>
</svg>