<?xml version="1.0" encoding="UTF-8" standalone="no"?>
<svg width="81px" height="81px" viewBox="0 0 81 81" version="1.1" xmlns="http://www.w3.org/2000/svg" xmlns:xlink="http://www.w3.org/1999/xlink">
    <!-- Generator: Sketch 3.6.1 (26313) - http://www.bohemiancoding.com/sketch -->
    <title>noun_235450</title>
    <desc>Created with Sketch.</desc>
    <defs></defs>
    <g id="Page-1" stroke="none" stroke-width="1" fill="none" fill-rule="evenodd">
        <g id="noun_235450">
            <path d="M40.798,6.47 C22.118,6.47 6.92,21.668 6.92,40.348 C6.92,59.028 22.118,74.226 40.798,74.226 C59.478,74.226 74.676,59.028 74.676,40.348 C74.676,21.668 59.478,6.47 40.798,6.47 L40.798,6.47 Z M40.798,10.285 C42.482,10.285 43.847,11.65 43.847,13.334 C43.847,15.018 42.482,16.383 40.798,16.383 C39.114,16.383 37.749,15.018 37.749,13.334 C37.749,11.65 39.114,10.285 40.798,10.285 L40.798,10.285 Z M25.815,14.299 C27.273,13.457 29.138,13.957 29.98,15.415 C30.822,16.873 30.322,18.738 28.864,19.58 C27.406,20.422 25.541,19.922 24.699,18.464 C23.858,17.006 24.357,15.141 25.815,14.299 L25.815,14.299 Z M10.833,40.25 C10.833,38.566 12.198,37.201 13.882,37.201 C15.566,37.201 16.931,38.566 16.931,40.25 C16.931,41.934 15.566,43.299 13.882,43.299 C12.198,43.299 10.833,41.934 10.833,40.25 L10.833,40.25 Z M19.012,56.349 C17.554,57.191 15.689,56.691 14.847,55.233 C14.005,53.775 14.505,51.91 15.963,51.068 C17.421,50.226 19.286,50.726 20.128,52.184 C20.97,53.642 20.47,55.507 19.012,56.349 L19.012,56.349 Z M20.128,28.316 C19.286,29.774 17.422,30.274 15.963,29.432 C14.505,28.59 14.005,26.726 14.847,25.267 C15.689,23.809 17.553,23.309 19.012,24.151 C20.47,24.993 20.97,26.858 20.128,28.316 L20.128,28.316 Z M29.98,65.085 C29.138,66.543 27.274,67.043 25.815,66.201 C24.357,65.359 23.857,63.495 24.699,62.036 C25.541,60.578 27.405,60.078 28.864,60.92 C30.322,61.762 30.822,63.627 29.98,65.085 L29.98,65.085 Z M40.798,70.215 C39.114,70.215 37.749,68.85 37.749,67.166 C37.749,65.482 39.114,64.117 40.798,64.117 C42.482,64.117 43.847,65.482 43.847,67.166 C43.847,68.85 42.482,70.215 40.798,70.215 L40.798,70.215 Z M41.161,59.556 C40.895,59.557 40.638,59.524 40.393,59.461 C39.106,59.128 38.153,57.962 38.147,56.57 L38.084,43.267 L25.242,30.546 C24.064,29.38 24.056,27.481 25.222,26.304 C26.388,25.126 28.288,25.117 29.464,26.284 L43.235,39.926 C43.95,40.634 44.227,41.612 44.079,42.535 L44.146,56.542 C44.155,58.199 42.818,59.548 41.161,59.556 L41.161,59.556 Z M55.781,66.201 C54.323,67.043 52.458,66.543 51.616,65.085 C50.774,63.627 51.274,61.762 52.732,60.92 C54.19,60.078 56.055,60.578 56.897,62.036 C57.739,63.494 57.239,65.359 55.781,66.201 L55.781,66.201 Z M56.897,18.464 C56.055,19.922 54.191,20.422 52.732,19.58 C51.274,18.738 50.774,16.874 51.616,15.415 C52.458,13.957 54.322,13.457 55.781,14.299 C57.239,15.141 57.739,17.006 56.897,18.464 L56.897,18.464 Z M66.749,55.233 C65.907,56.691 64.043,57.191 62.584,56.349 C61.126,55.507 60.626,53.643 61.468,52.184 C62.31,50.726 64.174,50.226 65.633,51.068 C67.091,51.91 67.591,53.775 66.749,55.233 L66.749,55.233 Z M70.764,40.25 C70.764,41.934 69.399,43.299 67.715,43.299 C66.031,43.299 64.666,41.934 64.666,40.25 C64.666,38.566 66.031,37.201 67.715,37.201 C69.399,37.201 70.764,38.566 70.764,40.25 L70.764,40.25 Z M66.749,25.267 C67.591,26.725 67.091,28.59 65.633,29.432 C64.175,30.274 62.31,29.774 61.468,28.316 C60.626,26.858 61.126,24.993 62.584,24.151 C64.042,23.31 65.907,23.809 66.749,25.267 L66.749,25.267 Z" id="Shape"></path>
            <path d="M40.798,0.47 C18.809,0.47 0.92,18.359 0.92,40.348 C0.92,62.337 18.809,80.226 40.798,80.226 C62.787,80.226 80.676,62.337 80.676,40.348 C80.676,18.359 62.787,0.47 40.798,0.47 L40.798,0.47 Z M40.798,74.226 C22.118,74.226 6.92,59.028 6.92,40.348 C6.92,21.668 22.118,6.47 40.798,6.47 C59.478,6.47 74.676,21.668 74.676,40.348 C74.676,59.028 59.478,74.226 40.798,74.226 L40.798,74.226 Z" id="Shape" fill="#FFFFFF"></path>
            <path d="M43.236,39.925 L29.464,26.283 C28.288,25.117 26.387,25.125 25.222,26.303 C24.056,27.48 24.065,29.379 25.242,30.545 L38.084,43.266 L38.147,56.569 C38.153,57.961 39.106,59.127 40.393,59.46 C40.638,59.523 40.896,59.556 41.161,59.555 C42.817,59.547 44.154,58.198 44.146,56.541 L44.08,42.534 C44.228,41.612 43.951,40.634 43.236,39.925 L43.236,39.925 Z" id="Shape" fill="#FFFFFF"></path>
            <circle id="Oval" fill="#FFFFFF" cx="40.798" cy="13.333" r="3.049"></circle>
            <circle id="Oval" fill="#FFFFFF" cx="27.34" cy="16.939" r="3.049"></circle>
            <circle id="Oval" fill="#FFFFFF" cx="17.488" cy="26.792" r="3.049"></circle>
            <circle id="Oval" fill="#FFFFFF" cx="13.881" cy="40.25" r="3.049"></circle>
            <circle id="Oval" fill="#FFFFFF" cx="17.488" cy="53.708" r="3.049"></circle>
            <circle id="Oval" fill="#FFFFFF" cx="27.34" cy="63.561" r="3.049"></circle>
            <circle id="Oval" fill="#FFFFFF" cx="40.798" cy="67.167" r="3.049"></circle>
            <circle id="Oval" fill="#FFFFFF" cx="54.256" cy="63.561" r="3.049"></circle>
            <circle id="Oval" fill="#FFFFFF" cx="64.109" cy="53.708" r="3.049"></circle>
            <circle id="Oval" fill="#FFFFFF" cx="67.715" cy="40.25" r="3.049"></circle>
            <circle id="Oval" fill="#FFFFFF" cx="64.109" cy="26.792" r="3.049"></circle>
            <circle id="Oval" fill="#FFFFFF" cx="54.256" cy="16.939" r="3.049"></circle>
        </g>
    </g>
</svg>