<?xml version="1.0" encoding="UTF-8" standalone="no"?>
<svg width="80px" height="80px" viewBox="0 0 80 80" version="1.1" xmlns="http://www.w3.org/2000/svg" xmlns:xlink="http://www.w3.org/1999/xlink">
    <!-- Generator: Sketch 40.1 (33804) - http://www.bohemiancoding.com/sketch -->
    <title>construction-debris</title>
    <desc>Created with Sketch.</desc>
    <defs>
        <path d="M76.3646312,21.0861434 C76.279461,20.9681219 76.1456222,20.8866019 75.9983995,20.8634843 C75.8511768,20.83915 75.7039541,20.8768682 75.5847159,20.963255 L64.1402814,29.261261 C63.893288,29.441335 63.8361023,29.7893159 64.017393,30.0411762 L64.4262097,30.6069493 L62.4295781,31.9465541 L62.4295781,30.9062616 C62.4295781,30.5972156 62.1825847,30.3502222 61.8686719,30.3502222 L57.9143435,30.3502222 L47.9141513,17.0661124 L41.4692045,21.9183774 L41.4692045,16.4954724 L32.5105216,16.4954724 L32.5105216,8.37267363 L13.2328668,8.37267363 L13.2328668,16.4954724 L4.3216358,16.4954724 L4.3216358,25.7011487 L5.61500534,25.7011487 L5.61500534,30.3453553 L1.66067701,30.3453553 C1.35163104,30.3453553 1.10463761,30.5923487 1.10463761,30.9013947 L1,33.1815212 C1,33.4905672 1.24699343,33.7387774 1.5560394,33.7387774 L5.61500534,33.7387774 L30.0722219,56.509625 C29.6208201,56.6519808 29.1694183,56.7943366 28.6936822,56.9561599 C26.9683783,53.7476787 23.5749563,51.6950781 19.9199402,51.6950781 C14.4264656,51.6950781 9.95381606,56.1665109 9.95381606,61.6612022 C9.95381606,67.1558936 14.4264656,71.6273264 19.9199402,71.6273264 C25.4146315,71.6273264 29.887281,67.1558936 29.887281,61.6612022 C29.887281,60.9810578 29.8106279,60.2923963 29.6634052,59.6037348 C34.3733144,58.0390375 37.8811078,57.1739521 39.5784272,57.1739521 C40.0772809,57.1739521 40.2768224,57.2506053 40.338875,57.2834566 C41.4168857,57.8443629 42.7856917,60.2777957 43.8892535,62.2318422 C45.6230743,65.2967509 47.2583412,68.1913192 49.5348176,68.1913192 C49.8256128,68.1913192 50.1249251,68.1390004 50.4145036,68.0440965 C51.4024773,67.7167998 53.0523447,67.1692774 55.7996904,54.5129933 C56.5406707,51.0903701 59.6299137,37.1893851 59.6299137,37.1893851 C59.6493811,37.1747845 66.0699936,32.8639583 66.0699936,32.8639583 L66.5408629,33.5149015 C66.626033,33.6341397 66.7598718,33.714443 66.9070945,33.7387774 C67.0543172,33.761895 67.2064067,33.7290436 67.3207781,33.6390066 L78.7700795,25.3446508 C78.888101,25.2594807 78.969621,25.1268586 78.9927386,24.9784192 C79.0170729,24.8457971 78.9793547,24.6937076 78.8929679,24.5744694 L76.3646312,21.0861434 Z M19.8067856,66.9551354 C16.9219509,66.9551354 14.5736883,64.6129563 14.5736883,61.7281217 C14.5736883,58.843287 16.9219509,56.4950244 19.8067856,56.4950244 C22.6916202,56.4950244 25.0398828,58.8384202 25.0398828,61.7281217 C25.0398828,64.6129563 22.6916202,66.9551354 19.8067856,66.9551354 L19.8067856,66.9551354 Z M47.6963591,18.6247261 L56.4457668,30.2455845 L56.3131447,30.3453553 L47.7961299,30.3453553 L42.1298815,22.821181 L47.6963591,18.6247261 Z M46.3932558,30.3453553 L43.1713908,30.3453553 L43.1713908,26.0673804 L46.3932558,30.3453553 Z M41.4692045,23.8103714 L42.059312,24.5939368 L41.4692045,24.5939368 L41.4692045,23.8103714 Z M42.0544451,30.3453553 L25.0058148,30.3453553 L25.0058148,25.7060156 L42.0544451,25.7060156 L42.0544451,30.3453553 Z M40.3522589,17.6124181 L40.3522589,24.5890699 L23.5992906,24.5890699 L23.5992906,17.6124181 L40.3522589,17.6124181 Z M14.3449456,9.4896193 L31.3935759,9.4896193 L31.3935759,16.4614043 L14.3449456,16.4614043 L14.3449456,9.4896193 Z M5.43858146,24.5890699 L5.43858146,17.6124181 L22.1878996,17.6124181 L22.1878996,24.5890699 L5.43858146,24.5890699 Z M6.73195101,25.7437338 L23.7793646,25.7437338 L23.7793646,30.3453553 L6.73195101,30.3453553 L6.73195101,25.7437338 Z M46.3226863,60.8630363 C45.1765394,58.8384202 44.485947,57.7167002 43.2169118,56.4999838 L53.2093012,53.2768095 C51.8684797,59.4893635 50.3767854,64.9305192 49.5445513,65.3916548 C48.8656236,65.3636703 47.1013848,62.241576 46.3226863,60.8630363 Z" id="path-1"></path>
        <mask id="mask-2" maskContentUnits="userSpaceOnUse" maskUnits="objectBoundingBox" x="0" y="0" width="78" height="63.2546527" fill="white">
            <use xlink:href="#path-1"></use>
        </mask>
    </defs>
    <g id="Page-3" stroke="none" stroke-width="1" fill="none" fill-rule="evenodd" stroke-linecap="round" stroke-linejoin="round">
        <g id="construction-debris" stroke="#000000" stroke-width="6">
            <use id="Page-1" mask="url(#mask-2)" xlink:href="#path-1"></use>
        </g>
    </g>
</svg>