<?xml version="1.0" encoding="UTF-8" standalone="no"?>
<svg width="80px" height="80px" viewBox="0 0 80 80" version="1.1" xmlns="http://www.w3.org/2000/svg" xmlns:xlink="http://www.w3.org/1999/xlink">
    <!-- Generator: Sketch 40.1 (33804) - http://www.bohemiancoding.com/sketch -->
    <title>dirt</title>
    <desc>Created with Sketch.</desc>
    <defs></defs>
    <g id="Page-3" stroke="none" stroke-width="1" fill="none" fill-rule="evenodd">
        <g id="dirt" fill="#000000">
            <path d="M14.6320629,55.1600496 L12.5446431,54.7805187 C12.3548777,54.7805187 12.1651122,54.8754014 12.1651122,55.0651668 L11.8804641,56.8679385 C11.8804641,57.0577039 11.6906987,57.1525866 11.5958159,57.1525866 C10.9316369,57.2474693 10.0776925,57.4372348 9.69816159,57.0577039 C9.03398256,56.3935249 8.65445169,55.349815 8.08515539,54.2112224 C8.1800381,54.2112224 7.6107418,54.1163397 7.51585908,54.3061051 C7.04144549,55.4446977 6.09261831,56.3935249 5.04890842,55.6344631 C4.00519852,54.8754014 3.3410195,53.5470434 2.77172319,52.313568 C2.39219232,51.4596236 3.15125407,49.9415001 1.25359971,50.1312655 C1.15871699,50.1312655 0.87406884,49.1824383 1.06383428,48.8029075 C1.25359971,48.2336112 1.7280133,47.7591976 2.20242689,47.1899013 C2.29730961,47.0950185 2.29730961,47.0001358 2.29730961,46.9052531 L1.91777874,44.5331852 C2.58195776,44.248537 2.48707504,44.248537 3.15125407,43.9638889 L3.43590222,44.248537 C3.72055037,44.1536543 3.91031581,44.0587716 3.91031581,43.9638889 C4.00519852,39.883932 8.08515539,38.7453394 9.88792702,35.8988579 C10.8367542,34.2858517 12.3548777,33.0523763 13.7781184,31.818901 C16.1501864,29.7314812 16.2450691,29.7314812 17.7631926,32.1035492 C17.8580753,32.2933146 18.0478407,32.2933146 18.2376062,32.1984319 L20.1352605,30.4905429 C20.0403778,30.3956602 20.0403778,30.2058948 19.9454951,30.1110121 L19.3761988,30.3007775 C18.9966679,29.8263639 18.9966679,29.8263639 18.617137,29.2570676 L20.4199087,26.6003515 C21.0840877,26.6952342 21.1789704,26.6952342 21.8431495,26.790117 L21.8431495,26.790117 C21.9380322,26.9798824 22.1277976,27.0747651 22.317563,26.9798824 C23.0766248,26.5054688 23.9305692,26.0310552 24.689631,25.5566416 C26.2077545,24.5129317 27.8207607,23.4692218 29.3388841,22.4255119 C29.718415,22.2357465 30.382594,22.1408638 30.382594,21.9510984 C31.0467731,19.0097341 33.6086064,19.9585613 35.3164954,19.6739131 C38.1629769,19.2943823 41.3889893,19.4841477 43.2866437,22.2357465 C44.9945326,24.7026972 47.2717178,25.4617589 50.1181993,25.082228 C51.6363228,24.8924626 51.920971,25.5566416 52.3005018,26.790117 C52.58515,27.6440614 53.5339772,28.5928886 54.3879216,28.8775367 C56.285576,29.4468331 58.278113,29.3519503 58.7525266,32.1035492 C59.0371748,33.3370245 60.4604156,34.5704998 61.6938909,35.4244443 C64.1608415,37.2272159 66.8175576,38.8402221 69.2845083,40.4532283 C69.4742737,40.548111 69.6640392,40.4532283 69.7589219,40.3583456 L70.1384528,39.4095184 C70.2333355,39.219753 70.5179836,39.219753 70.7077491,39.4095184 C71.1821627,40.2634629 71.4668108,40.9276419 71.751459,41.5918209 C71.9412244,42.1611172 72.0361071,42.8252963 72.1309898,43.6792407 C72.1309898,43.8690061 72.415638,44.0587716 72.6054034,43.8690061 L74.2184096,42.6355308 C74.3132923,42.5406481 74.5030578,42.5406481 74.5979405,42.6355308 C75.7365331,43.7741234 76.9700084,45.1024815 78.108601,46.4308395 C78.5830146,47.0001358 79.1523109,47.7591976 78.9625455,48.3284939 C78.8676628,48.8977902 78.0137183,49.3722038 77.3495393,49.6568519 C76.4955948,50.0363828 75.451885,50.1312655 74.9774714,50.2261482 C74.8825886,50.2261482 74.7877059,50.3210309 74.7877059,50.4159137 C74.2184096,51.649389 74.0286442,52.8828643 73.3644652,53.0726298 C72.6054034,53.3572779 71.5616935,52.977747 70.6128663,52.313568 C70.5179836,52.2186853 70.4231009,52.2186853 70.3282182,52.313568 L64.1608415,54.2112224 C64.0659588,54.2112224 63.9710761,54.3061051 63.9710761,54.4009878 C62.8324835,56.8679385 61.2194773,57.2474693 58.0883476,55.349815 C57.8985822,55.2549323 57.8036995,55.1600496 57.613934,55.1600496 L50.213082,55.1600496 C50.0233166,55.1600496 49.9284339,55.2549323 49.9284339,55.4446977 L49.9284339,59.1451237 C49.9284339,59.3348891 49.7386685,59.5246546 49.548903,59.4297718 C48.0307795,59.2400064 46.3228906,59.8093027 45.7535943,57.5321175 C45.6587116,57.3423521 44.2354708,57.2474693 43.5712918,57.4372348 C43.0019955,57.6270002 42.5275819,58.1962965 41.9582856,58.6707101 C41.8634029,58.7655928 41.7685202,58.9553583 41.8634029,59.050241 L42.5275819,59.9990682 C42.6224646,60.1888336 42.5275819,60.4734817 42.2429338,60.4734817 L39.6811004,60.1888336 C39.4913349,60.1888336 39.3964522,59.9990682 39.3964522,59.8093027 C39.7759831,58.1962965 41.8634029,56.5832903 39.3015695,55.2549323 C39.1118041,55.349815 38.9220386,55.4446977 38.9220386,55.5395804 C38.8271559,56.4884076 38.7322732,58.386062 38.5425078,58.386062 C37.0243843,58.4809447 35.5062608,58.2911792 33.9881373,58.0065311 C33.418841,57.9116484 32.754662,57.0577039 32.3751311,57.2474693 C29.5286496,58.1962965 27.3463471,57.5321175 25.5435754,55.2549323 C25.4486927,55.0651668 25.1640446,55.0651668 25.0691619,55.2549323 C23.7408038,57.3423521 23.9305692,58.0065311 25.7333409,58.9553583 C26.017989,59.050241 25.9231063,59.4297718 25.6384582,59.5246546 L22.1277976,60.2837163 C21.9380322,60.2837163 21.7482667,60.1888336 21.7482667,59.9990682 C21.5585013,59.3348891 21.5585013,58.5758274 21.1789704,58.2911792 C20.6096741,57.8167656 19.6608469,57.5321175 18.9017852,57.5321175 C17.952958,57.6270002 17.0041308,58.0065311 16.1501864,58.2911792 C15.960421,58.386062 15.7706555,58.2911792 15.7706555,58.1014138 L15.0115938,55.2549323 C14.8218283,55.2549323 14.7269456,55.1600496 14.6320629,55.1600496 L14.6320629,55.1600496 L14.6320629,55.1600496 Z M7.6107418,43.2048271 L7.13632821,42.920179 C6.94656277,42.8252963 6.75679734,42.8252963 6.66191462,43.0150617 L4.57449483,46.0513087 C4.47961211,46.1461914 4.47961211,46.4308395 4.66937755,46.5257222 L5.14379114,46.8103704 C5.23867385,46.9052531 5.52332201,46.9052531 5.61820473,46.7154877 L7.70562451,43.6792407 C7.80050723,43.4894753 7.70562451,43.2997098 7.6107418,43.2048271 L7.6107418,43.2048271 L7.6107418,43.2048271 Z" id="Shape"></path>
        </g>
    </g>
</svg>