<?xml version="1.0" encoding="UTF-8" standalone="no"?>
<svg width="80px" height="80px" viewBox="0 0 80 80" version="1.1" xmlns="http://www.w3.org/2000/svg" xmlns:xlink="http://www.w3.org/1999/xlink">
    <!-- Generator: Sketch 40.1 (33804) - http://www.bohemiancoding.com/sketch -->
    <title>dresser</title>
    <desc>Created with Sketch.</desc>
    <defs></defs>
    <g id="Page-3" stroke="none" stroke-width="1" fill="none" fill-rule="evenodd">
        <g id="dresser" fill="#000000">
            <path d="M76.0468165,13.6123671 C76.0468165,13.3393698 75.9327426,13.0926985 75.7494457,12.918176 L71.1455609,6.54566241 C70.9651853,6.29606613 70.6765903,6.14835541 70.3684942,6.14835541 L9.15882346,6.14835541 C8.85072729,6.14835541 8.56213154,6.29606605 8.38175895,6.54566241 L3.68134729,13.0512622 C3.6490509,13.0959287 3.62918565,13.1459579 3.60548138,13.1944635 C3.5945127,13.2167045 3.58055824,13.2358383 3.57135689,13.2589956 C3.52973686,13.3636233 3.5088969,13.4729434 3.50566703,13.5843975 C3.50536234,13.5942681 3.5,13.6024335 3.5,13.6123671 L3.5,17.4084773 C3.5,17.937895 3.92899415,18.3668899 4.45841188,18.3668899 L6.895879,18.3668899 L6.895879,73.2157463 C6.895879,73.7451702 7.32487315,74.1741605 7.85429088,74.1741605 L12.1793321,74.1741605 C12.7087505,74.1741605 13.137744,73.7451702 13.137744,73.2157463 L13.137744,69.0008838 L66.061974,69.0008838 L66.061974,73.2157463 C66.061974,73.7451702 66.4909705,74.1741605 67.0203881,74.1741605 L71.3444538,74.1741605 C71.8738716,74.1741605 72.302868,73.7451702 72.302868,73.2157463 L72.302868,18.3668899 L75.0689072,18.3668899 C75.5983249,18.3668899 76.0273152,17.937895 76.0273152,17.4084773 L76.0273152,13.7089509 C76.0308515,13.6756185 76.0468165,13.6466127 76.0468165,13.6123671 L76.0468165,13.6123671 L76.0468165,13.6123671 Z M9.64826701,8.0651791 L69.8790529,8.0651791 L73.1940049,12.6539544 L6.33331189,12.6539544 L9.64826701,8.0651791 L9.64826701,8.0651791 L9.64826701,8.0651791 Z M11.2209202,72.2573352 L8.81270268,72.2573352 L8.81270268,18.3668899 L11.2209202,18.3668899 L11.2209202,20.217415 L11.2209202,29.0571318 L11.2209202,32.0951921 L11.2209202,40.9349073 L11.2209202,43.9729676 L11.2209202,52.8121971 L11.2209202,55.8502574 L11.2209202,64.6894838 L11.2209202,68.0424666 L11.2209202,72.2573352 L11.2209202,72.2573352 L11.2209202,72.2573352 Z M66.061974,18.3668899 L66.061974,19.2590023 L13.1377439,19.2590023 L13.1377439,18.3668899 L66.061974,18.3668899 L66.061974,18.3668899 L66.061974,18.3668899 Z M66.061974,39.9764962 L13.1377439,39.9764962 L13.1377439,33.0536031 L66.0619739,33.0536031 L66.0619739,39.9764962 L66.061974,39.9764962 L66.061974,39.9764962 Z M13.1377439,41.8933215 L66.0619739,41.8933215 L66.0619739,43.0145565 L13.1377439,43.0145565 L13.1377439,41.8933215 L13.1377439,41.8933215 L13.1377439,41.8933215 Z M13.1377439,44.9313788 L66.0619739,44.9313788 L66.0619739,51.8537829 L13.1377439,51.8537829 L13.1377439,44.9313788 L13.1377439,44.9313788 L13.1377439,44.9313788 Z M66.061974,31.1367779 L13.1377439,31.1367779 L13.1377439,30.0155428 L66.0619739,30.0155428 L66.0619739,31.1367779 L66.061974,31.1367779 L66.061974,31.1367779 Z M66.061974,28.0987207 L13.1377439,28.0987207 L13.1377439,21.175826 L66.0619739,21.175826 L66.0619739,28.0987207 L66.061974,28.0987207 L66.061974,28.0987207 Z M13.1377439,53.7706112 L66.0619739,53.7706112 L66.0619739,54.8918432 L13.1377439,54.8918432 L13.1377439,53.7706112 L13.1377439,53.7706112 L13.1377439,53.7706112 Z M13.1377439,56.8086715 L66.0619739,56.8086715 L66.0619739,63.7310757 L13.1377439,63.7310757 L13.1377439,56.8086715 L13.1377439,56.8086715 L13.1377439,56.8086715 Z M13.1377439,67.0840524 L13.1377439,65.6478979 L66.0619739,65.6478979 L66.0619739,67.0840524 L13.1377439,67.0840524 L13.1377439,67.0840524 L13.1377439,67.0840524 Z M70.3860458,72.2573352 L67.9788023,72.2573352 L67.9788023,68.0424666 L67.9788023,64.6894838 L67.9788023,55.8502574 L67.9788023,52.8121971 L67.9788023,43.9729676 L67.9788023,40.9349073 L67.9788023,32.095192 L67.9788023,29.0571317 L67.9788023,20.2174149 L67.9788023,18.3668898 L70.3860458,18.3668898 L70.3860458,72.2573352 L70.3860458,72.2573352 L70.3860458,72.2573352 Z M74.1104931,16.4500662 L71.3444539,16.4500662 L67.0203882,16.4500662 L12.1793321,16.4500662 L7.85429088,16.4500662 L5.41682409,16.4500662 L5.41682409,14.5707782 L74.110495,14.5707782 L74.110495,16.4500662 L74.1104931,16.4500662 L74.1104931,16.4500662 Z" id="Shape"></path>
            <path d="M34.3115336,25.3555943 L44.8872126,25.3555943 C45.284033,25.3555943 45.6057788,25.0338501 45.6057788,24.6370297 C45.6057788,24.2402109 45.284033,23.9184651 44.8872126,23.9184651 L34.3115336,23.9184651 C33.9147132,23.9184651 33.5929675,24.2402109 33.5929675,24.6370297 C33.5929674,25.03385 33.9147132,25.3555943 34.3115336,25.3555943 L34.3115336,25.3555943 L34.3115336,25.3555943 Z" id="Shape"></path>
            <path d="M34.3115336,37.2328825 L44.8872126,37.2328825 C45.284033,37.2328825 45.6057788,36.9111398 45.6057788,36.5143194 C45.6057788,36.1174991 45.284033,35.7957533 44.8872126,35.7957533 L34.3115336,35.7957533 C33.9147132,35.7957533 33.5929675,36.1174991 33.5929675,36.5143194 C33.5929675,36.9111398 33.9147132,37.2328825 34.3115336,37.2328825 L34.3115336,37.2328825 L34.3115336,37.2328825 Z" id="Shape"></path>
            <path d="M44.8872126,47.6740177 L34.3115335,47.6740177 C33.9147132,47.6740177 33.5929674,47.9957635 33.5929674,48.3925838 C33.5929674,48.7894011 33.9147132,49.1111469 34.3115335,49.1111469 L44.8872126,49.1111469 C45.2840329,49.1111469 45.6057787,48.7894011 45.6057787,48.3925838 C45.6057788,47.9957635 45.2840329,47.6740177 44.8872126,47.6740177 L44.8872126,47.6740177 L44.8872126,47.6740177 Z" id="Shape"></path>
            <path d="M44.8872126,59.5513044 L34.3115335,59.5513044 C33.9147132,59.5513044 33.5929674,59.8730533 33.5929674,60.2698736 C33.5929674,60.6666939 33.9147132,60.9884367 34.3115335,60.9884367 L44.8872126,60.9884367 C45.2840329,60.9884367 45.6057787,60.6666939 45.6057787,60.2698736 C45.6057787,59.8730532 45.2840329,59.5513044 44.8872126,59.5513044 L44.8872126,59.5513044 L44.8872126,59.5513044 Z" id="Shape"></path>
        </g>
    </g>
</svg>