<?xml version="1.0" encoding="UTF-8" standalone="no"?>
<svg width="64px" height="90px" viewBox="0 0 64 90" version="1.1" xmlns="http://www.w3.org/2000/svg" xmlns:xlink="http://www.w3.org/1999/xlink">
    <!-- Generator: Sketch 3.6.1 (26313) - http://www.bohemiancoding.com/sketch -->
    <title>noun_273696</title>
    <desc>Created with Sketch.</desc>
    <defs></defs>
    <g id="Page-1" stroke="none" stroke-width="1" fill="none" fill-rule="evenodd">
        <g id="noun_273696" fill="#FFFFFF">
            <path d="M50.732,65.433 L13.27,65.433 C12.642,65.433 12.134,65.943 12.134,66.569 L12.134,68.083 C12.134,68.709 12.642,69.219 13.27,69.219 L50.732,69.219 C51.36,69.219 51.866,68.709 51.866,68.083 L51.866,66.569 C51.866,65.942 51.36,65.433 50.732,65.433 L50.732,65.433 Z" id="Shape"></path>
            <path d="M50.732,55.974 L13.27,55.974 C12.642,55.974 12.134,56.48 12.134,57.106 L12.134,58.62 C12.134,59.251 12.642,59.757 13.27,59.757 L50.732,59.757 C51.36,59.757 51.866,59.251 51.866,58.62 L51.866,57.106 C51.866,56.479 51.36,55.974 50.732,55.974 L50.732,55.974 Z" id="Shape"></path>
            <path d="M50.732,46.512 L13.27,46.512 C12.642,46.512 12.134,47.022 12.134,47.648 L12.134,49.162 C12.134,49.788 12.642,50.298 13.27,50.298 L50.732,50.298 C51.36,50.298 51.866,49.788 51.866,49.162 L51.866,47.648 C51.866,47.021 51.36,46.512 50.732,46.512 L50.732,46.512 Z" id="Shape"></path>
            <path d="M32,33.645 C32.84,33.645 35.576,33.821 35.576,36.046 C35.576,38.275 32.84,38.446 32,38.446 C30.148,38.446 28.847,37.799 28.517,36.706 L25.619,37.58 C26.236,39.626 28.011,40.972 30.487,41.357 L30.487,43.484 L33.514,43.484 L33.514,41.357 C36.612,40.869 38.603,38.858 38.603,36.045 C38.603,32.799 35.952,30.616 32.002,30.616 C31.162,30.616 28.426,30.445 28.426,28.216 C28.426,25.99 31.161,25.815 32.002,25.815 C33.855,25.815 35.155,26.466 35.485,27.56 L38.383,26.685 C37.766,24.64 35.988,23.289 33.513,22.908 L33.513,20.782 L30.486,20.782 L30.486,22.908 C27.391,23.397 25.399,25.408 25.399,28.217 C25.399,31.462 28.051,33.645 32,33.645 L32,33.645 Z" id="Shape"></path>
            <path d="M63.597,12.044 C63.597,11.533 63.428,11.062 63.143,10.685 L63.145,10.685 L55.814,0.91 L55.811,0.91 C55.396,0.355 54.739,0 53.995,0 C53.253,0 52.596,0.355 52.182,0.909 L52.18,0.909 L46.663,8.262 L41.149,0.909 L41.147,0.909 C40.733,0.355 40.075,0 39.332,0 C38.59,0 37.932,0.355 37.519,0.909 L37.516,0.909 L32,8.262 L26.486,0.909 L26.484,0.909 C26.07,0.355 25.412,0 24.668,0 C23.926,0 23.268,0.355 22.854,0.909 L22.852,0.909 L17.336,8.262 L11.822,0.909 L11.82,0.909 C11.407,0.355 10.749,0 10.005,0 C9.263,0 8.605,0.355 8.192,0.909 L8.19,0.909 L0.858,10.684 L0.86,10.684 C0.575,11.061 0.403,11.533 0.403,12.043 L0.403,77.951 C0.403,78.461 0.574,78.932 0.86,79.31 L0.858,79.314 L8.19,89.089 L8.192,89.085 C8.605,89.64 9.263,90 10.005,90 C10.749,90 11.405,89.64 11.821,89.087 L11.823,89.091 L17.337,81.738 L22.853,89.091 L22.855,89.087 C23.269,89.64 23.927,90 24.668,90 C25.412,90 26.068,89.64 26.483,89.087 L26.485,89.091 L32,81.738 L37.516,89.091 L37.519,89.087 C37.932,89.64 38.59,90 39.332,90 C40.075,90 40.731,89.64 41.147,89.087 L41.149,89.091 L46.663,81.738 L52.18,89.091 L52.182,89.087 C52.596,89.64 53.253,90 53.995,90 C54.739,90 55.395,89.64 55.81,89.087 L55.813,89.091 L63.144,79.316 L63.142,79.312 C63.427,78.934 63.596,78.462 63.596,77.953 L63.596,12.044 L63.597,12.044 Z M53.995,83.941 L48.481,76.588 L48.479,76.592 C48.063,76.039 47.407,75.679 46.663,75.679 C45.922,75.679 45.264,76.039 44.85,76.592 L44.848,76.588 L39.332,83.941 L33.818,76.588 L33.815,76.592 C33.402,76.04 32.744,75.68 32,75.68 C31.258,75.68 30.6,76.04 30.187,76.593 L30.185,76.589 L24.669,83.942 L19.155,76.589 L19.153,76.593 C18.739,76.04 18.081,75.68 17.337,75.68 C16.595,75.68 15.937,76.04 15.524,76.593 L15.522,76.589 L10.006,83.942 L4.944,77.194 L4.944,12.803 L10.006,6.054 L15.522,13.408 L15.524,13.408 C15.938,13.957 16.596,14.317 17.337,14.317 C18.081,14.317 18.737,13.957 19.153,13.408 L19.155,13.408 L24.669,6.054 L30.185,13.408 L30.187,13.408 C30.601,13.957 31.259,14.317 32,14.317 C32.744,14.317 33.399,13.957 33.815,13.408 L33.818,13.408 L39.332,6.054 L44.848,13.408 L44.85,13.408 C45.264,13.957 45.922,14.317 46.663,14.317 C47.407,14.317 48.063,13.957 48.479,13.408 L48.481,13.408 L53.995,6.054 L59.057,12.803 L59.057,77.194 L53.995,83.941 L53.995,83.941 Z" id="Shape"></path>
        </g>
    </g>
</svg>