<?xml version="1.0" encoding="UTF-8" standalone="no"?>
<svg width="80px" height="80px" viewBox="0 0 80 80" version="1.1" xmlns="http://www.w3.org/2000/svg" xmlns:xlink="http://www.w3.org/1999/xlink">
    <!-- Generator: Sketch 40.1 (33804) - http://www.bohemiancoding.com/sketch -->
    <title>fridge2</title>
    <desc>Created with Sketch.</desc>
    <defs></defs>
    <g id="Page-3" stroke="none" stroke-width="1" fill="none" fill-rule="evenodd">
        <g id="fridge2">
            <path d="M53.148,74.738 L26.852,74.738 C22.664,74.738 19.254,71.328 19.254,67.141 L19.254,10.598 C19.254,6.406 22.664,3 26.852,3 L53.152,3 C57.34,3 60.746,6.41 60.746,10.598 L60.746,67.141 C60.746,71.328 57.34,74.738 53.148,74.738 L53.148,74.738 Z" id="Fill-1" stroke="#000000" stroke-width="3"></path>
            <path d="M59.184,32.602 L20.816,32.602 C19.953,32.602 19.254,31.93 19.254,31.10152 C19.254,30.27304 19.953,29.602 20.816,29.602 L59.184,29.602 C60.047,29.602 60.746,30.27304 60.746,31.10152 C60.746,31.93 60.047,32.602 59.184,32.602 L59.184,32.602 Z" id="Fill-2" fill="#000000"></path>
            <path d="M52.96852,24.266 C52.14004,24.266 51.469,23.566 51.469,22.703 L51.469,14.176 C51.469,13.312 52.14004,12.613 52.96852,12.613 C53.79796,12.613 54.469,13.312 54.469,14.176 L54.469,22.703 C54.469,23.566 53.79796,24.266 52.96852,24.266 L52.96852,24.266 Z" id="Fill-3" fill="#000000"></path>
            <path d="M52.96852,49.465 C52.14004,49.465 51.469,48.766 51.469,47.902 L51.469,39.375 C51.469,38.512 52.14004,37.812 52.96852,37.812 C53.79796,37.812 54.469,38.512 54.469,39.375 L54.469,47.902 C54.469,48.766 53.79796,49.465 52.96852,49.465 L52.96852,49.465 Z" id="Fill-4" fill="#000000"></path>
            <path d="M29.57848,77.9315 C28.74904,77.9315 28.078,77.2325 28.078,76.3695 L28.078,73.1075 C28.078,72.2435 28.74904,71.5445 29.57848,71.5445 C30.40696,71.5445 31.078,72.2435 31.078,73.1075 L31.078,76.3695 C31.078,77.2325 30.40696,77.9315 29.57848,77.9315 L29.57848,77.9315 Z" id="Fill-5" fill="#000000"></path>
            <path d="M51.96852,77.9315 C51.14004,77.9315 50.469,77.2325 50.469,76.3695 L50.469,73.1075 C50.469,72.2435 51.14004,71.5445 51.96852,71.5445 C52.79796,71.5445 53.469,72.2435 53.469,73.1075 L53.469,76.3695 C53.469,77.2325 52.79796,77.9315 51.96852,77.9315 L51.96852,77.9315 Z" id="Fill-6" fill="#000000"></path>
        </g>
    </g>
</svg>