<?xml version="1.0" encoding="UTF-8" standalone="no"?>
<svg width="80px" height="80px" viewBox="0 0 80 80" version="1.1" xmlns="http://www.w3.org/2000/svg" xmlns:xlink="http://www.w3.org/1999/xlink">
    <!-- Generator: Sketch 40.1 (33804) - http://www.bohemiancoding.com/sketch -->
    <title>garbage</title>
    <desc>Created with Sketch.</desc>
    <defs></defs>
    <g id="Page-3" stroke="none" stroke-width="1" fill="none" fill-rule="evenodd">
        <g id="garbage">
            <path d="M34.9592074,14.5885269 C34.530636,14.331384 34.0163503,14.4170983 33.7592074,14.8456697 C30.1592074,20.6742412 26.0449217,25.6456697 24.930636,25.4742412 C24.930636,25.4742412 24.930636,25.4742412 24.8449217,25.3885269 C24.5877789,24.9599555 24.0734931,24.7885269 23.6449217,24.9599555 C23.2163503,25.2170983 23.0449217,25.731384 23.2163503,26.1599555 C23.5592074,26.8456697 24.0734931,27.1885269 24.7592074,27.1885269 L24.8449217,27.1885269 C27.930636,27.1885269 33.5877789,18.4456697 35.2163503,15.7028126 C35.4734931,15.3599555 35.3877789,14.8456697 34.9592074,14.5885269 L34.9592074,14.5885269 L34.9592074,14.5885269 Z" id="path-1" fill="#000000"></path>
            <path d="M34.9592074,14.5885269 C34.530636,14.331384 34.0163503,14.4170983 33.7592074,14.8456697 C30.1592074,20.6742412 26.0449217,25.6456697 24.930636,25.4742412 C24.930636,25.4742412 24.930636,25.4742412 24.8449217,25.3885269 C24.5877789,24.9599555 24.0734931,24.7885269 23.6449217,24.9599555 C23.2163503,25.2170983 23.0449217,25.731384 23.2163503,26.1599555 C23.5592074,26.8456697 24.0734931,27.1885269 24.7592074,27.1885269 L24.8449217,27.1885269 C27.930636,27.1885269 33.5877789,18.4456697 35.2163503,15.7028126 C35.4734931,15.3599555 35.3877789,14.8456697 34.9592074,14.5885269 L34.9592074,14.5885269 L34.9592074,14.5885269 Z" id="path-1" stroke="#000000" stroke-width="0.8"></path>
            <path d="M56.3020646,25.0456697 C55.8734931,24.7885269 55.3592074,25.0456697 55.1020646,25.4742412 C55.1020646,25.5599555 55.0163503,25.5599555 55.0163503,25.5599555 C55.0163503,25.5599555 55.0163503,25.5599555 54.930636,25.5599555 C53.730636,25.5599555 49.7020646,20.6742412 46.1020646,14.931384 C45.8449217,14.5028126 45.330636,14.4170983 44.9020646,14.6742412 C44.4734931,14.931384 44.3877789,15.4456697 44.6449217,15.8742412 C46.3592074,18.6170983 51.930636,27.3599555 55.0163503,27.3599555 L55.1020646,27.3599555 C55.7877789,27.3599555 56.3020646,26.931384 56.6449217,26.331384 C56.9020646,25.731384 56.730636,25.2170983 56.3020646,25.0456697 L56.3020646,25.0456697 L56.3020646,25.0456697 Z" id="path-2" fill="#000000"></path>
            <path d="M56.3020646,25.0456697 C55.8734931,24.7885269 55.3592074,25.0456697 55.1020646,25.4742412 C55.1020646,25.5599555 55.0163503,25.5599555 55.0163503,25.5599555 C55.0163503,25.5599555 55.0163503,25.5599555 54.930636,25.5599555 C53.730636,25.5599555 49.7020646,20.6742412 46.1020646,14.931384 C45.8449217,14.5028126 45.330636,14.4170983 44.9020646,14.6742412 C44.4734931,14.931384 44.3877789,15.4456697 44.6449217,15.8742412 C46.3592074,18.6170983 51.930636,27.3599555 55.0163503,27.3599555 L55.1020646,27.3599555 C55.7877789,27.3599555 56.3020646,26.931384 56.6449217,26.331384 C56.9020646,25.731384 56.730636,25.2170983 56.3020646,25.0456697 L56.3020646,25.0456697 L56.3020646,25.0456697 Z" id="path-2" stroke="#000000" stroke-width="0.8"></path>
            <path d="M73.530636,71.0742412 C72.8449217,70.4742412 72.2449217,69.9599555 71.9020646,69.2742412 C71.6449217,68.6742412 71.5592074,67.9028126 71.5592074,67.131384 L70.1020646,41.5885269 C69.8449217,36.7028126 69.5020646,31.6456697 68.5592074,26.7599555 C68.0449217,24.3599555 67.2734931,21.2742412 65.3877789,18.7028126 C62.8163503,15.1885269 56.730636,13.0456697 46.7877789,11.931384 C46.8734931,11.7599555 46.9592074,11.5885269 46.9592074,11.4170983 C47.0449217,10.9885269 47.0449217,10.4742412 46.7877789,10.131384 C46.6163503,9.87424117 46.4449217,9.7028126 46.2734931,9.53138403 L51.5877789,7.21709831 C51.7592074,7.13138403 52.3592074,6.87424117 52.530636,6.18852689 C52.6163503,5.67424117 52.3592074,5.33138403 52.2734931,5.15995546 C51.1592074,3.53138403 49.7020646,1.64566974 47.4734931,1.73138403 C46.1020646,1.81709831 44.9877789,2.58852689 44.0449217,3.35995546 C43.6163503,3.7028126 43.1020646,4.04566974 42.6734931,4.3028126 C42.5877789,3.44566974 42.2449217,2.67424117 41.5592074,1.98852689 C40.7020646,1.13138403 39.5020646,0.788526885 38.2163503,1.13138403 C36.8449217,1.47424117 35.5592074,2.5028126 35.130636,3.87424117 C34.2734931,3.78852689 33.5020646,3.53138403 32.6449217,3.35995546 C31.6163503,3.18852689 30.5877789,3.44566974 29.9020646,4.21709831 C29.2163503,4.98852689 28.9592074,6.01709831 29.2163503,7.04566974 C29.5592074,8.33138403 30.2449217,9.53138403 31.2734931,10.3885269 L32.9877789,12.0170983 C23.6449217,13.0456697 17.8163503,15.2742412 15.330636,18.7028126 C13.4449217,21.2742412 12.6734931,24.3599555 12.1592074,26.7599555 C11.130636,31.6456697 10.8734931,36.7028126 10.6163503,41.5885269 L9.15920743,67.131384 C9.07349315,67.9028126 9.07349315,68.6742412 8.81635029,69.2742412 C8.47349315,69.9599555 7.95920743,70.4742412 7.18777886,71.0742412 C6.24492172,71.8456697 5.81635029,73.131384 6.07349315,74.331384 C6.33063601,75.531384 7.27349315,76.4742412 8.47349315,76.8170983 C9.93063601,77.2456697 11.5592074,77.331384 12.930636,77.331384 L34.6163503,78.1028126 C36.1592074,78.1885269 37.8734931,78.1885269 39.5020646,78.1885269 L40.2734931,78.1885269 C42.2449217,78.1885269 44.2163503,78.1028126 46.0163503,78.1028126 L67.7877789,77.331384 C69.1592074,77.2456697 70.7877789,77.1599555 72.2449217,76.8170983 C73.4449217,76.4742412 74.3877789,75.531384 74.6449217,74.331384 C74.9020646,73.131384 74.4734931,71.8456697 73.530636,71.0742412 L73.530636,71.0742412 L73.530636,71.0742412 Z M32.5592074,9.1028126 C31.7877789,8.41709831 31.2734931,7.47424117 31.0163503,6.53138403 C30.930636,6.1028126 31.0163503,5.75995546 31.2734931,5.41709831 C31.530636,5.15995546 31.7877789,5.07424117 32.130636,5.07424117 L32.3877789,5.07424117 C33.5020646,5.33138403 34.530636,5.58852689 35.6449217,5.93138403 C35.9020646,6.01709831 36.2449217,6.01709831 36.5020646,5.75995546 C36.7592074,5.58852689 36.8449217,5.24566974 36.8449217,4.98852689 C36.7592074,3.95995546 37.7877789,3.1028126 38.8163503,2.84566974 C39.4163503,2.67424117 40.0163503,2.84566974 40.4449217,3.27424117 C40.8734931,3.7028126 41.130636,4.38852689 40.9592074,4.98852689 C40.9592074,5.07424117 40.8734931,5.24566974 40.8734931,5.33138403 C40.7877789,5.58852689 40.8734931,5.84566974 41.0449217,6.1028126 C41.2163503,6.27424117 41.4734931,6.44566974 41.730636,6.44566974 C43.1020646,6.35995546 44.2163503,5.5028126 45.1592074,4.81709831 C46.0163503,4.21709831 46.7877789,3.61709831 47.5592074,3.53138403 L47.6449217,3.53138403 C48.7592074,3.53138403 49.7877789,4.64566974 50.5592074,5.75995546 L44.730636,8.33138403 C44.5592074,8.41709831 44.4734931,8.5028126 44.3877789,8.67424117 C43.7020646,9.7028126 44.6449217,10.4742412 44.9877789,10.731384 C45.0734931,10.8170983 45.2449217,10.9885269 45.330636,10.9885269 C45.330636,11.0742412 45.0734931,11.4170983 44.6449217,11.6742412 C43.7020646,12.1028126 42.8449217,12.4456697 41.9877789,12.6170983 L42.5877789,8.67424117 C42.6734931,8.15995546 42.330636,7.73138403 41.8163503,7.64566974 C41.3020646,7.55995546 40.8734931,7.9028126 40.7877789,8.41709831 L40.1020646,12.8742412 L39.5877789,12.8742412 L37.1877789,6.95995546 C37.0163503,6.53138403 36.5020646,6.27424117 36.0734931,6.44566974 C35.6449217,6.61709831 35.3877789,7.13138403 35.5592074,7.55995546 L37.530636,12.6170983 C36.4163503,12.3599555 35.730636,12.0170983 35.4734931,11.8456697 L32.5592074,9.1028126 L32.5592074,9.1028126 L32.5592074,9.1028126 Z M72.930636,73.9885269 C72.8449217,74.5885269 72.4163503,75.0170983 71.8163503,75.1885269 C70.530636,75.531384 69.0734931,75.6170983 67.7877789,75.7028126 L46.1020646,76.4742412 C44.3877789,76.5599555 42.4163503,76.6456697 40.4449217,76.5599555 C38.4734931,76.5599555 36.5020646,76.4742412 34.7877789,76.4742412 L12.930636,75.6170983 C11.6449217,75.531384 10.1877789,75.531384 8.90206458,75.1028126 C8.30206458,74.931384 7.95920743,74.5028126 7.78777886,73.9028126 C7.70206458,73.3028126 7.87349315,72.7885269 8.30206458,72.3599555 C9.15920743,71.6742412 9.93063601,70.9885269 10.3592074,69.9599555 C10.7877789,69.0170983 10.8734931,67.9885269 10.8734931,67.131384 L12.330636,41.5885269 C12.5877789,36.7885269 12.930636,31.731384 13.8734931,27.0170983 C14.3020646,24.7885269 15.0734931,21.8742412 16.7020646,19.6456697 C19.0163503,16.4742412 25.1020646,14.4170983 34.7020646,13.4742412 C35.3020646,13.731384 36.6734931,14.4170983 38.6449217,14.5028126 L38.9020646,14.5028126 L38.9877789,14.5028126 L39.5020646,14.5028126 C40.9592074,14.5028126 42.7592074,14.1599555 44.730636,13.3028126 C55.1020646,14.2456697 61.530636,16.3028126 63.930636,19.4742412 C65.5592074,21.7028126 66.330636,24.6170983 66.7592074,26.8456697 C67.7020646,31.6456697 68.0449217,36.6170983 68.3020646,41.4170983 L69.7592074,66.9599555 C69.8449217,67.8170983 69.8449217,68.8456697 70.2734931,69.7885269 C70.7020646,70.731384 71.4734931,71.4170983 72.330636,72.1885269 L72.330636,72.1885269 C72.8449217,72.7885269 73.0163503,73.3885269 72.930636,73.9885269 L72.930636,73.9885269 L72.930636,73.9885269 Z" id="path-3" fill="#000000"></path>
            <path d="M73.530636,71.0742412 C72.8449217,70.4742412 72.2449217,69.9599555 71.9020646,69.2742412 C71.6449217,68.6742412 71.5592074,67.9028126 71.5592074,67.131384 L70.1020646,41.5885269 C69.8449217,36.7028126 69.5020646,31.6456697 68.5592074,26.7599555 C68.0449217,24.3599555 67.2734931,21.2742412 65.3877789,18.7028126 C62.8163503,15.1885269 56.730636,13.0456697 46.7877789,11.931384 C46.8734931,11.7599555 46.9592074,11.5885269 46.9592074,11.4170983 C47.0449217,10.9885269 47.0449217,10.4742412 46.7877789,10.131384 C46.6163503,9.87424117 46.4449217,9.7028126 46.2734931,9.53138403 L51.5877789,7.21709831 C51.7592074,7.13138403 52.3592074,6.87424117 52.530636,6.18852689 C52.6163503,5.67424117 52.3592074,5.33138403 52.2734931,5.15995546 C51.1592074,3.53138403 49.7020646,1.64566974 47.4734931,1.73138403 C46.1020646,1.81709831 44.9877789,2.58852689 44.0449217,3.35995546 C43.6163503,3.7028126 43.1020646,4.04566974 42.6734931,4.3028126 C42.5877789,3.44566974 42.2449217,2.67424117 41.5592074,1.98852689 C40.7020646,1.13138403 39.5020646,0.788526885 38.2163503,1.13138403 C36.8449217,1.47424117 35.5592074,2.5028126 35.130636,3.87424117 C34.2734931,3.78852689 33.5020646,3.53138403 32.6449217,3.35995546 C31.6163503,3.18852689 30.5877789,3.44566974 29.9020646,4.21709831 C29.2163503,4.98852689 28.9592074,6.01709831 29.2163503,7.04566974 C29.5592074,8.33138403 30.2449217,9.53138403 31.2734931,10.3885269 L32.9877789,12.0170983 C23.6449217,13.0456697 17.8163503,15.2742412 15.330636,18.7028126 C13.4449217,21.2742412 12.6734931,24.3599555 12.1592074,26.7599555 C11.130636,31.6456697 10.8734931,36.7028126 10.6163503,41.5885269 L9.15920743,67.131384 C9.07349315,67.9028126 9.07349315,68.6742412 8.81635029,69.2742412 C8.47349315,69.9599555 7.95920743,70.4742412 7.18777886,71.0742412 C6.24492172,71.8456697 5.81635029,73.131384 6.07349315,74.331384 C6.33063601,75.531384 7.27349315,76.4742412 8.47349315,76.8170983 C9.93063601,77.2456697 11.5592074,77.331384 12.930636,77.331384 L34.6163503,78.1028126 C36.1592074,78.1885269 37.8734931,78.1885269 39.5020646,78.1885269 L40.2734931,78.1885269 C42.2449217,78.1885269 44.2163503,78.1028126 46.0163503,78.1028126 L67.7877789,77.331384 C69.1592074,77.2456697 70.7877789,77.1599555 72.2449217,76.8170983 C73.4449217,76.4742412 74.3877789,75.531384 74.6449217,74.331384 C74.9020646,73.131384 74.4734931,71.8456697 73.530636,71.0742412 L73.530636,71.0742412 L73.530636,71.0742412 Z M32.5592074,9.1028126 C31.7877789,8.41709831 31.2734931,7.47424117 31.0163503,6.53138403 C30.930636,6.1028126 31.0163503,5.75995546 31.2734931,5.41709831 C31.530636,5.15995546 31.7877789,5.07424117 32.130636,5.07424117 L32.3877789,5.07424117 C33.5020646,5.33138403 34.530636,5.58852689 35.6449217,5.93138403 C35.9020646,6.01709831 36.2449217,6.01709831 36.5020646,5.75995546 C36.7592074,5.58852689 36.8449217,5.24566974 36.8449217,4.98852689 C36.7592074,3.95995546 37.7877789,3.1028126 38.8163503,2.84566974 C39.4163503,2.67424117 40.0163503,2.84566974 40.4449217,3.27424117 C40.8734931,3.7028126 41.130636,4.38852689 40.9592074,4.98852689 C40.9592074,5.07424117 40.8734931,5.24566974 40.8734931,5.33138403 C40.7877789,5.58852689 40.8734931,5.84566974 41.0449217,6.1028126 C41.2163503,6.27424117 41.4734931,6.44566974 41.730636,6.44566974 C43.1020646,6.35995546 44.2163503,5.5028126 45.1592074,4.81709831 C46.0163503,4.21709831 46.7877789,3.61709831 47.5592074,3.53138403 L47.6449217,3.53138403 C48.7592074,3.53138403 49.7877789,4.64566974 50.5592074,5.75995546 L44.730636,8.33138403 C44.5592074,8.41709831 44.4734931,8.5028126 44.3877789,8.67424117 C43.7020646,9.7028126 44.6449217,10.4742412 44.9877789,10.731384 C45.0734931,10.8170983 45.2449217,10.9885269 45.330636,10.9885269 C45.330636,11.0742412 45.0734931,11.4170983 44.6449217,11.6742412 C43.7020646,12.1028126 42.8449217,12.4456697 41.9877789,12.6170983 L42.5877789,8.67424117 C42.6734931,8.15995546 42.330636,7.73138403 41.8163503,7.64566974 C41.3020646,7.55995546 40.8734931,7.9028126 40.7877789,8.41709831 L40.1020646,12.8742412 L39.5877789,12.8742412 L37.1877789,6.95995546 C37.0163503,6.53138403 36.5020646,6.27424117 36.0734931,6.44566974 C35.6449217,6.61709831 35.3877789,7.13138403 35.5592074,7.55995546 L37.530636,12.6170983 C36.4163503,12.3599555 35.730636,12.0170983 35.4734931,11.8456697 L32.5592074,9.1028126 L32.5592074,9.1028126 L32.5592074,9.1028126 Z M72.930636,73.9885269 C72.8449217,74.5885269 72.4163503,75.0170983 71.8163503,75.1885269 C70.530636,75.531384 69.0734931,75.6170983 67.7877789,75.7028126 L46.1020646,76.4742412 C44.3877789,76.5599555 42.4163503,76.6456697 40.4449217,76.5599555 C38.4734931,76.5599555 36.5020646,76.4742412 34.7877789,76.4742412 L12.930636,75.6170983 C11.6449217,75.531384 10.1877789,75.531384 8.90206458,75.1028126 C8.30206458,74.931384 7.95920743,74.5028126 7.78777886,73.9028126 C7.70206458,73.3028126 7.87349315,72.7885269 8.30206458,72.3599555 C9.15920743,71.6742412 9.93063601,70.9885269 10.3592074,69.9599555 C10.7877789,69.0170983 10.8734931,67.9885269 10.8734931,67.131384 L12.330636,41.5885269 C12.5877789,36.7885269 12.930636,31.731384 13.8734931,27.0170983 C14.3020646,24.7885269 15.0734931,21.8742412 16.7020646,19.6456697 C19.0163503,16.4742412 25.1020646,14.4170983 34.7020646,13.4742412 C35.3020646,13.731384 36.6734931,14.4170983 38.6449217,14.5028126 L38.9020646,14.5028126 L38.9877789,14.5028126 L39.5020646,14.5028126 C40.9592074,14.5028126 42.7592074,14.1599555 44.730636,13.3028126 C55.1020646,14.2456697 61.530636,16.3028126 63.930636,19.4742412 C65.5592074,21.7028126 66.330636,24.6170983 66.7592074,26.8456697 C67.7020646,31.6456697 68.0449217,36.6170983 68.3020646,41.4170983 L69.7592074,66.9599555 C69.8449217,67.8170983 69.8449217,68.8456697 70.2734931,69.7885269 C70.7020646,70.731384 71.4734931,71.4170983 72.330636,72.1885269 L72.330636,72.1885269 C72.8449217,72.7885269 73.0163503,73.3885269 72.930636,73.9885269 L72.930636,73.9885269 L72.930636,73.9885269 Z" id="path-3" stroke="#000000"></path>
            <path d="M40.2734931,15.6170983 C39.7592074,15.7028126 39.4163503,16.131384 39.5020646,16.6456697 C40.1877789,21.7028126 40.2734931,27.7885269 39.1592074,28.731384 C39.0734931,28.731384 39.0734931,28.8170983 38.9020646,28.731384 C38.4734931,28.5599555 37.9592074,28.8170983 37.7877789,29.331384 C37.6163503,29.7599555 37.8734931,30.2742412 38.3877789,30.4456697 C38.6449217,30.531384 38.9020646,30.531384 39.1592074,30.531384 C39.5877789,30.531384 40.0163503,30.3599555 40.4449217,30.1028126 C42.8449217,28.131384 41.730636,19.131384 41.3877789,16.4742412 C41.130636,15.8742412 40.7020646,15.531384 40.2734931,15.6170983 L40.2734931,15.6170983 L40.2734931,15.6170983 Z" id="path-4" fill="#000000"></path>
            <path d="M40.2734931,15.6170983 C39.7592074,15.7028126 39.4163503,16.131384 39.5020646,16.6456697 C40.1877789,21.7028126 40.2734931,27.7885269 39.1592074,28.731384 C39.0734931,28.731384 39.0734931,28.8170983 38.9020646,28.731384 C38.4734931,28.5599555 37.9592074,28.8170983 37.7877789,29.331384 C37.6163503,29.7599555 37.8734931,30.2742412 38.3877789,30.4456697 C38.6449217,30.531384 38.9020646,30.531384 39.1592074,30.531384 C39.5877789,30.531384 40.0163503,30.3599555 40.4449217,30.1028126 C42.8449217,28.131384 41.730636,19.131384 41.3877789,16.4742412 C41.130636,15.8742412 40.7020646,15.531384 40.2734931,15.6170983 L40.2734931,15.6170983 L40.2734931,15.6170983 Z" id="path-4" stroke="#000000" stroke-width="0.8"></path>
        </g>
    </g>
</svg>