<?xml version="1.0" encoding="UTF-8" standalone="no"?>
<svg width="60px" height="60px" viewBox="0 0 60 60" version="1.1" xmlns="http://www.w3.org/2000/svg" xmlns:xlink="http://www.w3.org/1999/xlink">
    <!-- Generator: Sketch 3.8.2 (29753) - http://www.bohemiancoding.com/sketch -->
    <title>1465173401_google_plus-square-social-media</title>
    <desc>Created with Sketch.</desc>
    <defs></defs>
    <g id="Page-1" stroke="none" stroke-width="1" fill="none" fill-rule="evenodd">
        <g id="1465173401_google_plus-square-social-media">
            <g id="soical">
                <g id="social">
                    <g id="square-black" fill="#B22829">
                        <path d="M2.995937,0 L57.004063,0 C58.658673,0 60,1.33730974 60,2.99593743 L60,57.0040626 C60,58.6586731 58.66269,60 57.004063,60 L2.995937,60 C1.341327,60 0,58.6626903 0,57.0040626 L0,2.99593743 C0,1.34132688 1.33731,0 2.995937,0 L2.995937,0 Z" id="square-4"></path>
                    </g>
                    <g id="icon" transform="translate(14.000000, 20.000000)" fill="#FFFFFF">
                        <path d="M29.125214,8.5574012 L29.125214,4.9488585 L26.552316,4.9488585 L26.552316,8.5574012 L22.847341,8.5574012 L22.847341,11.1349317 L26.552316,11.1349317 L26.552316,14.8465756 L29.125214,14.8465756 L29.125214,11.1349317 L32.727273,11.1349317 L32.727273,8.5574012 L29.125214,8.5574012 L29.125214,8.5574012 Z M10.394511,8.3511988 L10.394511,12.4752475 C10.394511,12.4752475 14.388062,12.4698863 16.014134,12.4698863 C15.133585,15.143404 13.764391,16.5992963 10.394511,16.5992963 C6.984185,16.5992963 4.32247,13.8296882 4.32247,10.4132231 C4.32247,6.996758 6.984185,4.22715 10.394511,4.22715 C12.197599,4.22715 13.362093,4.8620473 14.430257,5.7469651 C15.285283,4.8904001 15.213859,4.7683283 17.389194,2.7103249 C15.542573,1.02647574 13.088233,0 10.394511,0 C4.653756,0 0,4.662134 0,10.4132231 C0,16.1642091 4.653756,20.8264463 10.394511,20.8264463 C18.975334,20.8264463 21.072659,13.3412978 20.377358,8.3511988 L10.394511,8.3511988 L10.394511,8.3511988 Z" id="google_plus"></path>
                    </g>
                </g>
            </g>
        </g>
    </g>
</svg>