<?xml version="1.0" encoding="UTF-8" standalone="no"?>
<svg width="25px" height="22px" viewBox="0 0 25 22" version="1.1" xmlns="http://www.w3.org/2000/svg" xmlns:xlink="http://www.w3.org/1999/xlink">
    <!-- Generator: Sketch 40.1 (33804) - http://www.bohemiancoding.com/sketch -->
    <title>hamburger-wwhite</title>
    <desc>Created with Sketch.</desc>
    <defs></defs>
    <g id="Page-2" stroke="none" stroke-width="1" fill="none" fill-rule="evenodd">
        <g id="hamburger-wwhite" fill="#FFFFFF">
            <g id="Page-1">
                <path d="M2.55296392,4.73303033 L22.0845044,4.73303033 C23.3169438,4.73303033 24.3167811,3.73351303 24.3167811,2.50107366 C24.3167811,1.26735449 23.3182236,0.268797045 22.0857842,0.268797045 L2.55296392,0.268797045 C1.32052455,0.268797045 0.320687307,1.26735449 0.320687307,2.50107366 C0.320687307,3.73351303 1.32052455,4.73303033 2.55296392,4.73303033 L2.55296392,4.73303033 L2.55296392,4.73303033 Z M22.0845044,8.63895449 L2.55296392,8.63895449 C1.32052455,8.63895449 0.320687307,9.63879173 0.320687307,10.872191 C0.320687307,12.1046303 1.32052455,13.1044676 2.55296392,13.1044676 L22.0845044,13.1044676 C23.3169438,13.1044676 24.3167811,12.1046303 24.3167811,10.872191 C24.3167811,9.63879173 23.3169438,8.63895449 22.0845044,8.63895449 L22.0845044,8.63895449 L22.0845044,8.63895449 Z M22.0845044,17.0100718 L2.55296392,17.0100718 C1.32052455,17.0100718 0.320687307,18.009909 0.320687307,19.2433082 C0.320687307,20.4757476 1.32052455,21.4755849 2.55296392,21.4755849 L22.0845044,21.4755849 C23.3169438,21.4755849 24.3167811,20.4757476 24.3167811,19.2433082 C24.3167811,18.009909 23.3169438,17.0100718 22.0845044,17.0100718 L22.0845044,17.0100718 L22.0845044,17.0100718 Z" id="Shape"></path>
            </g>
        </g>
    </g>
</svg>