<?xml version="1.0" encoding="UTF-8" standalone="no"?>
<svg width="92px" height="69px" viewBox="0 0 92 69" version="1.1" xmlns="http://www.w3.org/2000/svg" xmlns:xlink="http://www.w3.org/1999/xlink">
    <!-- Generator: Sketch 3.6.1 (26313) - http://www.bohemiancoding.com/sketch -->
    <title>Group</title>
    <desc>Created with Sketch.</desc>
    <defs></defs>
    <g id="Page-1" stroke="none" stroke-width="1" fill="none" fill-rule="evenodd">
        <g id="Group" transform="translate(1.000000, 1.000000)" fill="#FFFFFF">
            <path d="M89.9,29 C89.8,27.5 89.4,26 88.9,24.6 C86.1,18.1 80.3,12 73.6,8.6 C74.1,5.4 72.7,2.5 69.8,1.2 C65.8,-0.6 62.1,0.3 60.1,3.5 C58.7,3.2 57.3,2.9 55.8,2.9 C54.4,2.8 53,2.8 51.7,2.8 C40.7,2.8 34,5.8 30,12.4 C27.5,16.5 23.8,25.6 22.1,30.5 C19.8,31.1 17.6,32.2 15.7,33.7 L0.3,45.6 C0.2,45.7 0.2,45.7 0.1,45.8 L0.1,45.8 C0.1,45.9 0.1,46 0,46 L0,46 L0,46.2 C0.2,49.4 1.5,60.2 9.5,61.5 C10.6,61.7 11.8,61.8 12.9,61.8 C17.2,61.8 21.3,60.4 24.3,57.8 C29.2,62.7 34.8,67.5 42.2,67.5 C45.1,67.5 48.2,66.7 51.3,65.2 C59.9,61 65.2,56.9 68.2,54.2 C69,53.5 69.4,52.4 69.3,51.3 L82.7,54.7 C83,55 83.3,55 83.6,55 C85,55 86.2,54.1 86.7,52.8 C90.3,42.9 90.1,32.9 89.9,29 L89.9,29 Z M69.1,2.7 C71.2,3.6 72.3,5.7 72,8 C66.9,5.4 62.6,4.2 62.1,4.1 C62,4.1 61.8,4 61.7,4 C63.4,1.9 66.1,1.4 69.1,2.7 L69.1,2.7 Z M31.4,13.2 C35.1,7 41.1,4.4 51.7,4.4 C52.9,4.4 54.3,4.4 55.7,4.5 C57.7,4.6 59.7,5 61.6,5.7 L61.7,5.7 C61.9,5.7 66.2,6.9 71.5,9.6 C72.5,10.8 74.1,13.3 74.4,16.7 C75,22.1 71,36.2 64.4,48 C59,46.7 52.1,44.3 46.2,39.5 C38.3,33.1 32.8,29.7 26.6,29.7 L26.5,29.7 C25.6,29.7 24.8,29.8 23.9,29.9 C25.8,25.2 29.2,16.9 31.4,13.2 L31.4,13.2 Z M9.8,60.1 C3.5,59 2,50.6 1.7,47 C2.2,47 2.8,46.9 3.6,46.9 C7,46.9 13.4,47.6 18.6,52.3 C19.9,53.5 21.2,54.8 22.6,56.2 C22.8,56.4 23,56.6 23.1,56.8 C19.7,59.7 14.8,60.9 9.8,60.1 L9.8,60.1 Z M67.2,53.2 C64.3,55.8 59.1,59.8 50.6,63.9 C47.7,65.3 44.9,66 42.2,66 C34.6,66 28.8,60.2 23.8,55.1 C22.4,53.7 21,52.3 19.7,51.1 C14.1,46.1 7.2,45.3 3.6,45.3 L3.4,45.3 L8.5,41.4 C8.6,41.4 8.7,41.5 8.7,41.5 C9.6,41.5 10.5,41.6 11.3,41.7 L11.4,41.7 C11.7,41.7 12,41.5 12.1,41.1 C12.2,40.7 11.9,40.4 11.5,40.3 C11,40.2 10.5,40.2 10,40.1 L16.7,35 C19.6,32.7 23.1,31.5 26.6,31.5 L26.6,30.7 L26.7,31.5 C32.4,31.5 37.6,34.8 45.2,41 C51.5,46.1 59,48.6 64.6,49.9 L64.6,49.9 C65.2,50 65.7,50.2 66.3,50.3 C67,50.4 67.4,50.9 67.6,51.5 C67.9,52.1 67.7,52.7 67.2,53.2 L67.2,53.2 Z M85.2,52.3 C85,53 84.3,53.4 83.6,53.4 C83.4,53.4 83.3,53.4 83.1,53.3 L68.4,49.6 C67.9,49.1 67.3,48.7 66.6,48.6 C66.4,48.6 66.2,48.5 66,48.5 C72.6,36.5 76.5,22.2 75.9,16.6 C75.7,14.3 74.9,12.3 74.1,10.9 C79.8,14.3 84.8,19.7 87.2,25.3 C87.7,26.5 88,27.8 88.1,29.2 C88.5,32.9 88.7,42.6 85.2,52.3 L85.2,52.3 Z" id="Shape" stroke="#FFFFFF"></path>
            <path d="M21.5,43.9 C21.2,43.7 20.8,43.8 20.6,44.1 C20.4,44.4 20.5,44.8 20.8,45 C21.5,45.5 22.2,46 22.9,46.6 C23,46.7 23.2,46.8 23.3,46.8 C23.5,46.8 23.7,46.7 23.8,46.6 C24,46.3 24,45.9 23.7,45.6 C23,45 22.3,44.5 21.5,43.9 L21.5,43.9 Z" id="Shape"></path>
            <path d="M18,42.1 C17.2,41.7 16.3,41.4 15.4,41.1 C15,41 14.7,41.2 14.6,41.6 C14.5,42 14.7,42.3 15.1,42.4 C16,42.7 16.8,43 17.6,43.3 C17.7,43.3 17.8,43.4 17.9,43.4 C18.2,43.4 18.4,43.2 18.5,43 C18.5,42.6 18.4,42.2 18,42.1 L18,42.1 Z" id="Shape"></path>
            <path d="M28.5,50 C27.9,49.4 27.3,48.8 26.6,48.2 C26.3,47.9 25.9,48 25.6,48.2 C25.3,48.5 25.4,48.9 25.6,49.2 C26.2,49.8 26.9,50.4 27.5,51 L27.6,51.1 C27.7,51.2 27.9,51.3 28.1,51.3 C28.3,51.3 28.5,51.2 28.6,51.1 C28.9,50.8 28.8,50.4 28.6,50.1 L28.5,50 L28.5,50 Z" id="Shape"></path>
            <path d="M60.7,49.1 C60.1,49.6 59.3,50.2 58.6,50.8 C58.3,51 58.2,51.5 58.5,51.8 C58.6,52 58.8,52.1 59,52.1 C59.1,52.1 59.3,52.1 59.4,52 C60.2,51.4 60.9,50.8 61.6,50.3 C61.9,50.1 61.9,49.6 61.7,49.3 C61.4,49 61,48.9 60.7,49.1 L60.7,49.1 Z" id="Shape"></path>
            <path d="M50.1,56.7 C49.7,57 49.3,57.3 48.8,57.5 C48.5,57.7 48.1,57.9 47.8,58.1 C47.5,58.3 47.3,58.7 47.5,59 C47.6,59.2 47.9,59.4 48.1,59.4 C48.2,59.4 48.3,59.4 48.4,59.3 C48.8,59.1 49.1,58.9 49.5,58.7 C49.9,58.4 50.4,58.1 50.8,57.9 C51.1,57.7 51.2,57.3 51,57 C50.9,56.6 50.4,56.5 50.1,56.7 L50.1,56.7 Z" id="Shape"></path>
            <path d="M55.5,53.1 C54.8,53.6 54.1,54.1 53.3,54.7 C53,54.9 52.9,55.3 53.1,55.6 C53.2,55.8 53.4,55.9 53.7,55.9 C53.8,55.9 54,55.9 54.1,55.8 C54.9,55.2 55.7,54.7 56.3,54.2 C56.6,54 56.7,53.6 56.5,53.3 C56.2,52.9 55.8,52.8 55.5,53.1 L55.5,53.1 Z" id="Shape"></path>
            <path d="M31.4,52.7 C31.1,52.4 30.7,52.5 30.4,52.7 C30.1,53 30.2,53.4 30.4,53.7 C31.2,54.4 31.8,55 32.5,55.5 C32.6,55.6 32.8,55.7 32.9,55.7 C33.1,55.7 33.3,55.6 33.4,55.5 C33.6,55.2 33.6,54.8 33.3,54.5 C32.8,53.9 32.1,53.4 31.4,52.7 L31.4,52.7 Z" id="Shape"></path>
            <path d="M38.6,58.1 C37.9,57.7 37.1,57.3 36.3,56.7 C36,56.5 35.6,56.6 35.4,56.9 C35.2,57.2 35.3,57.6 35.6,57.8 C36.4,58.4 37.2,58.8 38,59.2 C38.1,59.2 38.2,59.3 38.3,59.3 C38.5,59.3 38.8,59.2 38.9,58.9 C39.1,58.7 38.9,58.3 38.6,58.1 L38.6,58.1 Z" id="Shape"></path>
            <path d="M44.5,59.3 C44.1,59.4 43.7,59.4 43.4,59.4 C42.9,59.4 42.5,59.4 42,59.3 C41.6,59.2 41.3,59.5 41.2,59.9 C41.1,60.3 41.4,60.6 41.8,60.7 C42.3,60.8 42.9,60.8 43.4,60.8 L43.4,60.8 C43.8,60.8 44.3,60.8 44.7,60.7 C45.1,60.6 45.3,60.3 45.3,59.9 C45.3,59.5 44.9,59.2 44.5,59.3 L44.5,59.3 Z" id="Shape"></path>
        </g>
    </g>
</svg>