<?xml version="1.0" encoding="UTF-8" standalone="no"?>
<svg width="80px" height="80px" viewBox="0 0 80 80" version="1.1" xmlns="http://www.w3.org/2000/svg" xmlns:xlink="http://www.w3.org/1999/xlink">
    <!-- Generator: Sketch 40.1 (33804) - http://www.bohemiancoding.com/sketch -->
    <title>hot-tub</title>
    <desc>Created with Sketch.</desc>
    <defs></defs>
    <g id="Page-3" stroke="none" stroke-width="1" fill="none" fill-rule="evenodd">
        <g id="hot-tub" stroke="#000000" fill="#000000">
            <path d="M76.8644409,26.348877 C76.8491821,26.3189698 76.8290405,26.2955933 76.8098755,26.2680054 C76.7592774,26.1951294 76.6989746,26.1343994 76.6262817,26.0834961 C76.6087646,26.071167 76.600769,26.0499268 76.5820312,26.0390625 L64.5478516,19.027832 C64.4331055,18.9609375 64.3032227,18.9257812 64.1704102,18.9257812 L15.8295898,18.9257812 C15.6967773,18.9257812 15.5668945,18.9609374 15.4521484,19.027832 L3.4179687,26.0390625 C3.3992309,26.0499268 3.3912353,26.071167 3.3737182,26.0834961 C3.3010253,26.1343994 3.2407226,26.1951294 3.1901244,26.2680054 C3.1709594,26.2955933 3.1508178,26.3189698 3.135559,26.348877 C3.0825194,26.4517212 3.0454101,26.5634156 3.0454101,26.6870118 L3.0454101,53.2553712 C3.0454101,53.522461 3.1870117,53.7690431 3.4179687,53.9033204 L15.4521484,60.9145509 C15.4638672,60.9213868 15.4787597,60.9188234 15.4907837,60.9249879 C15.5924683,60.9778443 15.703064,61.0144654 15.8252564,61.015442 C15.8267823,61.015442 15.828064,61.0166017 15.8295899,61.0166017 L64.1704102,61.0166017 C64.3032227,61.0166017 64.4331055,60.9814455 64.5478516,60.9145509 L76.5820313,53.9033204 C76.8129883,53.7690431 76.9545899,53.522461 76.9545899,53.2553712 L76.9545899,26.6870117 C76.9545898,26.5634155 76.9174805,26.4517212 76.8644409,26.348877 L76.8644409,26.348877 L76.8644409,26.348877 Z M16.0322266,20.4257812 L63.9677735,20.4257812 L74.7148438,26.6870117 L68.4500123,30.3371582 L59.3623048,25.0424805 C59.2475587,24.975586 59.1176759,24.9404297 58.9848634,24.9404297 L21.0151367,24.9404297 C20.8823242,24.9404297 20.7524414,24.9755859 20.6376953,25.0424805 L11.5499878,30.3371582 L5.2851563,26.6870117 L16.0322266,20.4257812 L16.0322266,20.4257812 L16.0322266,20.4257812 Z M16.5810547,34.4487305 L23.7338867,34.4487305 L23.7338867,59.5166016 L16.5810547,59.5166016 L16.5810547,34.4487305 L16.5810547,34.4487305 L16.5810547,34.4487305 Z M43.019043,46.1425781 L25.2338867,46.1425781 L25.2338867,39.6586914 L43.019043,39.6586914 L43.019043,46.1425781 L43.019043,46.1425781 L43.019043,46.1425781 Z M25.2338867,47.6425781 L43.019043,47.6425781 L43.019043,54.0371093 L25.2338867,54.0371093 L25.2338867,47.6425781 L25.2338867,47.6425781 L25.2338867,47.6425781 Z M43.019043,38.1586914 L25.2338867,38.1586914 L25.2338867,34.4487305 L43.019043,34.4487305 L43.019043,38.1586914 L43.019043,38.1586914 L43.019043,38.1586914 Z M25.2338867,55.5371094 L43.019043,55.5371094 L43.019043,59.5166016 L25.2338867,59.5166016 L25.2338867,55.5371094 L25.2338867,55.5371094 L25.2338867,55.5371094 Z M44.519043,34.4487305 L63.2734375,34.4487305 L63.2734375,59.5166016 L44.519043,59.5166016 L44.519043,34.4487305 L44.519043,34.4487305 L44.519043,34.4487305 Z M63.9677734,32.9487305 L16.0322266,32.9487305 L13.0395508,31.2050782 L21.2177735,26.4404298 L58.7822266,26.4404298 L66.9604493,31.2050782 L63.9677734,32.9487305 L63.9677734,32.9487305 L63.9677734,32.9487305 Z M4.5454102,27.9918823 L15.0810547,34.1304321 L15.0810547,58.9624633 L4.5454102,52.8242187 L4.5454102,27.9918823 L4.5454102,27.9918823 L4.5454102,27.9918823 Z M64.7734375,59.0471802 L64.7734375,34.215271 L75.4545898,27.9918823 L75.4545898,52.8242187 L64.7734375,59.0471802 L64.7734375,59.0471802 L64.7734375,59.0471802 Z" id="Shape"></path>
        </g>
    </g>
</svg>