<?xml version="1.0" encoding="UTF-8" standalone="no"?>
<svg width="80px" height="80px" viewBox="0 0 80 80" version="1.1" xmlns="http://www.w3.org/2000/svg" xmlns:xlink="http://www.w3.org/1999/xlink">
    <!-- Generator: Sketch 40.1 (33804) - http://www.bohemiancoding.com/sketch -->
    <title>oven</title>
    <desc>Created with Sketch.</desc>
    <defs></defs>
    <g id="Page-3" stroke="none" stroke-width="1" fill="none" fill-rule="evenodd">
        <g id="oven">
            <path d="M68.7317073,13.4634146 L67.7560976,13.4634146 L67.7560976,3.6097561 C67.7560976,1.65853659 66.195122,0 64.1463415,0 L15.5609756,0 C13.6097561,0 11.9512195,1.56097561 11.9512195,3.6097561 L11.9512195,13.4634146 L11.3658537,13.4634146 C8.92682927,13.4634146 6.97560976,15.4146341 6.97560976,17.8536585 L6.97560976,20.5853659 L6.97560976,74.6341463 C6.97560976,77.0731707 8.92682927,79.0243902 11.3658537,79.0243902 L68.6341463,79.0243902 C71.0731707,79.0243902 73.0243902,77.0731707 73.0243902,74.6341463 L73.0243902,20.5853659 L73.0243902,17.8536585 C73.0243902,15.4146341 71.0731707,13.4634146 68.7317073,13.4634146 L68.7317073,13.4634146 L68.7317073,13.4634146 Z M14.5853659,3.6097561 C14.5853659,3.12195122 14.9756098,2.73170732 15.4634146,2.73170732 L64.0487805,2.73170732 C64.5365854,2.73170732 64.9268293,3.12195122 64.9268293,3.6097561 L64.9268293,13.4634146 L14.5853659,13.4634146 L14.5853659,3.6097561 L14.5853659,3.6097561 L14.5853659,3.6097561 Z M9.70731707,17.8536585 C9.70731707,16.8780488 10.4878049,16.195122 11.3658537,16.195122 L13.2195122,16.195122 L66.2926829,16.195122 L68.6341463,16.195122 C69.6097561,16.195122 70.2926829,16.9756098 70.2926829,17.8536585 L70.2926829,19.3170732 L9.70731707,19.3170732 L9.70731707,17.8536585 L9.70731707,17.8536585 L9.70731707,17.8536585 Z M70.3902439,74.6341463 C70.3902439,75.6097561 69.6097561,76.2926829 68.7317073,76.2926829 L11.3658537,76.2926829 C10.3902439,76.2926829 9.70731707,75.5121951 9.70731707,74.6341463 L9.70731707,21.9512195 L70.3902439,21.9512195 L70.3902439,74.6341463 L70.3902439,74.6341463 L70.3902439,74.6341463 Z" id="Shape" fill="#000000"></path>
            <path d="M19.5609756,53.5609756 L57.902439,53.5609756 C59.3658537,53.5609756 60.5365854,52.3902439 60.5365854,50.9268293 L60.5365854,31.7073171 C60.5365854,30.2439024 59.3658537,29.0731707 57.902439,29.0731707 L19.5609756,29.0731707 C18.097561,29.0731707 16.9268293,30.2439024 16.9268293,31.7073171 L16.9268293,50.9268293 C16.8292683,52.3902439 18.097561,53.5609756 19.5609756,53.5609756 L19.5609756,53.5609756 L19.5609756,53.5609756 Z M19.5609756,31.7073171 L57.902439,31.7073171 L57.902439,50.9268293 L19.5609756,50.9268293 L19.5609756,31.7073171 L19.5609756,31.7073171 L19.5609756,31.7073171 Z" id="Shape" fill="#000000"></path>
            <path d="M15.0731707,75.0243902 L65.5121951,75.0243902 C66.9756098,75.0243902 68.1463415,73.8536585 68.1463415,72.3902439 L68.1463415,62.5365854 C68.1463415,61.0731707 66.9756098,59.902439 65.5121951,59.902439 L15.0731707,59.902439 C13.6097561,59.902439 12.4390244,61.0731707 12.4390244,62.5365854 L12.4390244,72.3902439 C12.4390244,73.8536585 13.6097561,75.0243902 15.0731707,75.0243902 L15.0731707,75.0243902 L15.0731707,75.0243902 Z M15.0731707,62.5365854 L65.5121951,62.5365854 L65.5121951,72.3902439 L15.0731707,72.3902439 L15.0731707,62.5365854 L15.0731707,62.5365854 L15.0731707,62.5365854 Z" id="Shape" fill="#000000"></path>
            <path d="M47.5609756,5.85365854 L32.0487805,5.85365854 C31.4634146,5.85365854 31.1707317,6.34146341 31.1707317,6.92682927 L31.1707317,10.1463415 C31.1707317,10.7317073 31.4634146,11.2195122 32.0487805,11.2195122 L47.5609756,11.2195122 C48.1463415,11.2195122 48.4390244,10.7317073 48.4390244,10.1463415 L48.4390244,6.92682927 C48.5365854,6.34146341 48.2439024,5.85365854 47.5609756,5.85365854 L47.5609756,5.85365854 L47.5609756,5.85365854 Z M46.7804878,9.46341463 L32.9268293,9.46341463 L32.9268293,7.70731707 L46.7804878,7.70731707 L46.7804878,9.46341463 L46.7804878,9.46341463 L46.7804878,9.46341463 Z" id="Shape" fill="#000000"></path>
            <ellipse id="Oval" fill="#000000" cx="23.3658537" cy="6.34146341" rx="1.75609756" ry="1.75609756"></ellipse>
            <ellipse id="Oval" fill="#000000" cx="23.3658537" cy="10.4390244" rx="1.75609756" ry="1.75609756"></ellipse>
            <ellipse id="Oval" fill="#000000" cx="56.8292683" cy="10.4390244" rx="1.75609756" ry="1.75609756"></ellipse>
            <ellipse id="Oval" fill="#000000" cx="56.8292683" cy="6.34146341" rx="1.75609756" ry="1.75609756"></ellipse>
            <g id="construction-debris-removal-and-disposial" transform="translate(46.000000, -176.000000)" stroke-width="6" stroke="#263E4A">
                <g id="Group-4">
                    <g id="Page-1">
                        <g id="Group-4">
                            <g id="Group-2">
                                <polyline id="Fill-255" fill="#D38E3D" points="49.9720861 194.863901 54.8347333 265.977433 7.94834509 321.101223 20.3427496 332.422211 79.3101799 276.020423 80.1138623 197.785566 49.9720861 194.863901"></polyline>
                                <path d="M53.7951074,83.8960612 L31.9555915,172.066794 C31.9555915,172.066794 44.4260918,179.03926 53.7951066,181.368512 C62.7596355,183.597204 86.9562225,185.740626 86.9562225,185.740626 L108.795738,97.5735872 C111.431669,86.9359218 101.252921,75.2492645 86.0677479,71.4706771 C70.8788881,67.6957834 56.4310382,73.2583959 53.7951074,83.8960612 L53.7951074,83.8960612 Z" id="Fill-256" fill="#40B34F"></path>
                            </g>
                        </g>
                    </g>
                </g>
            </g>
        </g>
    </g>
</svg>