<?xml version="1.0" encoding="UTF-8" standalone="no"?>
<svg width="180px" height="181px" viewBox="0 0 180 181" version="1.1" xmlns="http://www.w3.org/2000/svg" xmlns:xlink="http://www.w3.org/1999/xlink">
    <!-- Generator: Sketch 40.1 (33804) - http://www.bohemiancoding.com/sketch -->
    <title>Combined Shape</title>
    <desc>Created with Sketch.</desc>
    <defs></defs>
    <g id="Page-1" stroke="none" stroke-width="1" fill="none" fill-rule="evenodd" stroke-linecap="round" stroke-linejoin="round">
        <path d="M156.240118,107.013538 L118.359992,120.800776 L114.016133,108.866122 L108.375712,127.269605 L102.727729,145.673181 L118.88478,156.143034 L135.036102,166.618012 L132.029707,158.358011 L151.940864,150.246428 C169.393939,142.672307 170.97633,133.746482 170.97633,133.746482 L177.459152,89.173909 C173.821564,102.175482 156.240118,107.013538 156.240118,107.013538 Z M147.129684,49.5934111 L121.652126,80.1331659 L148.005313,102.27535 C165.027616,97.8190282 168.249682,90.8937543 168.249682,90.8937543 C178.724415,78.6264993 165.362102,64.7416045 165.362102,64.7416045 L147.129684,49.5934111 Z M46.6715054,174.888328 C37.4406809,165.041709 42.4251423,147.482325 42.4251423,147.482325 L50.2674603,107.92845 L62.7141677,110.407058 L49.898993,96.0323166 L37.1010156,81.6547354 L19.7789548,90.0437854 L2.4591524,98.4369535 L11.0670452,100.144079 L7.69977199,121.383847 C5.12838071,140.239722 11.951559,146.222072 11.951559,146.222072 L46.6715054,174.888328 Z M74.0552699,178.206099 L96.469237,170.465709 L83.5557322,132.824 L50.9775752,143.892586 C45.9614462,160.763904 50.2055889,167.118357 50.2055889,167.118357 C55.2732133,182.447144 74.0552699,178.206099 74.0552699,178.206099 Z M103.120469,61.3724832 L121.986634,57.6035735 L123.506956,38.4112843 L125.041703,19.2221049 L119.211596,25.7844659 L102.613732,12.1176988 C87.6530867,0.349775574 79.0441432,3.20615004 79.0441432,3.20615004 L36.7589641,18.6586376 C49.9287082,15.6793937 62.5395385,28.8634693 62.5395385,28.8634693 L92.6696095,55.653703 L84.2455225,65.1423092 L103.120469,61.3724832 Z M61.4860162,38.1482704 C49.4736844,25.2791282 41.8428721,25.723277 41.8428721,25.723277 C26.0741598,22.3382836 20.2263248,40.6884376 20.2263248,40.6884376 L15.5646345,63.941021 L54.5413786,71.8611426 L61.4860162,38.1482704 Z" id="Combined-Shape" stroke="#273E49" stroke-width="4" fill="#74BC50"></path>
    </g>
</svg>