<?xml version="1.0" encoding="UTF-8" standalone="no"?>
<svg width="91px" height="91px" viewBox="0 0 91 91" version="1.1" xmlns="http://www.w3.org/2000/svg" xmlns:xlink="http://www.w3.org/1999/xlink">
    <!-- Generator: Sketch 3.6.1 (26313) - http://www.bohemiancoding.com/sketch -->
    <title>Shape</title>
    <desc>Created with Sketch.</desc>
    <defs></defs>
    <g id="Page-1" stroke="none" stroke-width="1" fill="none" fill-rule="evenodd">
        <path d="M59.878,90.463 C59.487,90.463 59.105,90.311 58.817,90.024 L45.764,76.965 C45.179,76.379 45.179,75.43 45.764,74.844 L58.817,61.789 C59.246,61.359 59.892,61.23 60.452,61.464 C61.013,61.696 61.378,62.243 61.378,62.85 L61.378,68.084 L70.737,68.084 C73.291,68.084 74.824,67.409 75.099,66.931 C75.358,66.484 75.264,64.908 73.917,62.573 L65.963,48.796 C65.764,48.451 65.71,48.042 65.813,47.657 C65.917,47.273 66.167,46.945 66.512,46.747 L77.463,40.424 C77.808,40.225 78.217,40.171 78.602,40.274 C78.986,40.377 79.314,40.628 79.512,40.973 L87.466,54.753 C91.511,61.76 91.942,69.05 88.649,74.753 C85.358,80.456 78.829,83.728 70.737,83.728 L61.378,83.73 L61.378,88.964 C61.378,89.57 61.013,90.117 60.452,90.35 C60.267,90.426 60.071,90.463 59.878,90.463 L59.878,90.463 Z M48.946,75.904 L58.378,85.341 L58.378,82.229 C58.378,81.401 59.05,80.729 59.878,80.729 L70.737,80.727 C77.728,80.727 83.309,78.002 86.051,73.252 C88.793,68.502 88.363,62.306 84.868,56.252 L77.664,43.772 L69.31,48.594 L76.515,61.073 C78.241,64.064 78.671,66.746 77.697,68.43 C76.725,70.116 74.192,71.083 70.748,71.083 L59.878,71.083 C59.05,71.083 58.378,70.411 58.378,69.583 L58.378,66.471 L48.946,75.904 L48.946,75.904 Z M36.664,83.728 L20.752,83.728 C12.659,83.728 6.13,80.456 2.838,74.75 C-0.454,69.046 -0.023,61.756 4.021,54.75 L8.7,46.646 L4.167,44.029 C3.642,43.726 3.351,43.136 3.43,42.534 C3.51,41.932 3.943,41.438 4.529,41.281 L22.362,36.505 C23.161,36.291 23.985,36.765 24.199,37.565 L28.919,55.168 C29.004,55.356 29.052,55.565 29.052,55.785 C29.052,56.617 28.367,57.319 27.542,57.285 C27.267,57.261 27.018,57.221 26.782,57.084 L22.248,54.467 L17.57,62.572 C16.222,64.904 16.129,66.483 16.387,66.93 C16.663,67.408 18.197,68.081 20.74,68.081 L36.664,68.081 C37.493,68.081 38.164,68.753 38.164,69.581 L38.164,82.227 C38.164,83.056 37.493,83.728 36.664,83.728 L36.664,83.728 Z M8.804,43.242 L11.499,44.799 C11.844,44.998 12.095,45.325 12.198,45.709 C12.301,46.094 12.247,46.503 12.048,46.848 L6.619,56.25 C3.126,62.303 2.695,68.499 5.437,73.25 C8.178,78.002 13.761,80.728 20.752,80.728 L35.164,80.728 L35.164,71.082 L20.751,71.082 C17.296,71.082 14.763,70.115 13.789,68.431 C12.815,66.74 13.247,64.059 14.972,61.073 L20.399,51.669 C20.598,51.324 20.926,51.073 21.31,50.97 C21.694,50.866 22.104,50.921 22.448,51.12 L25.144,52.677 L21.689,39.792 L8.804,43.242 L8.804,43.242 Z M67.656,37.583 C67.527,37.583 67.397,37.566 67.267,37.531 L49.433,32.755 C48.847,32.598 48.412,32.104 48.333,31.502 C48.254,30.9 48.545,30.311 49.07,30.007 L53.605,27.388 L48.925,19.284 C47.577,16.951 46.255,16.08 45.738,16.08 C45.187,16.08 43.834,17.074 42.56,19.283 L34.603,33.062 C34.189,33.779 33.273,34.026 32.554,33.611 L21.604,27.29 C21.26,27.091 21.008,26.763 20.905,26.379 C20.802,25.995 20.856,25.585 21.055,25.241 L29.012,11.461 C33.059,4.458 39.156,0.439 45.743,0.438 C52.331,0.438 58.429,4.457 62.473,11.462 L67.153,19.568 L71.686,16.951 C72.211,16.646 72.868,16.69 73.349,17.06 C73.83,17.429 74.041,18.052 73.885,18.639 L69.104,36.472 C68.925,37.141 68.318,37.583 67.656,37.583 L67.656,37.583 Z M53.708,30.794 L66.595,34.245 L70.05,21.36 L67.355,22.916 C67.009,23.115 66.601,23.168 66.216,23.066 C65.832,22.963 65.504,22.712 65.306,22.367 L59.876,12.962 C56.382,6.91 51.23,3.439 45.743,3.438 C40.257,3.439 35.107,6.911 31.612,12.963 L24.405,25.443 L32.757,30.264 L39.963,17.784 C41.687,14.796 43.793,13.081 45.74,13.081 C47.691,13.082 49.799,14.797 51.524,17.785 L56.954,27.187 C57.153,27.531 57.207,27.941 57.104,28.325 C57,28.709 56.75,29.037 56.405,29.236 L53.708,30.794 L53.708,30.794 Z" id="Shape" fill="#FFFFFF"></path>
    </g>
</svg>