<?xml version="1.0" encoding="UTF-8" standalone="no"?>
<svg width="80px" height="80px" viewBox="0 0 80 80" version="1.1" xmlns="http://www.w3.org/2000/svg" xmlns:xlink="http://www.w3.org/1999/xlink">
    <!-- Generator: Sketch 40.1 (33804) - http://www.bohemiancoding.com/sketch -->
    <title>scrap</title>
    <desc>Created with Sketch.</desc>
    <defs></defs>
    <g id="Page-3" stroke="none" stroke-width="1" fill="none" fill-rule="evenodd">
        <g id="scrap" stroke="#000000" stroke-width="1.3" fill="#000000">
            <path d="M78.9966714,59.4755903 L78.9966714,58.5602276 C78.9966714,57.9599716 78.6083357,57.2776102 78.094623,56.9702703 L75.9898435,55.7187198 C75.4827881,55.418037 74.6639545,55.418037 74.156899,55.7187198 L72.053229,56.9702703 C71.5384068,57.2765007 71.1511807,57.9599716 71.1511807,58.5602276 L71.1511807,59.4755903 C71.1511807,60.1934566 71.7347937,60.7781792 72.4537696,60.7781792 L72.5281081,60.7781792 C72.4615363,60.9745661 72.4182646,61.1787198 72.4182646,61.3961878 L72.4182646,62.9439829 L71.2277383,62.9439829 C71.2022191,62.9439829 71.1800284,62.9572973 71.1556188,62.9595164 C70.944808,62.2094737 70.2613371,61.6547084 69.4458321,61.6547084 L67.4420199,61.6547084 L67.4420199,17.2912376 L69.4458321,17.2912376 C70.2602276,17.2912376 70.9436984,16.7364723 71.1545092,15.9864296 C71.1800284,15.9875391 71.2022191,16.0008535 71.2277383,16.0008535 L72.4182646,16.0008535 C73.0617923,16.0008535 73.5832717,15.477155 73.5832717,14.8358464 L73.5832717,11.631522 C73.5832717,10.9902134 73.0617923,10.4665149 72.4182646,10.4665149 L71.2277383,10.4665149 C71.2022191,10.4665149 71.1800284,10.4798293 71.1545092,10.4820484 C70.9436984,9.73089616 70.2613371,9.1772404 69.4458321,9.1772404 L67.4420199,9.1772404 L67.4420199,8.95089616 C67.4420199,7.39644381 66.9760171,5.82645804 65.9363869,5.82645804 C65.7522048,5.82645804 65.5968706,5.64893314 65.5968706,5.43812233 C65.5968706,4.5516074 64.5550213,3.88477952 63.1692176,3.88477952 C61.785633,3.88477952 60.7415647,4.55271693 60.7415647,5.43812233 C60.7415647,5.64782361 60.5851209,5.82645804 60.4009388,5.82645804 C59.3601991,5.82645804 58.8964154,7.39644381 58.8964154,8.95089616 L58.8964154,9.1772404 L57.0523755,9.1772404 L57.0523755,8.95200569 C57.0523755,7.39644381 56.5874822,5.82756757 55.5489616,5.82756757 C55.3647795,5.82756757 55.2083357,5.64893314 55.2083357,5.43812233 C55.2083357,4.55271693 54.165377,3.88477952 52.7806828,3.88477952 C51.3959886,3.88477952 50.3530299,4.55382646 50.3530299,5.43812233 C50.3530299,5.64782361 50.1965861,5.82756757 50.012404,5.82756757 C48.9716643,5.82756757 48.506771,7.39644381 48.506771,8.95200569 L48.506771,9.1772404 L46.5650925,9.1772404 L46.5650925,8.95422475 C46.5650925,7.3997724 46.1001991,5.82978663 45.060569,5.82978663 C44.8763869,5.82978663 44.7210526,5.65226174 44.7210526,5.44145092 C44.7210526,4.55493599 43.6780939,3.88810811 42.2933997,3.88810811 C40.9109246,3.88810811 39.8657468,4.55604552 39.8657468,5.44145092 C39.8657468,5.6511522 39.7104125,5.82978663 39.5262304,5.82978663 C38.4854908,5.82978663 38.0228165,7.3997724 38.0228165,8.95422475 L38.0228165,9.17834993 L35.9135989,9.17834993 C35.882532,7.67826458 35.4187482,6.2170128 34.414623,6.2170128 C34.230441,6.2170128 34.0739972,6.03948791 34.0739972,5.8286771 C34.0739972,4.94216216 33.0321479,4.27533428 31.6474538,4.27533428 C30.2627596,4.27533428 29.2198009,4.94327169 29.2198009,5.8286771 C29.2198009,6.03837838 29.063357,6.2170128 28.879175,6.2170128 C27.8772688,6.2170128 27.4123755,7.67826458 27.3801991,9.17834993 L25.4984353,9.17834993 L25.4984353,8.95422475 C25.4984353,7.3997724 25.0346515,5.82978663 23.9950213,5.82978663 C23.8108393,5.82978663 23.6543954,5.65226174 23.6543954,5.44145092 C23.6543954,4.55493599 22.6114367,3.88810811 21.2267425,3.88810811 C19.8420484,3.88810811 18.7990896,4.55604552 18.7990896,5.44145092 C18.7990896,5.6511522 18.6437553,5.82978663 18.4584637,5.82978663 C17.4188336,5.82978663 16.9550498,7.3997724 16.9550498,8.95422475 L16.9550498,9.17834993 L15.2075391,9.17834993 L15.2075391,8.95311522 C15.2075391,7.39866287 14.7415363,5.8286771 13.7030156,5.8286771 C13.5188336,5.8286771 13.3623898,5.6511522 13.3623898,5.44034139 C13.3623898,4.55382646 12.319431,3.88699858 10.9347368,3.88699858 C9.55004267,3.88699858 8.50708393,4.55493599 8.50708393,5.44034139 C8.50708393,5.65004267 8.35064011,5.8286771 8.16645804,5.8286771 C7.12682788,5.8286771 6.6630441,7.39866287 6.6630441,8.95311522 L6.6630441,9.17834993 L5.14076814,9.17834993 C4.34967283,9.17834993 3.68617354,9.69761024 3.45317212,10.4099289 C3.4198862,10.4077098 3.38992888,10.3899573 3.35664296,10.3899573 L2.16500711,10.3899573 C1.52369844,10.3899573 1,10.9136558 1,11.556074 L1,14.7592888 C1,15.401707 1.52369844,15.9242959 2.16500711,15.9242959 L3.35664296,15.9242959 C3.37550498,15.9242959 3.38881935,15.9154196 3.40768137,15.9154196 C3.59297297,16.7020768 4.29752489,17.2912376 5.14076814,17.2912376 L6.6630441,17.2912376 L6.6630441,61.6524893 L5.20512091,61.6524893 C4.41513514,61.6524893 3.75163585,62.1728592 3.51752489,62.8840683 C3.48423898,62.8818492 3.45539118,62.8640967 3.42210526,62.8640967 L2.23046942,62.8640967 C1.58916074,62.8640967 1.0654623,63.3866856 1.0654623,64.0291038 L1.0654623,67.2334282 C1.0654623,67.8758464 1.58916074,68.3984353 2.23046942,68.3984353 L3.42210526,68.3984353 C3.43985775,68.3984353 3.45428165,68.389559 3.47203414,68.3884495 C3.65621622,69.1751067 4.36187767,69.765377 5.20512091,69.765377 L6.66415363,69.765377 L6.66415363,70.6629872 C6.66415363,72.2174395 7.12904694,73.7863158 8.16756757,73.7863158 C8.35174964,73.7863158 8.50819346,73.9638407 8.50819346,74.1746515 C8.50819346,75.0600569 9.55004267,75.7268848 10.9358464,75.7268848 C12.319431,75.7268848 13.3634993,75.0589474 13.3634993,74.1746515 C13.3634993,73.9649502 13.5199431,73.7863158 13.7041252,73.7863158 C14.7437553,73.7863158 15.2086486,72.2174395 15.2086486,70.6629872 L15.2086486,69.765377 L16.9561593,69.765377 L16.9561593,70.6629872 C16.9561593,72.2174395 17.4210526,73.7863158 18.4595733,73.7863158 C18.6448649,73.7863158 18.8001991,73.9638407 18.8001991,74.1746515 C18.8001991,75.0600569 19.8431579,75.7268848 21.2278521,75.7268848 C22.6125462,75.7268848 23.655505,75.0589474 23.655505,74.1746515 C23.655505,73.9649502 23.8119488,73.7863158 23.9961309,73.7863158 C25.0368706,73.7863158 25.4995448,72.2174395 25.4995448,70.6629872 L25.4995448,69.765377 L27.3768706,69.765377 L27.3768706,71.0513229 C27.3768706,72.6057752 27.8428734,74.1746515 28.881394,74.1746515 C29.0655761,74.1746515 29.2220199,74.3521764 29.2220199,74.5629872 C29.2220199,75.4483926 30.2638691,76.1152205 31.6496728,76.1152205 C33.0332575,76.1152205 34.0762162,75.4472831 34.0762162,74.5629872 C34.0762162,74.3532859 34.23266,74.1746515 34.4168421,74.1746515 C35.4575818,74.1746515 35.9213656,72.6057752 35.9213656,71.0513229 L35.9213656,69.765377 L38.0250356,69.765377 L38.0250356,70.6640967 C38.0250356,72.2185491 38.4888193,73.7874253 39.5284495,73.7874253 C39.7126316,73.7874253 39.8679659,73.9649502 39.8679659,74.175761 C39.8679659,75.0611664 40.9120341,75.7279943 42.2956188,75.7279943 C43.6803129,75.7279943 44.7232717,75.0600569 44.7232717,74.175761 C44.7232717,73.9660597 44.878606,73.7874253 45.0627881,73.7874253 C46.1035277,73.7874253 46.5673115,72.2185491 46.5673115,70.6640967 L46.5673115,69.765377 L48.50899,69.765377 L48.50899,70.6629872 C48.50899,72.2174395 48.9749929,73.7863158 50.014623,73.7863158 C50.1988051,73.7863158 50.3552489,73.9638407 50.3552489,74.1746515 C50.3552489,75.0600569 51.3970982,75.7268848 52.7829018,75.7268848 C54.1664865,75.7268848 55.2105548,75.0589474 55.2105548,74.1746515 C55.2105548,73.9649502 55.3669986,73.7863158 55.5511807,73.7863158 C56.5908108,73.7863158 57.0545946,72.2174395 57.0545946,70.6629872 L57.0545946,69.765377 L58.8986344,69.765377 L58.8986344,70.6629872 C58.8986344,72.2174395 59.3635277,73.7863158 60.4031579,73.7863158 C60.58734,73.7863158 60.7437838,73.9638407 60.7437838,74.1746515 C60.7437838,75.0600569 61.7867425,75.7268848 63.1714367,75.7268848 C64.5561309,75.7268848 65.5990896,75.0589474 65.5990896,74.1746515 C65.5990896,73.9649502 65.7544239,73.7863158 65.938606,73.7863158 C66.9793457,73.7863158 67.444239,72.2174395 67.444239,70.6629872 L67.444239,69.765377 L69.4480512,69.765377 C70.2635562,69.765377 70.947027,69.2106117 71.1578378,68.460569 C71.1822475,68.4627881 71.2044381,68.4761024 71.2299573,68.4761024 L72.4204836,68.4761024 L72.4204836,72.7211664 C71.7192603,72.7311522 71.1522902,73.2992319 71.1522902,74.0015647 L71.1522902,74.8314936 C71.1522902,75.5404836 71.7281366,76.1152205 72.4360171,76.1152205 L77.7162731,76.1152205 C78.4252632,76.1152205 79,75.5393741 79,74.8314936 L79,74.0015647 C79,73.2992319 78.4330299,72.7300427 77.7318065,72.7211664 L77.7318065,61.3950782 C77.7318065,61.1787198 77.6885349,60.9734566 77.6230725,60.7770697 L77.6963016,60.7770697 C78.4130583,60.7781792 78.9966714,60.1934566 78.9966714,59.4755903 L78.9966714,59.4755903 L78.9966714,59.4755903 Z M71.2266287,11.6326316 L72.417155,11.6326316 L72.4160455,14.8369559 L71.2266287,14.8369559 L71.2266287,11.6326316 L71.2266287,11.6326316 L71.2266287,11.6326316 Z M67.4398009,10.343357 L69.4436131,10.343357 C69.784239,10.343357 70.0616216,10.6207397 70.0616216,10.9613656 L70.0616216,11.6326316 L70.0616216,14.8369559 L70.0616216,15.5082219 C70.0616216,15.8499573 69.784239,16.12734 69.4436131,16.12734 L67.4398009,16.12734 L67.4398009,10.343357 L67.4398009,10.343357 L67.4398009,10.343357 Z M3.35664296,14.7592888 L2.16722617,14.7592888 L2.16722617,11.556074 L3.35886202,11.556074 L3.35664296,14.7592888 L3.35664296,14.7592888 L3.35664296,14.7592888 Z M3.4198862,67.2345377 L2.23046942,67.2345377 L2.23046942,64.0302134 L3.42210526,64.0302134 L3.4198862,67.2345377 L3.4198862,67.2345377 L3.4198862,67.2345377 Z M6.66415363,68.6014794 L5.20512091,68.6014794 C4.86338549,68.6014794 4.58711238,68.3240967 4.58711238,67.9834708 L4.58711238,67.2334282 L4.58711238,64.0291038 L4.58711238,63.4343954 C4.58711238,63.0937696 4.86338549,62.8163869 5.20512091,62.8163869 L6.66415363,62.8163869 L6.66415363,68.6014794 L6.66415363,68.6014794 L6.66415363,68.6014794 Z M6.66415363,16.1262304 L5.14187767,16.1262304 C4.80014225,16.1262304 4.5227596,15.8488478 4.5227596,15.5071124 L4.5227596,14.7581792 L4.5227596,11.5549644 L4.5227596,10.9591465 C4.5227596,10.6185206 4.80014225,10.341138 5.14187767,10.341138 L6.66415363,10.341138 L6.66415363,16.1262304 L6.66415363,16.1262304 L6.66415363,16.1262304 Z M14.0414225,9.17834993 L14.0414225,10.343357 L14.0414225,16.12734 L14.0414225,17.2923471 L14.0414225,61.6535989 L14.0414225,62.818606 L14.0414225,64.10899 L14.0414225,67.3122048 L14.0414225,68.6025889 L14.0414225,69.767596 L14.0414225,70.6652063 C14.0414225,71.8157895 13.7440683,72.5380939 13.7019061,72.6246373 C12.8719772,72.6246373 12.1973826,73.3203129 12.1996017,74.1602276 C12.1574395,74.2722902 11.7047511,74.5652063 10.9347368,74.5652063 C10.1647226,74.5652063 9.71203414,74.2711807 9.67209104,74.1768706 C9.67209104,73.3369559 9.02301565,72.651266 8.31846373,72.651266 C8.30403983,72.651266 8.29072546,72.651266 8.27519203,72.6523755 C8.12429587,72.5369844 7.82805121,71.8157895 7.82805121,70.6652063 L7.82805121,69.767596 L7.82805121,68.6025889 L7.82805121,67.3122048 L7.82805121,64.10899 L7.82805121,62.818606 L7.82805121,61.6535989 L7.82805121,17.2912376 L7.82805121,16.1262304 L7.82805121,10.3422475 L7.82805121,9.1772404 L7.82805121,8.95200569 C7.82805121,7.80031294 8.12540541,7.07911807 8.16756757,6.99257468 C8.99749644,6.99257468 9.67209104,6.29467994 9.66987198,5.45476529 C9.71203414,5.34381223 10.1636131,5.04978663 10.9347368,5.04978663 C11.7036415,5.04978663 12.1574395,5.34492176 12.1973826,5.43923186 C12.1973826,6.29467994 12.8897297,6.99479374 13.5931721,6.96372688 C13.7451778,7.07911807 14.0414225,7.80031294 14.0414225,8.95200569 L14.0414225,9.17834993 L14.0414225,9.17834993 L14.0414225,9.17834993 Z M16.9550498,68.6014794 L15.2075391,68.6014794 L15.2075391,62.8174964 L16.9550498,62.8174964 L16.9550498,68.6014794 L16.9550498,68.6014794 L16.9550498,68.6014794 Z M16.9550498,61.6535989 L15.2075391,61.6535989 L15.2075391,17.2912376 L16.9550498,17.2912376 L16.9550498,61.6535989 L16.9550498,61.6535989 L16.9550498,61.6535989 Z M16.9550498,16.1262304 L15.2075391,16.1262304 L15.2075391,10.3422475 L16.9550498,10.3422475 L16.9550498,16.1262304 L16.9550498,16.1262304 L16.9550498,16.1262304 Z M24.3345377,8.95422475 L24.3345377,9.17834993 L24.3345377,10.343357 L24.3345377,16.12734 L24.3345377,17.2923471 L24.3345377,18.8567852 L24.3345377,58.6123755 L24.3345377,61.6535989 L24.3345377,62.818606 L24.3345377,64.10899 L24.3345377,67.2345377 L24.3345377,68.6014794 L24.3345377,69.7664865 L24.3345377,70.6640967 C24.3345377,71.8146799 24.0371835,72.5369844 23.9939118,72.6235277 C23.1639829,72.6235277 22.4893883,73.3192034 22.4916074,74.1591181 C22.4494452,74.2711807 21.9967568,74.5640967 21.2267425,74.5640967 C20.4567283,74.5640967 20.0040398,74.2700711 19.9640967,74.175761 C19.9640967,73.3358464 19.3161309,72.6501565 18.6104694,72.6501565 C18.5960455,72.6501565 18.5827312,72.6501565 18.5683073,72.651266 C18.4163016,72.5358748 18.1200569,71.8146799 18.1200569,70.6640967 L18.1200569,69.7664865 L18.1200569,68.6014794 L18.1200569,67.2345377 L18.1200569,64.10899 L18.1200569,62.818606 L18.1200569,61.6535989 L18.1200569,58.6123755 L18.1200569,18.8556757 L18.1200569,17.2912376 L18.1200569,16.1262304 L18.1200569,10.3422475 L18.1200569,9.1772404 L18.1200569,8.95422475 L18.1200569,8.17755334 L18.1666572,8.17755334 C18.252091,7.4829872 18.4273969,7.05914651 18.4595733,6.99590327 C19.2895021,6.99590327 19.9640967,6.29800853 19.9618777,5.45920341 C20.0040398,5.34714083 20.4567283,5.05311522 21.2267425,5.05311522 C21.9967568,5.05311522 22.4494452,5.34825036 22.4893883,5.44256046 C22.4893883,6.29800853 23.1584353,6.9970128 23.8851778,6.96705548 C23.9994595,7.05359886 24.1958464,7.48187767 24.2857183,8.17866287 L24.3345377,8.17866287 L24.3345377,8.95422475 L24.3345377,8.95422475 L24.3345377,8.95422475 Z M27.375761,68.6014794 L25.4984353,68.6014794 L25.4984353,62.8174964 L27.375761,62.8174964 L27.375761,68.6014794 L27.375761,68.6014794 L27.375761,68.6014794 Z M27.375761,61.6535989 L25.4984353,61.6535989 L25.4984353,17.2912376 L27.375761,17.2912376 L27.375761,61.6535989 L27.375761,61.6535989 L27.375761,61.6535989 Z M27.375761,16.1262304 L25.4984353,16.1262304 L25.4984353,10.3422475 L27.375761,10.3422475 L27.375761,16.1262304 L27.375761,16.1262304 L27.375761,16.1262304 Z M34.7541394,10.343357 L34.7541394,16.12734 L34.7541394,17.2923471 L34.7541394,61.6535989 L34.7541394,62.818606 L34.7541394,64.0313229 L34.7541394,67.2356472 L34.7541394,68.6025889 L34.7541394,69.767596 L34.7541394,71.053542 C34.7541394,72.2041252 34.4556757,72.9264296 34.4135135,73.012973 C33.5846942,73.012973 32.90899,73.7086486 32.9112091,74.5485633 C32.8701565,74.6606259 32.4163585,74.953542 31.6474538,74.953542 C30.8785491,74.953542 30.4236415,74.6595164 30.384808,74.5652063 C30.384808,73.7252916 29.7368421,73.0396017 29.0311807,73.0396017 C29.0167568,73.0396017 29.0023329,73.0396017 28.987909,73.0407112 C28.8370128,72.9253201 28.5396586,72.2041252 28.5396586,71.053542 L28.5396586,69.767596 L28.5396586,68.6025889 L28.5396586,67.2356472 L28.5396586,64.0313229 L28.5396586,62.818606 L28.5396586,61.6535989 L28.5396586,17.2912376 L28.5396586,16.1262304 L28.5396586,10.3422475 L28.6006828,8.56477952 C28.6838976,7.87798009 28.8503272,7.44415363 28.8802845,7.38201991 C29.7091038,7.38201991 30.384808,6.68412518 30.3825889,5.84532006 C30.4236415,5.73325747 30.87633,5.43923186 31.6474538,5.43923186 C32.4163585,5.43923186 32.8701565,5.734367 32.90899,5.8286771 C32.90899,6.68523471 33.596899,7.39755334 34.305889,7.35428165 C34.4190612,7.43860597 34.7541394,8.56588905 34.7541394,8.56588905 L34.7541394,10.343357 L34.7541394,10.343357 L34.7541394,10.343357 Z M38.0228165,68.6014794 L35.9191465,68.6014794 L35.9191465,62.8174964 L38.0228165,62.8174964 L38.0228165,68.6014794 L38.0228165,68.6014794 L38.0228165,68.6014794 Z M38.0228165,61.6535989 L35.9191465,61.6535989 L35.9191465,17.2912376 L38.0228165,17.2912376 L38.0228165,61.6535989 L38.0228165,61.6535989 L38.0228165,61.6535989 Z M38.0228165,16.1262304 L35.9191465,16.1262304 L35.9191465,10.3422475 L38.0228165,10.3422475 L38.0228165,16.1262304 L38.0228165,16.1262304 L38.0228165,16.1262304 Z M45.4000853,9.17834993 L45.4000853,10.343357 L45.4000853,16.12734 L45.4000853,17.2923471 L45.4000853,17.9103556 L45.4000853,60.8691607 L45.4000853,61.6535989 L45.4000853,62.818606 L45.4000853,68.6025889 L45.4000853,69.767596 L45.4000853,70.4444097 L45.4000853,70.6652063 C45.4000853,71.8157895 45.1027312,72.5380939 45.0594595,72.6246373 C44.2306401,72.6246373 43.5560455,73.3203129 43.557155,74.1591181 C43.5149929,74.2722902 43.0611949,74.5652063 42.2911807,74.5652063 C41.5233855,74.5652063 41.0695875,74.2711807 41.0285349,74.1768706 C41.0285349,73.3369559 40.3794595,72.651266 39.6749075,72.651266 C39.6604836,72.651266 39.6471693,72.651266 39.6338549,72.6523755 C39.4807397,72.5369844 39.1856046,71.8157895 39.1856046,70.6652063 L39.1856046,70.4444097 L39.1856046,69.767596 L39.1856046,68.6025889 L39.1856046,62.818606 L39.1856046,61.6535989 L39.1856046,60.8691607 L39.1856046,17.9092461 L39.1856046,17.2912376 L39.1856046,16.1262304 L39.1856046,10.3422475 L39.1856046,9.1772404 L39.1856046,8.95422475 C39.1856046,7.80253201 39.4818492,7.08133713 39.5251209,6.99479374 C40.3539403,6.99479374 41.0285349,6.296899 41.0274253,5.45809388 C41.070697,5.34603129 41.5233855,5.05200569 42.2922902,5.05200569 C43.0611949,5.05200569 43.5161024,5.34714083 43.5560455,5.44145092 C43.5560455,6.29800853 44.2883357,7.00810811 44.9507255,6.96705548 C45.1038407,7.08133713 45.4000853,7.80253201 45.4000853,8.95422475 L45.4000853,9.17834993 L45.4000853,9.17834993 L45.4000853,9.17834993 Z M48.506771,68.6014794 L46.5650925,68.6014794 L46.5650925,62.8174964 L48.506771,62.8174964 L48.506771,68.6014794 L48.506771,68.6014794 L48.506771,68.6014794 Z M48.506771,61.6535989 L46.5650925,61.6535989 L46.5650925,17.2912376 L48.506771,17.2912376 L48.506771,61.6535989 L48.506771,61.6535989 L48.506771,61.6535989 Z M48.506771,16.1262304 L46.5650925,16.1262304 L46.5650925,10.3422475 L48.506771,10.3422475 L48.506771,16.1262304 L48.506771,16.1262304 L48.506771,16.1262304 Z M55.8862589,9.17834993 L55.8862589,10.343357 L55.8862589,16.12734 L55.8862589,17.2923471 L55.8862589,17.9824751 L55.8862589,61.1387767 L55.8862589,61.6535989 L55.8862589,62.818606 L55.8862589,68.6025889 L55.8862589,69.767596 L55.8862589,70.4444097 L55.8862589,70.6640967 C55.8862589,71.8146799 55.5889047,72.5369844 55.5467425,72.6235277 C54.7157041,72.6235277 54.0422191,73.3192034 54.0444381,74.1591181 C54.002276,74.2711807 53.5495875,74.5640967 52.7795733,74.5640967 C52.009559,74.5640967 51.5568706,74.2700711 51.5169275,74.175761 C51.5169275,73.3358464 50.8667425,72.6501565 50.1621906,72.6501565 C50.1477667,72.6501565 50.1344523,72.6501565 50.1200284,72.651266 C49.9680228,72.5358748 49.6717781,71.8146799 49.6717781,70.6640967 L49.6717781,70.4444097 L49.6717781,69.767596 L49.6717781,68.6025889 L49.6717781,62.818606 L49.6717781,61.6535989 L49.6717781,61.1387767 L49.6717781,17.9813656 L49.6717781,17.2912376 L49.6717781,16.1262304 L49.6717781,10.3422475 L49.6717781,9.1772404 L49.6717781,8.95200569 C49.6717781,7.79920341 49.9691323,7.07800853 50.012404,6.99146515 C50.8423329,6.99146515 51.5169275,6.29467994 51.5147084,5.45476529 C51.5568706,5.3427027 52.0084495,5.04978663 52.7795733,5.04978663 C53.548478,5.04978663 54.002276,5.34381223 54.0422191,5.43812233 C54.0422191,6.29467994 54.7134851,6.97926031 55.4380085,6.96372688 C55.5900142,7.07800853 55.8862589,7.80031294 55.8862589,8.95200569 L55.8862589,9.17834993 L55.8862589,9.17834993 L55.8862589,9.17834993 Z M58.8953058,68.6014794 L57.051266,68.6014794 L57.051266,62.8174964 L58.8953058,62.8174964 L58.8953058,68.6014794 L58.8953058,68.6014794 L58.8953058,68.6014794 Z M58.8953058,61.6535989 L57.051266,61.6535989 L57.051266,17.2912376 L58.8953058,17.2912376 L58.8953058,61.6535989 L58.8953058,61.6535989 L58.8953058,61.6535989 Z M58.8953058,16.1262304 L57.051266,16.1262304 L57.051266,10.3422475 L58.8953058,10.3422475 L58.8953058,16.1262304 L58.8953058,16.1262304 L58.8953058,16.1262304 Z M66.2747937,9.17834993 L66.2747937,10.343357 L66.2747937,16.12734 L66.2747937,17.2923471 L66.2747937,18.9544239 L66.2747937,61.0899573 L66.2747937,61.6547084 L66.2747937,62.8197155 L66.2747937,68.6036984 L66.2747937,69.7687055 L66.2747937,70.6663158 C66.2747937,71.816899 65.9774395,72.5392034 65.9341679,72.6257468 C65.1053485,72.6257468 64.4307539,73.3214225 64.4318634,74.1602276 C64.3908108,74.2733997 63.9370128,74.5663158 63.1669986,74.5663158 C62.3969844,74.5663158 61.9442959,74.2722902 61.9043528,74.1779801 C61.9043528,73.3380654 61.2552774,72.6523755 60.5507255,72.6523755 C60.535192,72.6523755 60.5229872,72.6523755 60.5085633,72.6534851 C60.3554481,72.5380939 60.0592034,71.816899 60.0592034,70.6663158 L60.0592034,69.7687055 L60.0592034,68.6036984 L60.0592034,62.8197155 L60.0592034,61.6547084 L60.0592034,61.0899573 L60.0592034,18.9533144 L60.0592034,17.2912376 L60.0592034,16.1262304 L60.0592034,10.3422475 L60.0592034,9.1772404 L60.0592034,8.95089616 C60.0592034,7.79920341 60.3565576,7.07800853 60.3998293,6.99035562 C61.2308677,6.99035562 61.9043528,6.29357041 61.9021337,5.45365576 C61.9442959,5.3427027 62.3969844,5.0486771 63.1669986,5.0486771 C63.9370128,5.0486771 64.3908108,5.34381223 64.4296444,5.43812233 C64.4296444,6.27803698 65.0787198,6.96372688 65.7832717,6.96372688 L65.8254339,6.96372688 C65.9774395,7.07800853 66.2736842,7.79920341 66.2736842,8.95089616 L66.2736842,9.17834993 L66.2747937,9.17834993 L66.2747937,9.17834993 Z M70.0616216,64.10899 L70.0616216,67.3122048 L70.0616216,67.9845804 C70.0616216,68.3252063 69.784239,68.6025889 69.4436131,68.6025889 L67.4398009,68.6025889 L67.4398009,62.818606 L69.4436131,62.818606 C69.784239,62.818606 70.0616216,63.0959886 70.0616216,63.4366145 L70.0616216,64.10899 L70.0616216,64.10899 L70.0616216,64.10899 Z M71.2266287,64.10899 L72.417155,64.10899 L72.4160455,67.3122048 L71.2266287,67.3122048 L71.2266287,64.10899 L71.2266287,64.10899 Z M77.7129445,73.8839545 C77.7784068,73.8839545 77.8316643,73.939431 77.8316643,74.0026743 L77.8316643,74.8326031 C77.8316643,74.8980654 77.7772973,74.9513229 77.7129445,74.9513229 L72.4326885,74.9513229 C72.3672262,74.9513229 72.3139687,74.8969559 72.3139687,74.8326031 L72.3139687,74.0026743 C72.3139687,73.9383215 72.3683357,73.8839545 72.4326885,73.8839545 L77.7129445,73.8839545 L77.7129445,73.8839545 L77.7129445,73.8839545 Z M73.5821622,72.7189474 L73.5821622,67.3110953 L73.5821622,64.10899 L73.5821622,61.3961878 C73.5821622,61.1432148 73.7042105,60.9279659 73.885064,60.7781792 L76.2616785,60.7781792 C76.442532,60.9279659 76.5645804,61.1432148 76.5645804,61.3961878 L76.5645804,72.7189474 L73.5821622,72.7189474 L73.5821622,72.7189474 L73.5821622,72.7189474 Z M72.4515505,59.6131721 C72.3761024,59.6131721 72.3139687,59.5499289 72.3139687,59.4755903 L72.3139687,58.5602276 C72.3139687,58.3704979 72.4848364,58.0687055 72.6479374,57.9721764 L74.7516074,56.7206259 C74.8081935,56.6862304 74.9213656,56.651835 75.0722617,56.651835 C75.2231579,56.651835 75.33633,56.6862304 75.3929161,56.7206259 L77.4976956,57.9721764 C77.6596871,58.0687055 77.8316643,58.3704979 77.8316643,58.5602276 L77.8316643,59.4755903 C77.8316643,59.5499289 77.7695306,59.6131721 77.6940825,59.6131721 L72.4515505,59.6131721 L72.4515505,59.6131721 L72.4515505,59.6131721 Z" id="Shape"></path>
        </g>
    </g>
</svg>