<?xml version="1.0" encoding="UTF-8" standalone="no"?>
<svg width="12px" height="15px" viewBox="0 0 12 15" version="1.1" xmlns="http://www.w3.org/2000/svg" xmlns:xlink="http://www.w3.org/1999/xlink">
    <!-- Generator: Sketch 3.6.1 (26313) - http://www.bohemiancoding.com/sketch -->
    <title>Group</title>
    <desc>Created with Sketch.</desc>
    <defs></defs>
    <g id="Page-1" stroke="none" stroke-width="1" fill="none" fill-rule="evenodd">
        <g id="Group" transform="translate(-1.000000, -1.362200)" fill="#FFFFFF">
            <g transform="translate(0.000000, 0.500020)" id="Shape">
                <g transform="translate(0.500000, 0.350676)">
                    <path d="M1.1601562,0.5115 C0.918665,0.5247848 0.7212943,0.7089975 0.6914062,0.949 C0.3023174,4.0284 0.4678096,6.5367219 1.3535156,8.7439219 C2.2392206,10.951222 3.8358955,12.82555 6.2109375,14.66775 C6.3913703,14.807823 6.6437859,14.807823 6.8242188,14.66775 C9.201137,12.82405 10.772499,10.93965 11.644531,8.73025 C12.516563,6.52075 12.680042,4.0177125 12.341797,0.9568125 C12.301107,0.5951783 11.90007,0.39673753 11.587891,0.5837656 C9.715807,1.7130656 7.9993245,1.6786059 6.8515625,0.6404062 C6.6612559,0.46871709 6.3719472,0.46871709 6.1816406,0.6404062 C5.0338816,1.6790059 3.3193316,1.7134656 1.4472656,0.5837656 C1.361051,0.5312483 1.2609599,0.50605534 1.1601562,0.5115 L1.1601562,0.5115 Z M6.515625,1.5857188 C7.835896,2.5573188 9.607306,2.4744437 11.365234,1.6638438 C11.599436,4.3217437 11.448934,6.5030625 10.714844,8.3630625 C9.964735,10.263562 8.589312,11.912519 6.515625,13.585719 C4.43862,11.912119 3.041732,10.266075 2.28125,8.370875 C1.535785,6.513075 1.3878164,4.3334906 1.6621094,1.6618906 C3.4213394,2.4748906 5.193988,2.5573189 6.515625,1.5857188 L6.515625,1.5857188 Z M8.732422,5.5115 C8.60238318,5.51562869 8.4790735,5.5702773 8.3886719,5.6638438 L5.75,8.3025156 L4.6113281,7.1638438 C4.48591915,7.03322634 4.29969536,6.98061119 4.12447615,7.02628999 C3.94925693,7.0719688 3.8124219,7.20880383 3.76674309,7.38402305 C3.72106429,7.55924226 3.77367944,7.74546605 3.9042969,7.870875 L5.3964844,9.3650156 C5.49033445,9.45934709 5.61791173,9.51238262 5.7509766,9.51238262 C5.88404147,9.51238262 6.01161875,9.45934709 6.1054688,9.3650156 L9.095703,6.3689219 C9.24284547,6.22506635 9.28683733,6.00575798 9.20655879,5.81628323 C9.12628025,5.62680847 8.93812446,5.50585872 8.732422,5.5115 L8.732422,5.5115 Z"></path>
                </g>
            </g>
        </g>
    </g>
</svg>