<?xml version="1.0" encoding="UTF-8" standalone="no"?>
<svg width="22px" height="22px" viewBox="0 0 22 22" version="1.1" xmlns="http://www.w3.org/2000/svg" xmlns:xlink="http://www.w3.org/1999/xlink">
    <!-- Generator: Sketch 40.1 (33804) - http://www.bohemiancoding.com/sketch -->
    <title>Group</title>
    <desc>Created with Sketch.</desc>
    <defs>
        <linearGradient x1="50%" y1="0%" x2="50%" y2="100%" id="linearGradient-1">
            <stop stop-color="#EB040D" offset="0%"></stop>
            <stop stop-color="#C90609" offset="100%"></stop>
        </linearGradient>
    </defs>
    <g id="Page-1" stroke="none" stroke-width="1" fill="none" fill-rule="evenodd">
        <g id="Group">
            <rect id="Rectangle" fill="url(#linearGradient-1)" x="0" y="0" width="22" height="22" rx="4"></rect>
            <path d="M10.999401,3.82351641 C10.5094027,3.82351641 10.0739152,4.13934967 9.92311189,4.60598621 L8.67655138,8.4406124 L4.64424861,8.4406124 C4.15425029,8.4406124 3.71876279,8.75644567 3.56795952,9.22323196 C3.41580846,9.68911972 3.582336,10.199934 3.97873745,10.4885118 L7.24144934,12.8595825 L5.99488884,16.6948078 C5.84273777,17.1606955 6.00926531,17.6715098 6.40566676,17.9600876 C6.60454139,18.1044514 6.83845868,18.1764836 7.07117792,18.1764836 C7.30509521,18.1764836 7.53916226,18.1044514 7.73668909,17.9600876 L10.999401,15.5891667 L14.2621129,17.9600876 C14.4596397,18.1044514 14.6937067,18.1764836 14.927624,18.1764836 C15.1603433,18.1764836 15.3942606,18.1044514 15.5931352,17.9600876 C15.9895366,17.6715098 16.1559144,17.1606955 16.0039131,16.694059 L14.7573526,12.8595825 L18.0212625,10.4892606 C18.417664,10.2012818 18.5841915,9.69046752 18.4320405,9.22383098 C18.2798894,8.75719444 17.8457497,8.44121142 17.3556016,8.44121142 L13.3222506,8.44121142 L12.0756901,4.60598621 C11.923539,4.13934967 11.4893993,3.82411543 10.999401,3.82351641 L10.999401,3.82351641 L10.999401,3.82351641 Z" id="Shape" fill="#FFFFFF"></path>
        </g>
    </g>
</svg>