<?xml version="1.0" encoding="UTF-8" standalone="no"?>
<svg width="125px" height="118px" viewBox="0 0 125 118" version="1.1" xmlns="http://www.w3.org/2000/svg" xmlns:xlink="http://www.w3.org/1999/xlink">
    <!-- Generator: Sketch 40.1 (33804) - http://www.bohemiancoding.com/sketch -->
    <title>Group 3</title>
    <desc>Created with Sketch.</desc>
    <defs>
        <polygon id="path-1" points="16.9097272 89.8440173 7.61586394 108.221689 11.8054018 110.519686 22.7320162 90.7086805 19.6246822 63.2595142 10.8948154 65.0439275"></polygon>
        <mask id="mask-2" maskContentUnits="userSpaceOnUse" maskUnits="objectBoundingBox" x="-0.78" y="-0.78" width="16.6761522" height="48.8201719">
            <rect x="6.83586394" y="62.4795142" width="16.6761522" height="48.8201719" fill="white"></rect>
            <use xlink:href="#path-1" fill="black"></use>
        </mask>
        <path d="M14.1853198,72.8054429 L24.8718447,87.4767026 L26.4955664,112.589774 L32.001096,112.589774 L31.8151977,87.1091071 L24.6775443,62.2092415 L10.7666821,65.1636586 C10.7666821,65.1636586 11.051306,68.5413357 14.1853198,72.8054429 Z" id="path-3"></path>
        <mask id="mask-4" maskContentUnits="userSpaceOnUse" maskUnits="objectBoundingBox" x="-0.78" y="-0.78" width="22.7944139" height="51.9405322">
            <rect x="9.9866821" y="61.4292415" width="22.7944139" height="51.9405322" fill="white"></rect>
            <use xlink:href="#path-3" fill="black"></use>
        </mask>
        <polygon id="path-5" points="91.9055012 76.0287299 90.5874089 106.256629 95.3650995 106.256629 98.5537275 78.1880906 110.268469 63.0442083 110.268469 53.8070597 101.350604 56.1796258"></polygon>
        <mask id="mask-6" maskContentUnits="userSpaceOnUse" maskUnits="objectBoundingBox" x="-0.78" y="-0.78" width="21.2410605" height="54.0095694">
            <rect x="89.8074089" y="53.0270597" width="21.2410605" height="54.0095694" fill="white"></rect>
            <use xlink:href="#path-5" fill="black"></use>
        </mask>
        <polygon id="path-7" points="107.277293 54.2177163 104.240954 81.9113074 118.400731 104.051056 122.651185 101.699496 111.84808 80.3674065 116.635223 59.2978855 116.635223 51.7065143"></polygon>
        <mask id="mask-8" maskContentUnits="userSpaceOnUse" maskUnits="objectBoundingBox" x="-0.78" y="-0.78" width="19.9702305" height="53.9045422">
            <rect x="103.460954" y="50.9265143" width="19.9702305" height="53.9045422" fill="white"></rect>
            <use xlink:href="#path-7" fill="black"></use>
        </mask>
    </defs>
    <g id="Page-1" stroke="none" stroke-width="1" fill="none" fill-rule="evenodd">
        <g id="Group-7" transform="translate(-398.000000, -28.000000)">
            <g id="Group-3" transform="translate(397.812500, 28.644666)">
                <path d="M79.0497446,49.7873927 C79.3217652,49.7821413 79.5979869,49.723326 79.8616054,49.6046452 L91.3967507,44.4352029 C91.8042565,44.2524554 92.1424443,43.942625 92.3598508,43.5529738 L96.6407624,35.8933349 C97.2005578,34.8913747 96.8424148,33.625796 95.8404546,33.0660007 C94.8395447,32.5062053 93.573966,32.8643483 93.0141707,33.8663085 L89.0693463,40.9241412 L78.1622641,45.8131607 C77.1151422,46.2826326 76.6467206,47.512502 77.1161925,48.5585736 C77.4669836,49.342077 78.2431351,49.8010462 79.0497446,49.7873927" id="Fill-82" fill="#FFFFFF"></path>
                <path d="M42.0179043,48.53243 C41.7721405,48.6500605 41.4990696,48.7204288 41.2102446,48.7319818 L28.5807151,49.2518668 C28.1332989,49.2707717 27.6932347,49.144739 27.324589,48.8926735 L20.0756066,43.9469393 C19.1282606,43.3010216 18.8835471,42.0081359 19.5305151,41.0607899 C20.1764328,40.1123936 21.4693185,39.8687303 22.4166645,40.514648 L29.0974493,45.0717814 L41.0390501,44.5802537 C42.185948,44.5329915 43.1532491,45.424673 43.2005114,46.5705206 C43.2351704,47.4285934 42.7467936,48.18584 42.0179043,48.53243" id="Fill-80" fill="#FFFFFF"></path>
                <g id="Group-2" transform="translate(63.898515, 57.744149) rotate(-176.000000) translate(-63.898515, -57.744149) translate(24.398515, 23.244149)" fill="#45B154">
                    <path d="M7.2596414,68.4912252 C7.2596414,68.4912252 2.18647401,68.5360114 3.63641483,63.4161077 C5.08635566,58.2955549 25.5376734,33.5297734 27.9128456,31.0061697 C30.288993,28.4815925 33.5806187,30.1938523 34.7486989,31.9366187 C35.9158037,33.6793852 13.7528405,67.6964328 7.2596414,68.4912252" id="Fill-64"></path>
                    <path d="M62.3489898,38.3592142 C62.3489898,38.3592142 63.5225966,43.5819963 59.3853887,43.9750112 C55.2478558,44.3683507 32.2139528,32.3835051 29.8010693,30.8610997 C27.3881857,29.3386943 27.9216729,25.3072894 28.9571127,23.4580747 C29.9915772,21.6078863 60.2976161,31.9466776 62.3489898,38.3592142" id="Fill-65"></path>
                    <path d="M78.9034389,22.5813196 L77.0555771,21.3240613 L63.5717777,34.6881912 L34.1246499,20.8606218 L33.3372605,0.794143275 L31.237122,0.197643341 L29.7169598,23.4212227 L0.682382464,61.6764056 C-0.11768578,62.7318016 -0.0484397271,64.3028877 0.836804413,65.1872524 C1.72204855,66.0712925 3.08811388,65.9330396 3.88850722,64.8786172 L25.1694772,36.8389013 C25.2975662,36.935938 25.4360583,37.022265 25.5865791,37.0930142 L56.6270162,51.6696162 C57.6354728,52.1437655 58.7336567,51.7874233 59.0802121,50.8754729 C59.3919819,50.0547176 58.9875589,49.0645537 58.1692851,48.5287422 L64.3012995,40.8553775 C65.4163885,41.2302183 66.6511139,40.5665391 67.138437,39.2829932 C67.3972157,38.6011399 67.3968906,37.8725532 67.1855764,37.2455468 L78.9034389,22.5813196 L78.9034389,22.5813196 Z M59.5746874,38.6507942 L52.3795999,45.7821813 L34.7787487,37.5171847 L34.3583959,26.8090697 L59.5746874,38.6507942 L59.5746874,38.6507942 Z M29.1850981,31.5482909 L28.9728086,34.790096 L27.3148045,34.0118551 L29.1850981,31.5482909 L29.1850981,31.5482909 Z" id="Fill-66"></path>
                </g>
                <path d="M17.8183716,45.5874899 L12.9956778,39.8344917 C11.7637079,38.9942736 11.4465256,37.3138372 12.2867438,36.0818673 C13.1269619,34.8488471 14.8073983,34.5316648 16.0393682,35.371883 L23.7774501,40.8260949 L19.6186104,46.750039" id="Fill-81" fill="#40B34F"></path>
                <path d="M96.3523559,36.705315 L102.744316,25.2678451 C103.472155,23.9655069 103.006884,22.3197296 101.704546,21.5929408 C100.402207,20.8640516 98.7574804,21.3303727 98.0296414,22.6327108 L91.6376816,34.0701808 L96.3523559,36.705315" id="Fill-83" fill="#40B24F"></path>
                <path d="M16.0244734,20.0095028 C18.0010866,24.1528287 16.7544129,28.8696035 13.2412507,30.5447884 C9.72808841,32.2199734 5.27808289,30.2192039 3.3025199,26.0748277 C1.32695692,21.9315019 2.57363064,17.2136768 6.08679289,15.5384918 C9.59995514,13.8643571 14.0489104,15.8651266 16.0244734,20.0095028" id="Fill-87" fill="#FFFFFF"></path>
                <path d="M3.43883124,27.9077231 C3.43883124,27.9077231 5.53937669,24.5468504 4.83884478,21.025286 C4.83884478,21.025286 13.7882186,21.6943097 17.2152585,19.9519073 C17.2152585,19.9519073 12.8713306,11.4425977 5.28416042,14.5986672 C5.28416042,14.5986672 1.8119588,16.2454948 1.72478616,18.5981057 C1.72478616,18.5981057 -0.104788917,20.112599 0.331074262,22.3118701 C0.904523168,25.2032709 3.43883124,27.9077231 3.43883124,27.9077231" id="Fill-88" fill="#40B34F"></path>
                <path d="M5.92250854,27.5651093 C6.3667739,28.4977515 5.97187136,29.6131411 5.03922918,30.0584568 C4.10763728,30.5027221 2.99119738,30.1067693 2.54693202,29.1751774 C2.10266665,28.2425352 2.4975692,27.1271456 3.43021137,26.6828802 C4.36180328,26.2375646 5.47824318,26.6335174 5.92250854,27.5651093" id="Fill-89" fill="#FFFFFF"></path>
                <polygon id="Fill-92" stroke="#40B34F" stroke-width="1.3" stroke-linecap="round" stroke-linejoin="round" fill="#40B34F" points="14.0162259 116.111727 14.2945482 115.31562 11.3201758 110.801548 7.41048039 108.421241 5.51531849 111.449566"></polygon>
                <g id="Fill-93">
                    <use fill="#40B34F" fill-rule="evenodd" xlink:href="#path-1"></use>
                    <use stroke="#40B34F" mask="url(#mask-2)" stroke-width="1.56" stroke-linecap="round" stroke-linejoin="round" xlink:href="#path-1"></use>
                </g>
                <path d="M11.3239858,33.0345328 C6.95695185,33.9272646 3.92166368,37.1263953 4.54657595,40.1805884 L9.7191691,65.4879599 L25.5362763,62.2552204 L20.3636831,36.9478489 C19.7387709,33.8936559 15.6920701,32.141801 11.3239858,33.0345328" id="Fill-94" fill="#40B34F"></path>
                <g id="Fill-96">
                    <use fill="#40B34F" fill-rule="evenodd" xlink:href="#path-3"></use>
                    <use stroke="#40B34F" mask="url(#mask-4)" stroke-width="1.56" stroke-linecap="round" stroke-linejoin="round" xlink:href="#path-3"></use>
                </g>
                <path d="M31.2029935,67.3560135 L16.4183044,61.881992 C15.8984194,61.6897921 15.4772601,61.2980404 15.2483006,60.7939095 L9.25474666,45.9616208 C8.77897312,44.9176497 8.2107756,41.7822411 9.25474668,41.3064676 C10.299768,40.830694 12.1668004,42.1046472 12.6425739,43.1496685 L18.6721897,58.2858582 L32.645018,63.4595017 C33.7215475,63.8586053 34.2708401,65.0538157 33.8727868,66.1292949 C33.5366995,67.0356803 32.6366158,67.5681686 31.7176271,67.4757446 C31.5453824,67.4589402 31.3731377,67.4190298 31.2029935,67.3560135 Z" id="Fill-97" fill="#FFFFFF"></path>
                <path d="M6.80868018,43.0774963 C6.19111982,41.7205439 6.79082554,40.118878 8.1477779,39.5002674 C9.50578053,38.8827071 12.3788153,38.8836028 12.9963757,40.2405551 L15.0997893,47.130261 L12.5415469,48.5983041 L9.92653509,50.0989243 L6.80868018,43.0774963 Z" id="Fill-98" fill="#40B34F"></path>
                <polyline id="Fill-99" stroke="#40B34F" stroke-width="1.3" stroke-linecap="round" stroke-linejoin="round" fill="#40B34F" points="26.5207729 115.982155 36.2158404 115.982155 36.0772044 115.150339 31.2984635 112.622332 26.5207729 112.622332 26.5207729 115.982155"></polyline>
                <path d="M89.7050442,11.3281217 C90.5662679,16.0911085 94.5068911,19.3658588 98.5063296,18.6422209 C102.505768,17.918583 105.049529,13.470678 104.188305,8.70769126 C103.326031,3.94470446 99.3854079,0.669954119 95.3859694,1.39359202 C91.3865309,2.11722993 88.8427703,6.5651349 89.7050442,11.3281217" id="Fill-101" fill="#FFFFFF"></path>
                <path d="M97.2356352,7.3679462 C97.2356352,7.3679462 86.9167058,14.2356795 84.2857726,8.48753692 C84.2857726,8.48753692 86.848438,9.73421064 87.3326138,8.41821892 C87.3326138,8.41821892 88.7872415,1.28581687 94.8809238,0.420392148 C94.8809238,0.420392148 100.49043,-0.904001754 103.053096,3.68779058 C103.053096,3.68779058 104.930983,6.1706353 104.229401,10.2877044 C104.229401,10.2877044 99.7983007,11.8683648 97.2356352,7.3679462" id="Fill-102" fill="#40B34F"></path>
                <path d="M102.170602,11.8988127 C102.3544,12.9144265 103.326952,13.5897518 104.342566,13.4059541 C105.35923,13.2221564 106.033505,12.2485535 105.849707,11.2329398 C105.66591,10.2162758 104.693357,9.54200075 103.677743,9.72579847 C102.661079,9.9095962 101.986804,10.8821487 102.170602,11.8988127" id="Fill-103" fill="#FFFFFF"></path>
                <polyline id="Fill-106" stroke="#40B34F" stroke-width="1.3" stroke-linecap="round" stroke-linejoin="round" fill="#40B34F" points="124.573184 105.06457 116.072276 109.72673 115.793954 108.930623 118.768327 104.416551 122.957864 102.119605 124.573184 105.06457"></polyline>
                <path d="M100.217103,21.6336707 C104.524271,20.4846723 108.668647,21.9939142 109.472106,25.0050461 L116.794607,51.6221077 L101.197007,55.7864391 L93.8745059,29.1693775 C93.069997,26.1571953 95.9099344,22.7837193 100.217103,21.6336707" id="Fill-107" stroke="#40B34F" stroke-width="1.3" stroke-linecap="round" stroke-linejoin="round" fill="#40B24F"></path>
                <path d="M87.9998762,53.4137731 C88.1666405,53.3665108 88.3302383,53.2961426 88.4875034,53.2037186 L102.122066,45.1743836 C102.601249,44.8929105 102.947443,44.4328911 103.083599,43.8962017 L105.243091,35.3889927 C105.525957,34.2767538 104.848345,33.1466604 103.730602,32.8651873 C102.612859,32.5847645 101.477174,33.2579893 101.195363,34.3712784 L99.2480208,42.0393195 L86.3607312,49.6285902 C85.3685893,50.2125418 85.0403381,51.4865227 85.6271795,52.4748293 C86.1221949,53.305595 87.108004,53.6689894 87.9998762,53.4137731" id="Fill-109" fill="#FFFFFF"></path>
                <path d="M105.276523,36.6504488 L108.486157,29.4549978 C108.851652,28.6358728 107.975724,27.8042557 106.529499,27.5972437 C105.083273,27.3902318 103.614992,27.8863467 103.249497,28.7054717 L100.039863,35.9009227 L105.276523,36.6504488" id="Fill-110" fill="#40B24F"></path>
                <polyline id="Fill-111" stroke="#40B34F" stroke-width="1.3" stroke-linecap="round" stroke-linejoin="round" fill="#40B34F" points="95.0311128 109.680518 85.3360453 109.680518 85.4746813 108.848702 90.2534222 106.320696 95.0311128 106.320696 95.0311128 109.680518"></polyline>
                <g id="Fill-112">
                    <use fill="#40B34F" fill-rule="evenodd" xlink:href="#path-5"></use>
                    <use stroke="#40B34F" mask="url(#mask-6)" stroke-width="1.56" stroke-linecap="round" stroke-linejoin="round" xlink:href="#path-5"></use>
                </g>
                <g id="Fill-113">
                    <use fill="#40B34F" fill-rule="evenodd" xlink:href="#path-7"></use>
                    <use stroke="#40B34F" mask="url(#mask-8)" stroke-width="1.56" stroke-linecap="round" stroke-linejoin="round" xlink:href="#path-7"></use>
                </g>
                <path d="M97.4794854,22.2006118 C97.4794854,22.2006118 100.23028,23.0036189 101.318332,22.7266406 C102.21846,22.4975008 104.216283,20.8242485 104.216283,20.8242485 L101.841081,17.0475144 L95.8387725,18.5495171" id="Fill-100" fill="#FFFFFF"></path>
                <path d="M14.0088739,32.7657378 C14.0088739,32.7657378 12.6564408,34.1965104 11.8409591,34.3285606 C10.8834974,34.4836015 8.67695288,33.9176297 8.67695288,33.9176297 L7.61586394,28.179355 L14.008874,27.5502417" id="Fill-86" fill="#FFFFFF"></path>
            </g>
        </g>
    </g>
</svg>