<?xml version="1.0" encoding="UTF-8" standalone="no"?>
<svg width="199px" height="112px" viewBox="0 0 199 112" version="1.1" xmlns="http://www.w3.org/2000/svg" xmlns:xlink="http://www.w3.org/1999/xlink">
    <!-- Generator: Sketch 40.1 (33804) - http://www.bohemiancoding.com/sketch -->
    <title>Group 6</title>
    <desc>Created with Sketch.</desc>
    <defs></defs>
    <g id="Page-1" stroke="none" stroke-width="1" fill="none" fill-rule="evenodd">
        <g id="Group-7" transform="translate(-694.000000, -32.000000)">
            <g id="Group-6" transform="translate(693.602922, 32.987140)">
                <g id="Group-4" transform="translate(99.518674, 55.193264) scale(-1, 1) translate(-99.518674, -55.193264) translate(0.518674, 0.193264)" stroke="#40B34F" stroke-width="1.404" fill="#40B34F">
                    <path d="M165.30217,95.4599388 C165.30217,91.5535151 168.447241,88.3862493 172.324108,88.3862493 C176.201954,88.3862493 179.347025,91.5535151 179.347025,95.4599388 C179.347025,99.3683321 176.201954,102.536582 172.324108,102.536582 C168.447241,102.536582 165.30217,99.3683321 165.30217,95.4599388 L165.30217,95.4599388 L165.30217,95.4599388 Z M158.696447,95.4599388 C158.696447,103.042478 164.797044,109.188036 172.324108,109.188036 C179.850196,109.188036 185.952746,103.042478 185.952746,95.4599388 C185.952746,87.8793694 179.850196,81.7338117 172.324108,81.7338117 C164.797044,81.7338117 158.696447,87.8793694 158.696447,95.4599388 L158.696447,95.4599388 L158.696447,95.4599388 Z" id="Fill-75"></path>
                    <path d="M18.3815943,95.4599388 C18.3815943,91.5535151 21.5266646,88.3862493 25.403533,88.3862493 C29.2813784,88.3862493 32.4264487,91.5535151 32.4264487,95.4599388 C32.4264487,99.3683321 29.2813784,102.536582 25.403533,102.536582 C21.5266646,102.536582 18.3815943,99.3683321 18.3815943,95.4599388 L18.3815943,95.4599388 L18.3815943,95.4599388 Z M11.7758717,95.4599388 C11.7758717,103.042478 17.876468,109.188036 25.403533,109.188036 C32.9296209,109.188036 39.0321713,103.042478 39.0321713,95.4599388 C39.0321713,87.8793694 32.9296209,81.7338117 25.403533,81.7338117 C17.876468,81.7338117 11.7758717,87.8793694 11.7758717,95.4599388 L11.7758717,95.4599388 L11.7758717,95.4599388 Z" id="Fill-75"></path>
                    <path d="M60.3255227,0.076780381 C58.6931844,0.076780381 57.3719124,1.40881071 57.3719124,3.0521584 L57.3719124,86.3841797 C57.3719124,88.0275271 58.6931844,89.3595574 60.3255227,89.3595574 L108.172995,89.3595574 L156.020466,89.3595574 C158.609308,82.8157673 164.942092,78.1837723 172.361074,78.1837723 C179.781069,78.1837723 186.11588,82.8157673 188.703709,89.3595574 L194.239068,89.3595574 C195.872419,89.3595574 197.192678,88.0275271 197.192678,86.3841797 L197.192678,3.0521584 C197.192678,1.40881071 195.872419,0.076780381 194.239068,0.076780381 L127.282294,0.076780381 L60.3255227,0.076780381 Z" id="Fill-76"></path>
                    <path d="M9.84046055,40.7971005 C10.4605667,35.0045548 15.1052834,18.1025701 15.1052834,18.1025701 C15.8226611,15.695729 17.0456482,13.7359602 19.4399469,13.7359602 L36.2750185,13.7359602 C38.6693172,13.7359602 40.609682,15.6906254 40.609682,18.1025701 L40.609682,43.4111462 C40.609682,45.8230907 38.6693172,47.7777559 36.2750185,47.7777559 L14.1741109,47.7777559 C11.7808254,47.7777559 9.84046055,45.8230907 9.84046055,43.4111462 C9.84046055,43.4111462 9.61450684,42.8936447 9.84046055,40.7971005 L9.84046055,40.7971005 L9.84046055,40.7971005 Z M0.789139854,81.4469914 C0.789139854,85.2818097 3.87447194,88.3888603 7.68224795,88.3888603 L8.82316222,88.3888603 C9.09572522,87.7733699 9.41287101,87.1823772 9.75129496,86.606695 C12.7130111,81.0203334 18.5533573,77.2130744 25.2802932,77.2130744 C32.6992756,77.2130744 39.032059,81.8450694 41.6209009,88.3888603 L49.7177445,88.3888603 L49.7177445,14.1646597 C49.7177445,10.3298413 46.6303859,7.22177055 42.8246364,7.22177055 L16.0546943,7.22177055 C12.249958,7.22177055 10.3055402,10.3369863 9.16361266,14.1646597 C9.16361266,14.1646597 1.77806731,41.0420716 0.789139854,50.251964 C0.431464245,53.5845916 0.789139854,81.4469914 0.789139854,81.4469914 L0.789139854,81.4469914 L0.789139854,81.4469914 Z" id="Fill-77"></path>
                </g>
                <g id="Group-10" transform="translate(38.356380, 24.714821)" fill="#FFFFFF">
                    <path d="M15.8594913,16.838044 L12.3916495,16.838044 L13.7618699,9.79526825 L13.711121,9.79526825 L10.9199313,16.838044 L8.65314698,16.838044 L8.41631876,9.79526825 L8.34865355,9.79526825 L7.2829266,16.838044 L4.10266199,16.838044 L6.18336702,4.82289891 L10.3786097,4.82289891 L10.733852,11.3056466 L10.8015172,11.3056466 L13.2882135,4.82289891 L17.9401962,4.82289891 L15.8594913,16.838044 L15.8594913,16.838044 Z M21.238875,16.838044 L17.6526192,16.838044 L19.7333241,4.82289891 L23.3195801,4.82289891 L21.238875,16.838044 L21.238875,16.838044 Z M30.8811665,10.6098544 L32.4374663,16.838044 L28.4283029,16.838044 L27.5486553,11.5602048 L27.4809901,11.5602048 L26.5675099,16.838044 L23.0320029,16.838044 L25.112708,4.82289891 L28.6482148,4.82289891 L27.8193161,9.59162172 L27.9038976,9.59162172 L30.4244265,4.82289891 L34.4674225,4.82289891 L30.8811665,10.6098544 L30.8811665,10.6098544 Z M41.2339429,7.94547897 L38.4089206,7.94547897 L38.1551761,9.30312247 L40.7602864,9.30312247 L40.2697137,12.2050855 L37.6646033,12.2050855 L37.4108588,13.6645522 L40.5572909,13.6645522 L40.0159692,16.838044 L33.486277,16.838044 L35.566982,4.82289891 L41.7752645,4.82289891 L41.2339429,7.94547897 L41.2339429,7.94547897 Z M44.3127097,9.33706356 L42.1643394,9.33706356 L43.8559695,4.82289891 L46.2580843,4.82289891 L44.3127097,9.33706356 L44.3127097,9.33706356 Z M52.3479527,8.38671311 C52.1675112,8.20569307 51.9419627,8.0529597 51.6713006,7.92850843 C51.4006384,7.80405715 51.135619,7.74183245 50.8762345,7.74183245 C50.7747361,7.74183245 50.67042,7.75314603 50.5632829,7.77577353 C50.4561458,7.79840104 50.3574684,7.84082698 50.2672476,7.90305261 C50.1770269,7.96527824 50.1037236,8.04447333 50.0473357,8.14064023 C49.9909477,8.23680712 49.9627542,8.35842813 49.9627542,8.50550691 C49.9627542,8.70915446 50.0360574,8.87320141 50.1826661,8.99765269 C50.3292748,9.12210396 50.5830168,9.2918077 50.9438996,9.506769 C51.1468963,9.61990653 51.3696254,9.76698309 51.6120936,9.94800314 C51.8545617,10.1290232 52.0857489,10.349638 52.305662,10.6098544 C52.525575,10.8700707 52.708833,11.1811942 52.8554417,11.5432342 C53.0020504,11.9052743 53.0753537,12.3238769 53.0753537,12.7990545 C53.0753537,13.5570759 52.9400246,14.2076069 52.6693624,14.7506671 C52.3987003,15.2937271 52.0462808,15.7406137 51.6120936,16.09134 C51.1779063,16.4420663 50.6873385,16.6994503 50.1403754,16.8634998 C49.5934122,17.0275491 49.0492767,17.1095726 48.5079524,17.1095726 C47.6846883,17.1095726 46.9375591,16.99078 46.2665424,16.7531912 C45.5955258,16.5156024 45.0683063,16.2214493 44.6848682,15.8707229 L46.7148244,13.1724064 C46.9403762,13.3647402 47.208215,13.5259588 47.5183487,13.6560669 C47.8284824,13.7861751 48.1414309,13.8512282 48.4572034,13.8512282 C48.6827553,13.8512282 48.8885682,13.7918319 49.0746484,13.6730374 C49.2607286,13.5542431 49.3537674,13.3647406 49.3537674,13.1045242 C49.3537674,12.9121905 49.2804642,12.7340016 49.1338555,12.5699522 C48.9872467,12.4059027 48.7165887,12.2107434 48.321873,11.9844684 C48.0624885,11.8373896 47.8087465,11.6705143 47.5606395,11.4838373 C47.3125325,11.2971604 47.0926228,11.0822024 46.9009038,10.8389567 C46.7091847,10.595711 46.5569395,10.310043 46.4441636,9.98194423 C46.3313877,9.65384541 46.2750006,9.27484038 46.2750006,8.84491779 C46.2750006,8.26791642 46.3793167,7.71920765 46.5879521,7.19877504 C46.7965876,6.67834243 47.0982587,6.22297073 47.4929743,5.83264627 C47.88769,5.44232181 48.3669803,5.13119828 48.9308599,4.89926636 C49.4947394,4.66733443 50.1319137,4.55137021 50.8424019,4.55137021 C51.6318332,4.55137021 52.3366721,4.66733443 52.9569395,4.89926636 C53.577207,5.13119828 54.0508587,5.42252304 54.3779088,5.77324937 L52.3479527,8.38671311 L52.3479527,8.38671311 Z" id="MIKE’S" transform="translate(29.240285, 10.830471) rotate(-10.000000) translate(-29.240285, -10.830471) "></path>
                    <path d="M9.50963892,30.1481162 L5.97413201,30.1481162 L6.78611445,25.4981872 L5.00990284,25.4981872 L4.19792039,30.1481162 L0.679329761,30.1481162 L2.76003479,18.1329712 L6.26170912,18.1329712 L5.53430817,22.307725 L7.32743609,22.307725 L8.03792073,18.1329712 L11.590344,18.1329712 L9.50963892,30.1481162 L9.50963892,30.1481162 Z M16.8513136,28.3831797 L14.7029434,28.3831797 L14.0770402,30.1481162 L10.3892866,30.1481162 L15.4303443,18.1329712 L19.8116663,18.1329712 L20.4375695,30.1481162 L16.8513136,30.1481162 L16.8513136,28.3831797 L16.8513136,28.3831797 Z M15.5487584,25.6848632 L16.9020625,25.6848632 L16.9020625,21.7307265 L16.8343973,21.7307265 L15.5487584,25.6848632 L15.5487584,25.6848632 Z M30.4520197,25.4642461 C30.3279661,26.1770125 30.1616243,26.8388571 29.9529888,27.4497997 C29.7443534,28.0607423 29.4539597,28.5896523 29.0817993,29.0365456 C28.7096389,29.4834387 28.2388064,29.8369883 27.6692881,30.0972045 C27.0997698,30.3574209 26.4033891,30.4875271 25.580125,30.4875271 C24.9147471,30.4875271 24.3311405,30.3970184 23.8292878,30.2159984 C23.327435,30.0349784 22.907351,29.7832511 22.5690234,29.4608092 C22.2306956,29.1383672 21.9741343,28.7537054 21.7993317,28.3068122 C21.624529,27.8599189 21.537129,27.3706065 21.537129,26.8388601 C21.537129,26.6125851 21.5484064,26.383485 21.5709617,26.1515531 C21.5935168,25.9196212 21.627349,25.6848643 21.6724594,25.4472755 L22.941182,18.1329712 L26.5105215,18.1329712 L25.2925478,25.1927175 C25.258715,25.3850513 25.2305215,25.5632401 25.2079663,25.7272896 C25.1854111,25.8913389 25.1741338,26.0412439 25.1741338,26.1770089 C25.1741338,26.448539 25.2277015,26.663497 25.3348386,26.8218896 C25.4419757,26.9802822 25.6083176,27.0594773 25.8338695,27.0594773 C26.2173076,27.0594773 26.4795076,26.8926019 26.6204775,26.5588461 C26.7614474,26.2250904 26.8826797,25.7697187 26.9841779,25.1927175 L28.2021516,18.1329712 L31.7376586,18.1329712 L30.4520197,25.4642461 L30.4520197,25.4642461 Z M37.8275269,30.1481162 L31.1625044,30.1481162 L33.2432093,18.1329712 L36.8125489,18.1329712 L35.306998,26.8728012 L38.4026811,26.8728012 L37.8275269,30.1481162 L37.8275269,30.1481162 Z M42.5133423,30.1481162 L38.9270865,30.1481162 L41.0077916,18.1329712 L44.5940474,18.1329712 L42.5133423,30.1481162 L42.5133423,30.1481162 Z M53.0860305,30.1481162 L49.3982769,30.1481162 L48.4002152,24.2593375 L48.3494662,24.2593375 L47.4529023,30.1481162 L44.3064702,30.1481162 L46.3871753,18.1329712 L50.1595104,18.1329712 L51.1068233,24.1914553 L51.1744885,24.1914553 L52.1218013,18.1329712 L55.1667356,18.1329712 L53.0860305,30.1481162 L53.0860305,30.1481162 Z M62.5591591,21.8834614 C62.3899953,21.6911276 62.2010985,21.5355658 61.992463,21.4167714 C61.7838276,21.297977 61.5047115,21.2385808 61.1551062,21.2385808 C60.7378353,21.2385808 60.3741384,21.3658585 60.0640048,21.6204179 C59.753871,21.8749774 59.4973096,22.1974145 59.2943131,22.5877389 C59.0913164,22.9780634 58.9390712,23.4079795 58.8375729,23.8775003 C58.7360746,24.347021 58.6853262,24.7910791 58.6853262,25.209688 C58.6853262,25.4699042 58.7107003,25.7159746 58.7614496,25.9479066 C58.8121987,26.1798386 58.89396,26.3806546 59.0067359,26.550361 C59.1195118,26.7200672 59.2689376,26.8558302 59.4550179,26.957654 C59.6410981,27.0594778 59.8751047,27.1103889 60.1570443,27.1103889 C60.2810979,27.1103889 60.3995108,27.0990752 60.5122867,27.0764478 C60.6250625,27.0538202 60.7209207,27.0142228 60.7998638,26.957654 L61.0197757,25.7697159 L59.6664716,25.7697159 L60.2077933,22.6641063 L64.6736968,22.6641063 L63.4895557,29.4692944 C63.0046193,29.7973932 62.463303,30.0491205 61.8655908,30.2244836 C61.2678785,30.3998468 60.5968719,30.4875271 59.8525509,30.4875271 C59.0856749,30.4875271 58.4146683,30.3687344 57.8395111,30.1311456 C57.264354,29.8935568 56.787883,29.5598062 56.4100837,29.1298836 C56.0322845,28.699961 55.7503488,28.1880214 55.5642686,27.5940494 C55.3781884,27.0000773 55.2851496,26.3523747 55.2851496,25.6509221 C55.2851496,24.5987431 55.4317561,23.6003195 55.7249735,22.6556211 C56.0181908,21.7109228 56.4326361,20.8765461 56.9683217,20.1524659 C57.5040072,19.4283857 58.1411815,18.8542214 58.8798636,18.4299557 C59.6185458,18.00569 60.4277007,17.7935604 61.3073528,17.7935604 C61.769734,17.7935604 62.189818,17.8331578 62.5676172,17.9123542 C62.9454166,17.9915504 63.2781005,18.0962011 63.5656791,18.2263092 C63.8532576,18.3564173 64.1013608,18.5063223 64.3099963,18.6760285 C64.5186317,18.8457349 64.6906124,19.0210954 64.8259435,19.2021155 L62.5591591,21.8834614 L62.5591591,21.8834614 Z" id="HAULING" transform="translate(32.752637, 24.140544) rotate(-10.000000) translate(-32.752637, -24.140544) "></path>
                    <path d="M26.3812074,32.9471364 C26.2609131,32.8264564 26.1105475,32.7246341 25.930106,32.6416666 C25.7496646,32.558699 25.5729851,32.517216 25.400062,32.517216 C25.3323965,32.517216 25.2628523,32.5247583 25.1914276,32.5398433 C25.1200029,32.5549284 25.0542179,32.5832123 24.9940707,32.624696 C24.9339236,32.6661799 24.8850547,32.7189766 24.8474628,32.7830878 C24.8098709,32.8471991 24.7910752,32.9282798 24.7910752,33.0263323 C24.7910752,33.1620973 24.839944,33.2714619 24.9376831,33.3544294 C25.0354221,33.437397 25.2045835,33.5505328 25.4451721,33.6938404 C25.5805032,33.7692653 25.7289892,33.8673164 25.8906347,33.9879964 C26.0522802,34.1086765 26.2064049,34.255753 26.3530135,34.4292305 C26.4996223,34.6027081 26.6217944,34.8101238 26.7195334,35.0514839 C26.8172726,35.2928438 26.8661413,35.5719123 26.8661413,35.8886973 C26.8661413,36.394045 26.7759221,36.8277323 26.5954806,37.1897723 C26.4150392,37.5518124 26.1800929,37.8497368 25.8906347,38.0835543 C25.6011765,38.3173719 25.2741314,38.4889612 24.9094892,38.5983274 C24.5448472,38.7076937 24.1820901,38.762376 23.8212072,38.762376 C23.2723645,38.762376 22.7742784,38.6831809 22.3269339,38.5247885 C21.8795895,38.3663959 21.52811,38.1702939 21.2724845,37.9364762 L22.6257886,36.1375986 C22.7761564,36.2658212 22.9547157,36.3733002 23.1614715,36.4600389 C23.3682273,36.5467777 23.5768596,36.5901465 23.7873746,36.5901465 C23.9377425,36.5901465 24.0749511,36.5505489 24.1990046,36.4713527 C24.3230581,36.3921563 24.3850839,36.2658214 24.3850839,36.0923439 C24.3850839,35.9641214 24.3362151,35.8453287 24.238476,35.7359624 C24.1407369,35.6265961 23.9602981,35.4964899 23.6971543,35.3456399 C23.5242312,35.2475875 23.35507,35.1363371 23.1896653,35.0118859 C23.0242606,34.8874347 22.8776541,34.7441292 22.7498414,34.5819654 C22.6220288,34.4198017 22.520532,34.2293564 22.445348,34.0106237 C22.3701641,33.7918912 22.3325727,33.5392212 22.3325727,33.2526061 C22.3325727,32.8679386 22.4021168,32.5021328 22.5412071,32.1551777 C22.6802974,31.8082227 22.8814114,31.5046414 23.1445552,31.2444252 C23.407699,30.9842088 23.7272259,30.7767931 24.1031456,30.6221719 C24.4790653,30.4675506 24.9038482,30.3902411 25.3775069,30.3902411 C25.9037944,30.3902411 26.373687,30.4675506 26.7871986,30.6221719 C27.2007104,30.7767931 27.5164781,30.9710097 27.7345115,31.2048272 L26.3812074,32.9471364 L26.3812074,32.9471364 Z M32.4034106,32.6529804 L30.5200625,32.6529804 L30.3508994,33.558076 L32.0876397,33.558076 L31.7605911,35.492718 L30.023851,35.492718 L29.854688,36.4656958 L31.9523092,36.4656958 L31.5914281,38.5813569 L27.2383,38.5813569 L28.6254367,30.5712602 L32.7642918,30.5712602 L32.4034106,32.6529804 L32.4034106,32.6529804 Z M38.9894905,32.8226857 C38.9894905,33.4034584 38.8748367,33.8937136 38.6455257,34.2934661 C38.4162147,34.6932188 38.0910491,34.9836008 37.670019,35.1646208 L38.4256139,38.5813569 L35.9332788,38.5813569 L35.5047325,35.6624234 L35.2115166,35.6624234 L34.7040276,38.5813569 L32.4485207,38.5813569 L33.8356574,30.5712602 L36.5986533,30.5712602 C37.3730478,30.5712602 37.9651124,30.7598199 38.3748649,31.136945 C38.7846174,31.5140701 38.9894905,32.0759781 38.9894905,32.8226857 L38.9894905,32.8226857 L38.9894905,32.8226857 Z M36.6099308,33.1281555 C36.6099308,32.8943379 36.5479049,32.7397191 36.4238515,32.664294 C36.299798,32.588869 36.1813851,32.5511571 36.0686092,32.5511571 L35.7528383,32.5511571 L35.493455,34.0332512 L35.7415607,34.0332512 C35.9671125,34.0332512 36.1682265,33.9653697 36.3449088,33.8296046 C36.5215911,33.6938396 36.6099308,33.4600257 36.6099308,33.1281555 L36.6099308,33.1281555 L36.6099308,33.1281555 Z M43.1621781,38.5813569 L40.1736316,38.5813569 L39.6661425,30.5712602 L42.1923102,30.5712602 L42.1923102,35.7303056 L42.2261427,35.7303056 L43.9064954,30.5712602 L46.4890507,30.5712602 L43.1621781,38.5813569 L43.1621781,38.5813569 Z M48.0566279,38.5813569 L45.6657906,38.5813569 L47.0529274,30.5712602 L49.4437646,30.5712602 L48.0566279,38.5813569 L48.0566279,38.5813569 Z M54.2479941,33.0942145 C54.1577734,32.9810769 54.0562766,32.8811403 53.9435007,32.7944015 C53.8307247,32.7076627 53.6615635,32.664294 53.4360117,32.664294 C53.2104598,32.664294 53.0093458,32.7453747 52.8326636,32.9075384 C52.6559813,33.0697022 52.5037361,33.2771179 52.3759234,33.5297918 C52.2481107,33.7824655 52.1503731,34.0615339 52.0827075,34.3670052 C52.0150419,34.6724766 51.9812098,34.9685153 51.9812098,35.2551303 C51.9812098,35.6247129 52.0488742,35.9226373 52.1842053,36.1489123 C52.3195364,36.3751874 52.5413257,36.4883232 52.8495798,36.4883232 C53.0300213,36.4883232 53.1841461,36.4487256 53.3119588,36.3695294 C53.4397715,36.2903332 53.5563048,36.2054812 53.6615623,36.1149712 L54.6765404,37.9364762 C54.4284334,38.1778363 54.1164248,38.3833663 53.7405051,38.5530727 C53.3645854,38.7227789 52.9285251,38.8076309 52.4323111,38.8076309 C51.9586523,38.8076309 51.5413877,38.7303214 51.1805048,38.5757001 C50.819622,38.4210787 50.5170111,38.2042351 50.2726633,37.9251626 C50.0283155,37.64609 49.8422381,37.3104537 49.7144254,36.9182437 C49.5866127,36.5260336 49.5227073,36.088575 49.5227073,35.6058549 C49.5227073,34.9119448 49.6185653,34.246329 49.8102845,33.6089876 C50.0020034,32.9716462 50.2726616,32.4116239 50.6222668,31.9289037 C50.9718722,31.4461837 51.3910164,31.0615219 51.879712,30.7749068 C52.3684076,30.4882917 52.9059645,30.3449863 53.4923993,30.3449863 C53.8156903,30.3449863 54.0995053,30.3713847 54.3438531,30.4241822 C54.5882009,30.4769797 54.8024719,30.5486324 54.9866725,30.6391424 C55.1708732,30.7296524 55.3287572,30.8314747 55.460329,30.9446123 C55.5919008,31.0577497 55.7103137,31.1746568 55.8155713,31.2953368 L54.2479941,33.0942145 L54.2479941,33.0942145 Z M60.3040298,32.6529804 L58.4206816,32.6529804 L58.2515186,33.558076 L59.9882589,33.558076 L59.6612104,35.492718 L57.9244702,35.492718 L57.7553072,36.4656958 L59.8529285,36.4656958 L59.4920474,38.5813569 L55.1389193,38.5813569 L56.5260559,30.5712602 L60.6649109,30.5712602 L60.3040298,32.6529804 L60.3040298,32.6529804 Z" id="SERVICE" transform="translate(40.968698, 34.576309) rotate(-10.000000) translate(-40.968698, -34.576309) "></path>
                </g>
            </g>
        </g>
    </g>
</svg>