<?xml version="1.0" encoding="UTF-8" standalone="no"?>
<svg width="145px" height="100px" viewBox="0 0 145 100" version="1.1" xmlns="http://www.w3.org/2000/svg" xmlns:xlink="http://www.w3.org/1999/xlink">
    <!-- Generator: Sketch 40.1 (33804) - http://www.bohemiancoding.com/sketch -->
    <title>Group</title>
    <desc>Created with Sketch.</desc>
    <defs></defs>
    <g id="Page-1" stroke="none" stroke-width="1" fill="none" fill-rule="evenodd">
        <g id="Group-7" transform="translate(-31.000000, -39.000000)">
            <g id="Group" transform="translate(27.985366, 38.144666)">
                <path d="M51.9044229,27.6558966 L51.1293222,23.2842911 C50.6622155,20.6505233 48.1361703,18.8916379 45.4873509,19.3560903 C42.8385315,19.8205427 41.0695942,22.3322339 41.5367009,24.9660016 L40.7968801,20.7932968 C40.3297735,18.1591783 37.8037283,16.4006437 35.1545561,16.8650961 C32.5057366,17.3295485 30.7371522,19.8412396 31.2039061,22.4750074 L28.948811,9.75764152 C28.4817043,7.12352296 25.9556591,5.36498835 23.3068397,5.82944074 C20.6576675,6.29389313 18.889083,8.80558428 19.3561897,11.4393521 L25.3089775,45.0076133 L16.9867876,39.2135347 C14.783554,37.6795088 11.746655,38.2120154 10.2038623,40.4027292 C8.66106967,42.5934431 9.19661947,45.6130852 11.399853,47.1471111 L38.9482102,70.9053942 L63.2370519,66.6467447 L63.4328557,65.6634667 C65.2162577,56.7020613 65.312572,47.4894869 63.7172121,38.493002 L61.4970442,25.9741861 C61.0302903,23.3404183 58.5042452,21.5815329 55.8550729,22.0459853 C53.2062535,22.5104377 51.4376691,25.0221288 51.9044229,27.6558966 Z" id="Fill-1189" stroke="#45B154" stroke-width="2.6" stroke-linecap="round" stroke-linejoin="round" fill="#45B154" transform="translate(37.084387, 38.330221) rotate(100.000000) translate(-37.084387, -38.330221) "></path>
                <path d="M74.5825422,26.8506879 L84.7939717,20.3511673" id="Line" stroke="#45B154" stroke-width="2.6" stroke-linecap="round" stroke-linejoin="round"></path>
                <path d="M75.1733416,41.5715434 L85.384771,35.0720228" id="Line" stroke="#45B154" stroke-width="2.6" stroke-linecap="round" stroke-linejoin="round" transform="translate(80.279056, 38.321783) scale(1, -1) translate(-80.279056, -38.321783) "></path>
                <path d="M76.3549402,30.7528099 L87.9846238,30.7528099" id="Line" stroke="#45B154" stroke-width="2.6" stroke-linecap="round" stroke-linejoin="round"></path>
                <path d="M130.937585,30.1982598 L130.322534,96.8115748 L123.180628,96.7525846 L123.152578,99.7785935 L138.810135,99.9087501 L138.838818,96.8826341 L131.696637,96.82356 L132.310911,30.2096721 L147.537788,30.3362076 L137.689223,1.09093104 L125.884051,0.994808012 L115.497927,30.069956 L130.937585,30.1982598 Z" id="Combined-Shape" fill="#45B154"></path>
                <polyline id="Fill-58" fill="#45B154" transform="translate(139.841117, 15.746115) rotate(-73.000000) translate(-139.841117, -15.746115) " points="126.791377 23.2308808 152.645813 7.85192498 152.890857 8.26134906 127.036133 23.6403049 126.791377 23.2308808"></polyline>
                <polyline id="Fill-59" fill="#45B154" transform="translate(136.610225, 15.569159) rotate(-73.000000) translate(-136.610225, -15.569159) " points="123.185441 21.6130447 149.831669 9.09374092 150.035009 9.52527274 123.388206 22.0445766 123.185441 21.6130447"></polyline>
                <polyline id="Fill-60" fill="#45B154" transform="translate(133.567249, 15.752210) rotate(-73.000000) translate(-133.567249, -15.752210) " points="119.769147 20.3570826 147.207165 10.6977179 147.365351 11.1473378 119.927332 20.8067025 119.769147 20.3570826"></polyline>
                <polyline id="Fill-61" fill="#45B154" transform="translate(130.331451, 15.577062) rotate(-73.000000) translate(-130.331451, -15.577062) " points="116.161469 18.7449308 144.389265 11.9455052 144.501433 12.409768 116.273349 19.2086194 116.161469 18.7449308"></polyline>
                <polyline id="Fill-62" fill="#45B154" transform="translate(127.009040, 15.675885) rotate(-73.000000) translate(-127.009040, -15.675885) " points="112.46689 17.4094772 141.486477 13.4699907 141.55119 13.9422927 112.531314 17.8817791 112.46689 17.4094772"></polyline>
                <polyline id="Fill-63" fill="#45B154" transform="translate(123.958748, 15.858805) rotate(-73.000000) translate(-123.958748, -15.858805) " points="109.045293 16.1601308 138.855521 15.0808706 138.872203 15.5577664 109.062262 16.6367395 109.045293 16.1601308"></polyline>
                <path d="M101.026961,79.4734516 L107.763762,98.7593968 L105.847304,98.9995964 L98.2696238,82.9304917 L69.509304,81.8490207 L63.1483072,97.3932002 L61.2088856,97.0081007 L65.6823685,81.0156163 C65.2935432,80.5780549 65.0414248,79.9848373 65.0164641,79.3401119 C64.9696306,78.1263918 65.7457216,77.1591071 66.7833753,77.078904 L69.1245422,68.7103636 C68.2729587,68.5568777 67.6013398,67.890329 67.5715179,67.1141701 C67.5385001,66.2517213 68.3096359,65.5819176 69.2947812,65.6194471 L94.2871511,66.559799 C95.8287411,55.7348436 100.084564,36.931187 103.682671,34.8556179 C103.682671,34.8556179 106.665051,33.5584835 107.915726,36.0534267 C108.362934,35.3123639 109.221682,34.9898984 110.055254,35.3260235 C111.081861,35.7402063 111.681336,36.9956953 111.394618,38.1317277 L101.488601,77.2872624 C101.606149,77.9227982 101.634286,78.5327113 101.579973,79.0289524 C101.56386,79.1770355 101.370766,79.3263314 101.026961,79.4734516 Z M93.5025885,72.8225164 L91.9792095,69.5922018 L74.7888304,68.9457009 L73.4619587,72.1882395 C78.7289772,71.8656049 87.8295471,72.3753904 93.5025885,72.8225164 Z" id="Combined-Shape" fill="#45B154"></path>
            </g>
        </g>
    </g>
</svg>