<?xml version="1.0" encoding="UTF-8" standalone="no"?>
<svg width="921px" height="177px" viewBox="0 0 921 177" version="1.1" xmlns="http://www.w3.org/2000/svg" xmlns:xlink="http://www.w3.org/1999/xlink">
    <!-- Generator: Sketch 40.1 (33804) - http://www.bohemiancoding.com/sketch -->
    <title>Group 7</title>
    <desc>Created with Sketch.</desc>
    <defs>
        <polygon id="path-1" points="16.9097272 89.8440173 7.61586394 108.221689 11.8054018 110.519686 22.7320162 90.7086805 19.6246822 63.2595142 10.8948154 65.0439275"></polygon>
        <mask id="mask-2" maskContentUnits="userSpaceOnUse" maskUnits="objectBoundingBox" x="-0.78" y="-0.78" width="16.6761522" height="48.8201719">
            <rect x="6.83586394" y="62.4795142" width="16.6761522" height="48.8201719" fill="white"></rect>
            <use xlink:href="#path-1" fill="black"></use>
        </mask>
        <path d="M14.1853198,72.8054429 L24.8718447,87.4767026 L26.4955664,112.589774 L32.001096,112.589774 L31.8151977,87.1091071 L24.6775443,62.2092415 L10.7666821,65.1636586 C10.7666821,65.1636586 11.051306,68.5413357 14.1853198,72.8054429 Z" id="path-3"></path>
        <mask id="mask-4" maskContentUnits="userSpaceOnUse" maskUnits="objectBoundingBox" x="-0.78" y="-0.78" width="22.7944139" height="51.9405322">
            <rect x="9.9866821" y="61.4292415" width="22.7944139" height="51.9405322" fill="white"></rect>
            <use xlink:href="#path-3" fill="black"></use>
        </mask>
        <polygon id="path-5" points="91.9055012 76.0287299 90.5874089 106.256629 95.3650995 106.256629 98.5537275 78.1880906 110.268469 63.0442083 110.268469 53.8070597 101.350604 56.1796258"></polygon>
        <mask id="mask-6" maskContentUnits="userSpaceOnUse" maskUnits="objectBoundingBox" x="-0.78" y="-0.78" width="21.2410605" height="54.0095694">
            <rect x="89.8074089" y="53.0270597" width="21.2410605" height="54.0095694" fill="white"></rect>
            <use xlink:href="#path-5" fill="black"></use>
        </mask>
        <polygon id="path-7" points="107.277293 54.2177163 104.240954 81.9113074 118.400731 104.051056 122.651185 101.699496 111.84808 80.3674065 116.635223 59.2978855 116.635223 51.7065143"></polygon>
        <mask id="mask-8" maskContentUnits="userSpaceOnUse" maskUnits="objectBoundingBox" x="-0.78" y="-0.78" width="19.9702305" height="53.9045422">
            <rect x="103.460954" y="50.9265143" width="19.9702305" height="53.9045422" fill="white"></rect>
            <use xlink:href="#path-7" fill="black"></use>
        </mask>
    </defs>
    <g id="Page-1" stroke="none" stroke-width="1" fill="none" fill-rule="evenodd">
        <g id="Group-7">
            <rect id="Rectangle" fill="#FFFFFF" x="0.3125" y="0.837723236" width="920" height="175.884135"></rect>
            <g id="Group" transform="translate(27.985366, 38.144666)">
                <path d="M51.9044229,27.6558966 L51.1293222,23.2842911 C50.6622155,20.6505233 48.1361703,18.8916379 45.4873509,19.3560903 C42.8385315,19.8205427 41.0695942,22.3322339 41.5367009,24.9660016 L40.7968801,20.7932968 C40.3297735,18.1591783 37.8037283,16.4006437 35.1545561,16.8650961 C32.5057366,17.3295485 30.7371522,19.8412396 31.2039061,22.4750074 L28.948811,9.75764152 C28.4817043,7.12352296 25.9556591,5.36498835 23.3068397,5.82944074 C20.6576675,6.29389313 18.889083,8.80558428 19.3561897,11.4393521 L25.3089775,45.0076133 L16.9867876,39.2135347 C14.783554,37.6795088 11.746655,38.2120154 10.2038623,40.4027292 C8.66106967,42.5934431 9.19661947,45.6130852 11.399853,47.1471111 L38.9482102,70.9053942 L63.2370519,66.6467447 L63.4328557,65.6634667 C65.2162577,56.7020613 65.312572,47.4894869 63.7172121,38.493002 L61.4970442,25.9741861 C61.0302903,23.3404183 58.5042452,21.5815329 55.8550729,22.0459853 C53.2062535,22.5104377 51.4376691,25.0221288 51.9044229,27.6558966 Z" id="Fill-1189" stroke="#45B154" stroke-width="2.6" stroke-linecap="round" stroke-linejoin="round" fill="#45B154" transform="translate(37.084387, 38.330221) rotate(100.000000) translate(-37.084387, -38.330221) "></path>
                <path d="M74.5825422,26.8506879 L84.7939717,20.3511673" id="Line" stroke="#45B154" stroke-width="2.6" stroke-linecap="round" stroke-linejoin="round"></path>
                <path d="M75.1733416,41.5715434 L85.384771,35.0720228" id="Line" stroke="#45B154" stroke-width="2.6" stroke-linecap="round" stroke-linejoin="round" transform="translate(80.279056, 38.321783) scale(1, -1) translate(-80.279056, -38.321783) "></path>
                <path d="M76.3549402,30.7528099 L87.9846238,30.7528099" id="Line" stroke="#45B154" stroke-width="2.6" stroke-linecap="round" stroke-linejoin="round"></path>
                <path d="M130.937585,30.1982598 L130.322534,96.8115748 L123.180628,96.7525846 L123.152578,99.7785935 L138.810135,99.9087501 L138.838818,96.8826341 L131.696637,96.82356 L132.310911,30.2096721 L147.537788,30.3362076 L137.689223,1.09093104 L125.884051,0.994808012 L115.497927,30.069956 L130.937585,30.1982598 Z" id="Combined-Shape" fill="#45B154"></path>
                <polyline id="Fill-58" fill="#45B154" transform="translate(139.841117, 15.746115) rotate(-73.000000) translate(-139.841117, -15.746115) " points="126.791377 23.2308808 152.645813 7.85192498 152.890857 8.26134906 127.036133 23.6403049 126.791377 23.2308808"></polyline>
                <polyline id="Fill-59" fill="#45B154" transform="translate(136.610225, 15.569159) rotate(-73.000000) translate(-136.610225, -15.569159) " points="123.185441 21.6130447 149.831669 9.09374092 150.035009 9.52527274 123.388206 22.0445766 123.185441 21.6130447"></polyline>
                <polyline id="Fill-60" fill="#45B154" transform="translate(133.567249, 15.752210) rotate(-73.000000) translate(-133.567249, -15.752210) " points="119.769147 20.3570826 147.207165 10.6977179 147.365351 11.1473378 119.927332 20.8067025 119.769147 20.3570826"></polyline>
                <polyline id="Fill-61" fill="#45B154" transform="translate(130.331451, 15.577062) rotate(-73.000000) translate(-130.331451, -15.577062) " points="116.161469 18.7449308 144.389265 11.9455052 144.501433 12.409768 116.273349 19.2086194 116.161469 18.7449308"></polyline>
                <polyline id="Fill-62" fill="#45B154" transform="translate(127.009040, 15.675885) rotate(-73.000000) translate(-127.009040, -15.675885) " points="112.46689 17.4094772 141.486477 13.4699907 141.55119 13.9422927 112.531314 17.8817791 112.46689 17.4094772"></polyline>
                <polyline id="Fill-63" fill="#45B154" transform="translate(123.958748, 15.858805) rotate(-73.000000) translate(-123.958748, -15.858805) " points="109.045293 16.1601308 138.855521 15.0808706 138.872203 15.5577664 109.062262 16.6367395 109.045293 16.1601308"></polyline>
                <path d="M101.026961,79.4734516 L107.763762,98.7593968 L105.847304,98.9995964 L98.2696238,82.9304917 L69.509304,81.8490207 L63.1483072,97.3932002 L61.2088856,97.0081007 L65.6823685,81.0156163 C65.2935432,80.5780549 65.0414248,79.9848373 65.0164641,79.3401119 C64.9696306,78.1263918 65.7457216,77.1591071 66.7833753,77.078904 L69.1245422,68.7103636 C68.2729587,68.5568777 67.6013398,67.890329 67.5715179,67.1141701 C67.5385001,66.2517213 68.3096359,65.5819176 69.2947812,65.6194471 L94.2871511,66.559799 C95.8287411,55.7348436 100.084564,36.931187 103.682671,34.8556179 C103.682671,34.8556179 106.665051,33.5584835 107.915726,36.0534267 C108.362934,35.3123639 109.221682,34.9898984 110.055254,35.3260235 C111.081861,35.7402063 111.681336,36.9956953 111.394618,38.1317277 L101.488601,77.2872624 C101.606149,77.9227982 101.634286,78.5327113 101.579973,79.0289524 C101.56386,79.1770355 101.370766,79.3263314 101.026961,79.4734516 Z M93.5025885,72.8225164 L91.9792095,69.5922018 L74.7888304,68.9457009 L73.4619587,72.1882395 C78.7289772,71.8656049 87.8295471,72.3753904 93.5025885,72.8225164 Z" id="Combined-Shape" fill="#45B154"></path>
            </g>
            <g id="Group-6" transform="translate(693.602922, 32.987140)">
                <g id="Group-4" transform="translate(99.518674, 55.193264) scale(-1, 1) translate(-99.518674, -55.193264) translate(0.518674, 0.193264)" stroke="#40B34F" stroke-width="1.404" fill="#40B34F">
                    <path d="M165.30217,95.4599388 C165.30217,91.5535151 168.447241,88.3862493 172.324108,88.3862493 C176.201954,88.3862493 179.347025,91.5535151 179.347025,95.4599388 C179.347025,99.3683321 176.201954,102.536582 172.324108,102.536582 C168.447241,102.536582 165.30217,99.3683321 165.30217,95.4599388 L165.30217,95.4599388 L165.30217,95.4599388 Z M158.696447,95.4599388 C158.696447,103.042478 164.797044,109.188036 172.324108,109.188036 C179.850196,109.188036 185.952746,103.042478 185.952746,95.4599388 C185.952746,87.8793694 179.850196,81.7338117 172.324108,81.7338117 C164.797044,81.7338117 158.696447,87.8793694 158.696447,95.4599388 L158.696447,95.4599388 L158.696447,95.4599388 Z" id="Fill-75"></path>
                    <path d="M18.3815943,95.4599388 C18.3815943,91.5535151 21.5266646,88.3862493 25.403533,88.3862493 C29.2813784,88.3862493 32.4264487,91.5535151 32.4264487,95.4599388 C32.4264487,99.3683321 29.2813784,102.536582 25.403533,102.536582 C21.5266646,102.536582 18.3815943,99.3683321 18.3815943,95.4599388 L18.3815943,95.4599388 L18.3815943,95.4599388 Z M11.7758717,95.4599388 C11.7758717,103.042478 17.876468,109.188036 25.403533,109.188036 C32.9296209,109.188036 39.0321713,103.042478 39.0321713,95.4599388 C39.0321713,87.8793694 32.9296209,81.7338117 25.403533,81.7338117 C17.876468,81.7338117 11.7758717,87.8793694 11.7758717,95.4599388 L11.7758717,95.4599388 L11.7758717,95.4599388 Z" id="Fill-75"></path>
                    <path d="M60.3255227,0.076780381 C58.6931844,0.076780381 57.3719124,1.40881071 57.3719124,3.0521584 L57.3719124,86.3841797 C57.3719124,88.0275271 58.6931844,89.3595574 60.3255227,89.3595574 L108.172995,89.3595574 L156.020466,89.3595574 C158.609308,82.8157673 164.942092,78.1837723 172.361074,78.1837723 C179.781069,78.1837723 186.11588,82.8157673 188.703709,89.3595574 L194.239068,89.3595574 C195.872419,89.3595574 197.192678,88.0275271 197.192678,86.3841797 L197.192678,3.0521584 C197.192678,1.40881071 195.872419,0.076780381 194.239068,0.076780381 L127.282294,0.076780381 L60.3255227,0.076780381 Z" id="Fill-76"></path>
                    <path d="M9.84046055,40.7971005 C10.4605667,35.0045548 15.1052834,18.1025701 15.1052834,18.1025701 C15.8226611,15.695729 17.0456482,13.7359602 19.4399469,13.7359602 L36.2750185,13.7359602 C38.6693172,13.7359602 40.609682,15.6906254 40.609682,18.1025701 L40.609682,43.4111462 C40.609682,45.8230907 38.6693172,47.7777559 36.2750185,47.7777559 L14.1741109,47.7777559 C11.7808254,47.7777559 9.84046055,45.8230907 9.84046055,43.4111462 C9.84046055,43.4111462 9.61450684,42.8936447 9.84046055,40.7971005 L9.84046055,40.7971005 L9.84046055,40.7971005 Z M0.789139854,81.4469914 C0.789139854,85.2818097 3.87447194,88.3888603 7.68224795,88.3888603 L8.82316222,88.3888603 C9.09572522,87.7733699 9.41287101,87.1823772 9.75129496,86.606695 C12.7130111,81.0203334 18.5533573,77.2130744 25.2802932,77.2130744 C32.6992756,77.2130744 39.032059,81.8450694 41.6209009,88.3888603 L49.7177445,88.3888603 L49.7177445,14.1646597 C49.7177445,10.3298413 46.6303859,7.22177055 42.8246364,7.22177055 L16.0546943,7.22177055 C12.249958,7.22177055 10.3055402,10.3369863 9.16361266,14.1646597 C9.16361266,14.1646597 1.77806731,41.0420716 0.789139854,50.251964 C0.431464245,53.5845916 0.789139854,81.4469914 0.789139854,81.4469914 L0.789139854,81.4469914 L0.789139854,81.4469914 Z" id="Fill-77"></path>
                </g>
                <g id="Group-10" transform="translate(38.356380, 24.714821)" fill="#FFFFFF">
                    <path d="M15.8594913,16.838044 L12.3916495,16.838044 L13.7618699,9.79526825 L13.711121,9.79526825 L10.9199313,16.838044 L8.65314698,16.838044 L8.41631876,9.79526825 L8.34865355,9.79526825 L7.2829266,16.838044 L4.10266199,16.838044 L6.18336702,4.82289891 L10.3786097,4.82289891 L10.733852,11.3056466 L10.8015172,11.3056466 L13.2882135,4.82289891 L17.9401962,4.82289891 L15.8594913,16.838044 L15.8594913,16.838044 Z M21.238875,16.838044 L17.6526192,16.838044 L19.7333241,4.82289891 L23.3195801,4.82289891 L21.238875,16.838044 L21.238875,16.838044 Z M30.8811665,10.6098544 L32.4374663,16.838044 L28.4283029,16.838044 L27.5486553,11.5602048 L27.4809901,11.5602048 L26.5675099,16.838044 L23.0320029,16.838044 L25.112708,4.82289891 L28.6482148,4.82289891 L27.8193161,9.59162172 L27.9038976,9.59162172 L30.4244265,4.82289891 L34.4674225,4.82289891 L30.8811665,10.6098544 L30.8811665,10.6098544 Z M41.2339429,7.94547897 L38.4089206,7.94547897 L38.1551761,9.30312247 L40.7602864,9.30312247 L40.2697137,12.2050855 L37.6646033,12.2050855 L37.4108588,13.6645522 L40.5572909,13.6645522 L40.0159692,16.838044 L33.486277,16.838044 L35.566982,4.82289891 L41.7752645,4.82289891 L41.2339429,7.94547897 L41.2339429,7.94547897 Z M44.3127097,9.33706356 L42.1643394,9.33706356 L43.8559695,4.82289891 L46.2580843,4.82289891 L44.3127097,9.33706356 L44.3127097,9.33706356 Z M52.3479527,8.38671311 C52.1675112,8.20569307 51.9419627,8.0529597 51.6713006,7.92850843 C51.4006384,7.80405715 51.135619,7.74183245 50.8762345,7.74183245 C50.7747361,7.74183245 50.67042,7.75314603 50.5632829,7.77577353 C50.4561458,7.79840104 50.3574684,7.84082698 50.2672476,7.90305261 C50.1770269,7.96527824 50.1037236,8.04447333 50.0473357,8.14064023 C49.9909477,8.23680712 49.9627542,8.35842813 49.9627542,8.50550691 C49.9627542,8.70915446 50.0360574,8.87320141 50.1826661,8.99765269 C50.3292748,9.12210396 50.5830168,9.2918077 50.9438996,9.506769 C51.1468963,9.61990653 51.3696254,9.76698309 51.6120936,9.94800314 C51.8545617,10.1290232 52.0857489,10.349638 52.305662,10.6098544 C52.525575,10.8700707 52.708833,11.1811942 52.8554417,11.5432342 C53.0020504,11.9052743 53.0753537,12.3238769 53.0753537,12.7990545 C53.0753537,13.5570759 52.9400246,14.2076069 52.6693624,14.7506671 C52.3987003,15.2937271 52.0462808,15.7406137 51.6120936,16.09134 C51.1779063,16.4420663 50.6873385,16.6994503 50.1403754,16.8634998 C49.5934122,17.0275491 49.0492767,17.1095726 48.5079524,17.1095726 C47.6846883,17.1095726 46.9375591,16.99078 46.2665424,16.7531912 C45.5955258,16.5156024 45.0683063,16.2214493 44.6848682,15.8707229 L46.7148244,13.1724064 C46.9403762,13.3647402 47.208215,13.5259588 47.5183487,13.6560669 C47.8284824,13.7861751 48.1414309,13.8512282 48.4572034,13.8512282 C48.6827553,13.8512282 48.8885682,13.7918319 49.0746484,13.6730374 C49.2607286,13.5542431 49.3537674,13.3647406 49.3537674,13.1045242 C49.3537674,12.9121905 49.2804642,12.7340016 49.1338555,12.5699522 C48.9872467,12.4059027 48.7165887,12.2107434 48.321873,11.9844684 C48.0624885,11.8373896 47.8087465,11.6705143 47.5606395,11.4838373 C47.3125325,11.2971604 47.0926228,11.0822024 46.9009038,10.8389567 C46.7091847,10.595711 46.5569395,10.310043 46.4441636,9.98194423 C46.3313877,9.65384541 46.2750006,9.27484038 46.2750006,8.84491779 C46.2750006,8.26791642 46.3793167,7.71920765 46.5879521,7.19877504 C46.7965876,6.67834243 47.0982587,6.22297073 47.4929743,5.83264627 C47.88769,5.44232181 48.3669803,5.13119828 48.9308599,4.89926636 C49.4947394,4.66733443 50.1319137,4.55137021 50.8424019,4.55137021 C51.6318332,4.55137021 52.3366721,4.66733443 52.9569395,4.89926636 C53.577207,5.13119828 54.0508587,5.42252304 54.3779088,5.77324937 L52.3479527,8.38671311 L52.3479527,8.38671311 Z" id="MIKE’S" transform="translate(29.240285, 10.830471) rotate(-10.000000) translate(-29.240285, -10.830471) "></path>
                    <path d="M9.50963892,30.1481162 L5.97413201,30.1481162 L6.78611445,25.4981872 L5.00990284,25.4981872 L4.19792039,30.1481162 L0.679329761,30.1481162 L2.76003479,18.1329712 L6.26170912,18.1329712 L5.53430817,22.307725 L7.32743609,22.307725 L8.03792073,18.1329712 L11.590344,18.1329712 L9.50963892,30.1481162 L9.50963892,30.1481162 Z M16.8513136,28.3831797 L14.7029434,28.3831797 L14.0770402,30.1481162 L10.3892866,30.1481162 L15.4303443,18.1329712 L19.8116663,18.1329712 L20.4375695,30.1481162 L16.8513136,30.1481162 L16.8513136,28.3831797 L16.8513136,28.3831797 Z M15.5487584,25.6848632 L16.9020625,25.6848632 L16.9020625,21.7307265 L16.8343973,21.7307265 L15.5487584,25.6848632 L15.5487584,25.6848632 Z M30.4520197,25.4642461 C30.3279661,26.1770125 30.1616243,26.8388571 29.9529888,27.4497997 C29.7443534,28.0607423 29.4539597,28.5896523 29.0817993,29.0365456 C28.7096389,29.4834387 28.2388064,29.8369883 27.6692881,30.0972045 C27.0997698,30.3574209 26.4033891,30.4875271 25.580125,30.4875271 C24.9147471,30.4875271 24.3311405,30.3970184 23.8292878,30.2159984 C23.327435,30.0349784 22.907351,29.7832511 22.5690234,29.4608092 C22.2306956,29.1383672 21.9741343,28.7537054 21.7993317,28.3068122 C21.624529,27.8599189 21.537129,27.3706065 21.537129,26.8388601 C21.537129,26.6125851 21.5484064,26.383485 21.5709617,26.1515531 C21.5935168,25.9196212 21.627349,25.6848643 21.6724594,25.4472755 L22.941182,18.1329712 L26.5105215,18.1329712 L25.2925478,25.1927175 C25.258715,25.3850513 25.2305215,25.5632401 25.2079663,25.7272896 C25.1854111,25.8913389 25.1741338,26.0412439 25.1741338,26.1770089 C25.1741338,26.448539 25.2277015,26.663497 25.3348386,26.8218896 C25.4419757,26.9802822 25.6083176,27.0594773 25.8338695,27.0594773 C26.2173076,27.0594773 26.4795076,26.8926019 26.6204775,26.5588461 C26.7614474,26.2250904 26.8826797,25.7697187 26.9841779,25.1927175 L28.2021516,18.1329712 L31.7376586,18.1329712 L30.4520197,25.4642461 L30.4520197,25.4642461 Z M37.8275269,30.1481162 L31.1625044,30.1481162 L33.2432093,18.1329712 L36.8125489,18.1329712 L35.306998,26.8728012 L38.4026811,26.8728012 L37.8275269,30.1481162 L37.8275269,30.1481162 Z M42.5133423,30.1481162 L38.9270865,30.1481162 L41.0077916,18.1329712 L44.5940474,18.1329712 L42.5133423,30.1481162 L42.5133423,30.1481162 Z M53.0860305,30.1481162 L49.3982769,30.1481162 L48.4002152,24.2593375 L48.3494662,24.2593375 L47.4529023,30.1481162 L44.3064702,30.1481162 L46.3871753,18.1329712 L50.1595104,18.1329712 L51.1068233,24.1914553 L51.1744885,24.1914553 L52.1218013,18.1329712 L55.1667356,18.1329712 L53.0860305,30.1481162 L53.0860305,30.1481162 Z M62.5591591,21.8834614 C62.3899953,21.6911276 62.2010985,21.5355658 61.992463,21.4167714 C61.7838276,21.297977 61.5047115,21.2385808 61.1551062,21.2385808 C60.7378353,21.2385808 60.3741384,21.3658585 60.0640048,21.6204179 C59.753871,21.8749774 59.4973096,22.1974145 59.2943131,22.5877389 C59.0913164,22.9780634 58.9390712,23.4079795 58.8375729,23.8775003 C58.7360746,24.347021 58.6853262,24.7910791 58.6853262,25.209688 C58.6853262,25.4699042 58.7107003,25.7159746 58.7614496,25.9479066 C58.8121987,26.1798386 58.89396,26.3806546 59.0067359,26.550361 C59.1195118,26.7200672 59.2689376,26.8558302 59.4550179,26.957654 C59.6410981,27.0594778 59.8751047,27.1103889 60.1570443,27.1103889 C60.2810979,27.1103889 60.3995108,27.0990752 60.5122867,27.0764478 C60.6250625,27.0538202 60.7209207,27.0142228 60.7998638,26.957654 L61.0197757,25.7697159 L59.6664716,25.7697159 L60.2077933,22.6641063 L64.6736968,22.6641063 L63.4895557,29.4692944 C63.0046193,29.7973932 62.463303,30.0491205 61.8655908,30.2244836 C61.2678785,30.3998468 60.5968719,30.4875271 59.8525509,30.4875271 C59.0856749,30.4875271 58.4146683,30.3687344 57.8395111,30.1311456 C57.264354,29.8935568 56.787883,29.5598062 56.4100837,29.1298836 C56.0322845,28.699961 55.7503488,28.1880214 55.5642686,27.5940494 C55.3781884,27.0000773 55.2851496,26.3523747 55.2851496,25.6509221 C55.2851496,24.5987431 55.4317561,23.6003195 55.7249735,22.6556211 C56.0181908,21.7109228 56.4326361,20.8765461 56.9683217,20.1524659 C57.5040072,19.4283857 58.1411815,18.8542214 58.8798636,18.4299557 C59.6185458,18.00569 60.4277007,17.7935604 61.3073528,17.7935604 C61.769734,17.7935604 62.189818,17.8331578 62.5676172,17.9123542 C62.9454166,17.9915504 63.2781005,18.0962011 63.5656791,18.2263092 C63.8532576,18.3564173 64.1013608,18.5063223 64.3099963,18.6760285 C64.5186317,18.8457349 64.6906124,19.0210954 64.8259435,19.2021155 L62.5591591,21.8834614 L62.5591591,21.8834614 Z" id="HAULING" transform="translate(32.752637, 24.140544) rotate(-10.000000) translate(-32.752637, -24.140544) "></path>
                    <path d="M26.3812074,32.9471364 C26.2609131,32.8264564 26.1105475,32.7246341 25.930106,32.6416666 C25.7496646,32.558699 25.5729851,32.517216 25.400062,32.517216 C25.3323965,32.517216 25.2628523,32.5247583 25.1914276,32.5398433 C25.1200029,32.5549284 25.0542179,32.5832123 24.9940707,32.624696 C24.9339236,32.6661799 24.8850547,32.7189766 24.8474628,32.7830878 C24.8098709,32.8471991 24.7910752,32.9282798 24.7910752,33.0263323 C24.7910752,33.1620973 24.839944,33.2714619 24.9376831,33.3544294 C25.0354221,33.437397 25.2045835,33.5505328 25.4451721,33.6938404 C25.5805032,33.7692653 25.7289892,33.8673164 25.8906347,33.9879964 C26.0522802,34.1086765 26.2064049,34.255753 26.3530135,34.4292305 C26.4996223,34.6027081 26.6217944,34.8101238 26.7195334,35.0514839 C26.8172726,35.2928438 26.8661413,35.5719123 26.8661413,35.8886973 C26.8661413,36.394045 26.7759221,36.8277323 26.5954806,37.1897723 C26.4150392,37.5518124 26.1800929,37.8497368 25.8906347,38.0835543 C25.6011765,38.3173719 25.2741314,38.4889612 24.9094892,38.5983274 C24.5448472,38.7076937 24.1820901,38.762376 23.8212072,38.762376 C23.2723645,38.762376 22.7742784,38.6831809 22.3269339,38.5247885 C21.8795895,38.3663959 21.52811,38.1702939 21.2724845,37.9364762 L22.6257886,36.1375986 C22.7761564,36.2658212 22.9547157,36.3733002 23.1614715,36.4600389 C23.3682273,36.5467777 23.5768596,36.5901465 23.7873746,36.5901465 C23.9377425,36.5901465 24.0749511,36.5505489 24.1990046,36.4713527 C24.3230581,36.3921563 24.3850839,36.2658214 24.3850839,36.0923439 C24.3850839,35.9641214 24.3362151,35.8453287 24.238476,35.7359624 C24.1407369,35.6265961 23.9602981,35.4964899 23.6971543,35.3456399 C23.5242312,35.2475875 23.35507,35.1363371 23.1896653,35.0118859 C23.0242606,34.8874347 22.8776541,34.7441292 22.7498414,34.5819654 C22.6220288,34.4198017 22.520532,34.2293564 22.445348,34.0106237 C22.3701641,33.7918912 22.3325727,33.5392212 22.3325727,33.2526061 C22.3325727,32.8679386 22.4021168,32.5021328 22.5412071,32.1551777 C22.6802974,31.8082227 22.8814114,31.5046414 23.1445552,31.2444252 C23.407699,30.9842088 23.7272259,30.7767931 24.1031456,30.6221719 C24.4790653,30.4675506 24.9038482,30.3902411 25.3775069,30.3902411 C25.9037944,30.3902411 26.373687,30.4675506 26.7871986,30.6221719 C27.2007104,30.7767931 27.5164781,30.9710097 27.7345115,31.2048272 L26.3812074,32.9471364 L26.3812074,32.9471364 Z M32.4034106,32.6529804 L30.5200625,32.6529804 L30.3508994,33.558076 L32.0876397,33.558076 L31.7605911,35.492718 L30.023851,35.492718 L29.854688,36.4656958 L31.9523092,36.4656958 L31.5914281,38.5813569 L27.2383,38.5813569 L28.6254367,30.5712602 L32.7642918,30.5712602 L32.4034106,32.6529804 L32.4034106,32.6529804 Z M38.9894905,32.8226857 C38.9894905,33.4034584 38.8748367,33.8937136 38.6455257,34.2934661 C38.4162147,34.6932188 38.0910491,34.9836008 37.670019,35.1646208 L38.4256139,38.5813569 L35.9332788,38.5813569 L35.5047325,35.6624234 L35.2115166,35.6624234 L34.7040276,38.5813569 L32.4485207,38.5813569 L33.8356574,30.5712602 L36.5986533,30.5712602 C37.3730478,30.5712602 37.9651124,30.7598199 38.3748649,31.136945 C38.7846174,31.5140701 38.9894905,32.0759781 38.9894905,32.8226857 L38.9894905,32.8226857 L38.9894905,32.8226857 Z M36.6099308,33.1281555 C36.6099308,32.8943379 36.5479049,32.7397191 36.4238515,32.664294 C36.299798,32.588869 36.1813851,32.5511571 36.0686092,32.5511571 L35.7528383,32.5511571 L35.493455,34.0332512 L35.7415607,34.0332512 C35.9671125,34.0332512 36.1682265,33.9653697 36.3449088,33.8296046 C36.5215911,33.6938396 36.6099308,33.4600257 36.6099308,33.1281555 L36.6099308,33.1281555 L36.6099308,33.1281555 Z M43.1621781,38.5813569 L40.1736316,38.5813569 L39.6661425,30.5712602 L42.1923102,30.5712602 L42.1923102,35.7303056 L42.2261427,35.7303056 L43.9064954,30.5712602 L46.4890507,30.5712602 L43.1621781,38.5813569 L43.1621781,38.5813569 Z M48.0566279,38.5813569 L45.6657906,38.5813569 L47.0529274,30.5712602 L49.4437646,30.5712602 L48.0566279,38.5813569 L48.0566279,38.5813569 Z M54.2479941,33.0942145 C54.1577734,32.9810769 54.0562766,32.8811403 53.9435007,32.7944015 C53.8307247,32.7076627 53.6615635,32.664294 53.4360117,32.664294 C53.2104598,32.664294 53.0093458,32.7453747 52.8326636,32.9075384 C52.6559813,33.0697022 52.5037361,33.2771179 52.3759234,33.5297918 C52.2481107,33.7824655 52.1503731,34.0615339 52.0827075,34.3670052 C52.0150419,34.6724766 51.9812098,34.9685153 51.9812098,35.2551303 C51.9812098,35.6247129 52.0488742,35.9226373 52.1842053,36.1489123 C52.3195364,36.3751874 52.5413257,36.4883232 52.8495798,36.4883232 C53.0300213,36.4883232 53.1841461,36.4487256 53.3119588,36.3695294 C53.4397715,36.2903332 53.5563048,36.2054812 53.6615623,36.1149712 L54.6765404,37.9364762 C54.4284334,38.1778363 54.1164248,38.3833663 53.7405051,38.5530727 C53.3645854,38.7227789 52.9285251,38.8076309 52.4323111,38.8076309 C51.9586523,38.8076309 51.5413877,38.7303214 51.1805048,38.5757001 C50.819622,38.4210787 50.5170111,38.2042351 50.2726633,37.9251626 C50.0283155,37.64609 49.8422381,37.3104537 49.7144254,36.9182437 C49.5866127,36.5260336 49.5227073,36.088575 49.5227073,35.6058549 C49.5227073,34.9119448 49.6185653,34.246329 49.8102845,33.6089876 C50.0020034,32.9716462 50.2726616,32.4116239 50.6222668,31.9289037 C50.9718722,31.4461837 51.3910164,31.0615219 51.879712,30.7749068 C52.3684076,30.4882917 52.9059645,30.3449863 53.4923993,30.3449863 C53.8156903,30.3449863 54.0995053,30.3713847 54.3438531,30.4241822 C54.5882009,30.4769797 54.8024719,30.5486324 54.9866725,30.6391424 C55.1708732,30.7296524 55.3287572,30.8314747 55.460329,30.9446123 C55.5919008,31.0577497 55.7103137,31.1746568 55.8155713,31.2953368 L54.2479941,33.0942145 L54.2479941,33.0942145 Z M60.3040298,32.6529804 L58.4206816,32.6529804 L58.2515186,33.558076 L59.9882589,33.558076 L59.6612104,35.492718 L57.9244702,35.492718 L57.7553072,36.4656958 L59.8529285,36.4656958 L59.4920474,38.5813569 L55.1389193,38.5813569 L56.5260559,30.5712602 L60.6649109,30.5712602 L60.3040298,32.6529804 L60.3040298,32.6529804 Z" id="SERVICE" transform="translate(40.968698, 34.576309) rotate(-10.000000) translate(-40.968698, -34.576309) "></path>
                </g>
            </g>
            <path d="M291.913117,92.2233282 L305.816375,78.3194518 C305.874465,78.2619799 305.926375,78.1983282 305.971487,78.1297327 C305.991263,78.1006877 306.004858,78.0685529 306.021544,78.038272 C306.043173,77.9987214 306.067274,77.9597888 306.085195,77.9177664 C306.101881,77.8775978 306.111768,77.8355754 306.124128,77.7941709 C306.134634,77.7583282 306.148229,77.7243394 306.155645,77.6872608 C306.18778,77.5272046 306.18778,77.3634405 306.155645,77.2033844 C306.148229,77.1663057 306.134634,77.1323169 306.124128,77.0964742 C306.111768,77.0550697 306.102499,77.0130473 306.085195,76.9728787 C306.067892,76.9308563 306.043791,76.8919237 306.021544,76.8523731 C306.004858,76.8214742 305.991263,76.7893394 305.971487,76.7609124 C305.926375,76.6929349 305.874465,76.6286653 305.816375,76.5711933 L291.913117,62.666081 C291.430476,62.1834405 290.647499,62.1834405 290.165476,62.666081 C289.923847,62.9077102 289.803341,63.2234967 289.803341,63.5399012 C289.803341,63.8563057 289.923847,64.1720922 290.165476,64.4137214 L301.960195,76.2084405 L252.415701,76.2084405 C251.733454,76.2084405 251.179746,76.7621484 251.179746,77.4443956 C251.179746,78.1266428 251.733454,78.6803506 252.415701,78.6803506 L301.960195,78.6803506 L290.165476,90.4750697 C289.923847,90.716699 289.803341,91.0324855 289.803341,91.34889 C289.803341,91.6652945 289.923847,91.981081 290.165476,92.2227102 C290.647499,92.7059686 291.430476,92.7059686 291.913117,92.2233282 L291.913117,92.2233282 Z" id="Shape" fill="#C2C2C2"></path>
            <path d="M626.680075,92.2233282 L640.583334,78.3194518 C640.641424,78.2619799 640.693334,78.1983282 640.738446,78.1297327 C640.758221,78.1006877 640.771817,78.0685529 640.788502,78.038272 C640.810131,77.9987214 640.834233,77.9597888 640.852154,77.9177664 C640.868839,77.8775978 640.878727,77.8355754 640.891086,77.7941709 C640.901592,77.7583282 640.915188,77.7243394 640.922603,77.6872608 C640.954738,77.5272046 640.954738,77.3634405 640.922603,77.2033844 C640.915188,77.1663057 640.901592,77.1323169 640.891086,77.0964742 C640.878727,77.0550697 640.869457,77.0130473 640.852154,76.9728787 C640.83485,76.9308563 640.810749,76.8919237 640.788502,76.8523731 C640.771817,76.8214742 640.758221,76.7893394 640.738446,76.7609124 C640.693334,76.6929349 640.641424,76.6286653 640.583334,76.5711933 L626.680075,62.666081 C626.197435,62.1834405 625.414457,62.1834405 624.932435,62.666081 C624.690806,62.9077102 624.5703,63.2234967 624.5703,63.5399012 C624.5703,63.8563057 624.690806,64.1720922 624.932435,64.4137214 L636.727154,76.2084405 L587.182659,76.2084405 C586.500412,76.2084405 585.946704,76.7621484 585.946704,77.4443956 C585.946704,78.1266428 586.500412,78.6803506 587.182659,78.6803506 L636.727154,78.6803506 L624.932435,90.4750697 C624.690806,90.716699 624.5703,91.0324855 624.5703,91.34889 C624.5703,91.6652945 624.690806,91.981081 624.932435,92.2227102 C625.414457,92.7059686 626.197435,92.7059686 626.680075,92.2233282 L626.680075,92.2233282 Z" id="Shape" fill="#C2C2C2"></path>
            <g id="Group-3" transform="translate(397.812500, 28.644666)">
                <path d="M79.0497446,49.7873927 C79.3217652,49.7821413 79.5979869,49.723326 79.8616054,49.6046452 L91.3967507,44.4352029 C91.8042565,44.2524554 92.1424443,43.942625 92.3598508,43.5529738 L96.6407624,35.8933349 C97.2005578,34.8913747 96.8424148,33.625796 95.8404546,33.0660007 C94.8395447,32.5062053 93.573966,32.8643483 93.0141707,33.8663085 L89.0693463,40.9241412 L78.1622641,45.8131607 C77.1151422,46.2826326 76.6467206,47.512502 77.1161925,48.5585736 C77.4669836,49.342077 78.2431351,49.8010462 79.0497446,49.7873927" id="Fill-82" fill="#FFFFFF"></path>
                <path d="M42.0179043,48.53243 C41.7721405,48.6500605 41.4990696,48.7204288 41.2102446,48.7319818 L28.5807151,49.2518668 C28.1332989,49.2707717 27.6932347,49.144739 27.324589,48.8926735 L20.0756066,43.9469393 C19.1282606,43.3010216 18.8835471,42.0081359 19.5305151,41.0607899 C20.1764328,40.1123936 21.4693185,39.8687303 22.4166645,40.514648 L29.0974493,45.0717814 L41.0390501,44.5802537 C42.185948,44.5329915 43.1532491,45.424673 43.2005114,46.5705206 C43.2351704,47.4285934 42.7467936,48.18584 42.0179043,48.53243" id="Fill-80" fill="#FFFFFF"></path>
                <g id="Group-2" transform="translate(63.898515, 57.744149) rotate(-176.000000) translate(-63.898515, -57.744149) translate(24.398515, 23.244149)" fill="#45B154">
                    <path d="M7.2596414,68.4912252 C7.2596414,68.4912252 2.18647401,68.5360114 3.63641483,63.4161077 C5.08635566,58.2955549 25.5376734,33.5297734 27.9128456,31.0061697 C30.288993,28.4815925 33.5806187,30.1938523 34.7486989,31.9366187 C35.9158037,33.6793852 13.7528405,67.6964328 7.2596414,68.4912252" id="Fill-64"></path>
                    <path d="M62.3489898,38.3592142 C62.3489898,38.3592142 63.5225966,43.5819963 59.3853887,43.9750112 C55.2478558,44.3683507 32.2139528,32.3835051 29.8010693,30.8610997 C27.3881857,29.3386943 27.9216729,25.3072894 28.9571127,23.4580747 C29.9915772,21.6078863 60.2976161,31.9466776 62.3489898,38.3592142" id="Fill-65"></path>
                    <path d="M78.9034389,22.5813196 L77.0555771,21.3240613 L63.5717777,34.6881912 L34.1246499,20.8606218 L33.3372605,0.794143275 L31.237122,0.197643341 L29.7169598,23.4212227 L0.682382464,61.6764056 C-0.11768578,62.7318016 -0.0484397271,64.3028877 0.836804413,65.1872524 C1.72204855,66.0712925 3.08811388,65.9330396 3.88850722,64.8786172 L25.1694772,36.8389013 C25.2975662,36.935938 25.4360583,37.022265 25.5865791,37.0930142 L56.6270162,51.6696162 C57.6354728,52.1437655 58.7336567,51.7874233 59.0802121,50.8754729 C59.3919819,50.0547176 58.9875589,49.0645537 58.1692851,48.5287422 L64.3012995,40.8553775 C65.4163885,41.2302183 66.6511139,40.5665391 67.138437,39.2829932 C67.3972157,38.6011399 67.3968906,37.8725532 67.1855764,37.2455468 L78.9034389,22.5813196 L78.9034389,22.5813196 Z M59.5746874,38.6507942 L52.3795999,45.7821813 L34.7787487,37.5171847 L34.3583959,26.8090697 L59.5746874,38.6507942 L59.5746874,38.6507942 Z M29.1850981,31.5482909 L28.9728086,34.790096 L27.3148045,34.0118551 L29.1850981,31.5482909 L29.1850981,31.5482909 Z" id="Fill-66"></path>
                </g>
                <path d="M17.8183716,45.5874899 L12.9956778,39.8344917 C11.7637079,38.9942736 11.4465256,37.3138372 12.2867438,36.0818673 C13.1269619,34.8488471 14.8073983,34.5316648 16.0393682,35.371883 L23.7774501,40.8260949 L19.6186104,46.750039" id="Fill-81" fill="#40B34F"></path>
                <path d="M96.3523559,36.705315 L102.744316,25.2678451 C103.472155,23.9655069 103.006884,22.3197296 101.704546,21.5929408 C100.402207,20.8640516 98.7574804,21.3303727 98.0296414,22.6327108 L91.6376816,34.0701808 L96.3523559,36.705315" id="Fill-83" fill="#40B24F"></path>
                <path d="M16.0244734,20.0095028 C18.0010866,24.1528287 16.7544129,28.8696035 13.2412507,30.5447884 C9.72808841,32.2199734 5.27808289,30.2192039 3.3025199,26.0748277 C1.32695692,21.9315019 2.57363064,17.2136768 6.08679289,15.5384918 C9.59995514,13.8643571 14.0489104,15.8651266 16.0244734,20.0095028" id="Fill-87" fill="#FFFFFF"></path>
                <path d="M3.43883124,27.9077231 C3.43883124,27.9077231 5.53937669,24.5468504 4.83884478,21.025286 C4.83884478,21.025286 13.7882186,21.6943097 17.2152585,19.9519073 C17.2152585,19.9519073 12.8713306,11.4425977 5.28416042,14.5986672 C5.28416042,14.5986672 1.8119588,16.2454948 1.72478616,18.5981057 C1.72478616,18.5981057 -0.104788917,20.112599 0.331074262,22.3118701 C0.904523168,25.2032709 3.43883124,27.9077231 3.43883124,27.9077231" id="Fill-88" fill="#40B34F"></path>
                <path d="M5.92250854,27.5651093 C6.3667739,28.4977515 5.97187136,29.6131411 5.03922918,30.0584568 C4.10763728,30.5027221 2.99119738,30.1067693 2.54693202,29.1751774 C2.10266665,28.2425352 2.4975692,27.1271456 3.43021137,26.6828802 C4.36180328,26.2375646 5.47824318,26.6335174 5.92250854,27.5651093" id="Fill-89" fill="#FFFFFF"></path>
                <polygon id="Fill-92" stroke="#40B34F" stroke-width="1.3" stroke-linecap="round" stroke-linejoin="round" fill="#40B34F" points="14.0162259 116.111727 14.2945482 115.31562 11.3201758 110.801548 7.41048039 108.421241 5.51531849 111.449566"></polygon>
                <g id="Fill-93">
                    <use fill="#40B34F" fill-rule="evenodd" xlink:href="#path-1"></use>
                    <use stroke="#40B34F" mask="url(#mask-2)" stroke-width="1.56" stroke-linecap="round" stroke-linejoin="round" xlink:href="#path-1"></use>
                </g>
                <path d="M11.3239858,33.0345328 C6.95695185,33.9272646 3.92166368,37.1263953 4.54657595,40.1805884 L9.7191691,65.4879599 L25.5362763,62.2552204 L20.3636831,36.9478489 C19.7387709,33.8936559 15.6920701,32.141801 11.3239858,33.0345328" id="Fill-94" fill="#40B34F"></path>
                <g id="Fill-96">
                    <use fill="#40B34F" fill-rule="evenodd" xlink:href="#path-3"></use>
                    <use stroke="#40B34F" mask="url(#mask-4)" stroke-width="1.56" stroke-linecap="round" stroke-linejoin="round" xlink:href="#path-3"></use>
                </g>
                <path d="M31.2029935,67.3560135 L16.4183044,61.881992 C15.8984194,61.6897921 15.4772601,61.2980404 15.2483006,60.7939095 L9.25474666,45.9616208 C8.77897312,44.9176497 8.2107756,41.7822411 9.25474668,41.3064676 C10.299768,40.830694 12.1668004,42.1046472 12.6425739,43.1496685 L18.6721897,58.2858582 L32.645018,63.4595017 C33.7215475,63.8586053 34.2708401,65.0538157 33.8727868,66.1292949 C33.5366995,67.0356803 32.6366158,67.5681686 31.7176271,67.4757446 C31.5453824,67.4589402 31.3731377,67.4190298 31.2029935,67.3560135 Z" id="Fill-97" fill="#FFFFFF"></path>
                <path d="M6.80868018,43.0774963 C6.19111982,41.7205439 6.79082554,40.118878 8.1477779,39.5002674 C9.50578053,38.8827071 12.3788153,38.8836028 12.9963757,40.2405551 L15.0997893,47.130261 L12.5415469,48.5983041 L9.92653509,50.0989243 L6.80868018,43.0774963 Z" id="Fill-98" fill="#40B34F"></path>
                <polyline id="Fill-99" stroke="#40B34F" stroke-width="1.3" stroke-linecap="round" stroke-linejoin="round" fill="#40B34F" points="26.5207729 115.982155 36.2158404 115.982155 36.0772044 115.150339 31.2984635 112.622332 26.5207729 112.622332 26.5207729 115.982155"></polyline>
                <path d="M89.7050442,11.3281217 C90.5662679,16.0911085 94.5068911,19.3658588 98.5063296,18.6422209 C102.505768,17.918583 105.049529,13.470678 104.188305,8.70769126 C103.326031,3.94470446 99.3854079,0.669954119 95.3859694,1.39359202 C91.3865309,2.11722993 88.8427703,6.5651349 89.7050442,11.3281217" id="Fill-101" fill="#FFFFFF"></path>
                <path d="M97.2356352,7.3679462 C97.2356352,7.3679462 86.9167058,14.2356795 84.2857726,8.48753692 C84.2857726,8.48753692 86.848438,9.73421064 87.3326138,8.41821892 C87.3326138,8.41821892 88.7872415,1.28581687 94.8809238,0.420392148 C94.8809238,0.420392148 100.49043,-0.904001754 103.053096,3.68779058 C103.053096,3.68779058 104.930983,6.1706353 104.229401,10.2877044 C104.229401,10.2877044 99.7983007,11.8683648 97.2356352,7.3679462" id="Fill-102" fill="#40B34F"></path>
                <path d="M102.170602,11.8988127 C102.3544,12.9144265 103.326952,13.5897518 104.342566,13.4059541 C105.35923,13.2221564 106.033505,12.2485535 105.849707,11.2329398 C105.66591,10.2162758 104.693357,9.54200075 103.677743,9.72579847 C102.661079,9.9095962 101.986804,10.8821487 102.170602,11.8988127" id="Fill-103" fill="#FFFFFF"></path>
                <polyline id="Fill-106" stroke="#40B34F" stroke-width="1.3" stroke-linecap="round" stroke-linejoin="round" fill="#40B34F" points="124.573184 105.06457 116.072276 109.72673 115.793954 108.930623 118.768327 104.416551 122.957864 102.119605 124.573184 105.06457"></polyline>
                <path d="M100.217103,21.6336707 C104.524271,20.4846723 108.668647,21.9939142 109.472106,25.0050461 L116.794607,51.6221077 L101.197007,55.7864391 L93.8745059,29.1693775 C93.069997,26.1571953 95.9099344,22.7837193 100.217103,21.6336707" id="Fill-107" stroke="#40B34F" stroke-width="1.3" stroke-linecap="round" stroke-linejoin="round" fill="#40B24F"></path>
                <path d="M87.9998762,53.4137731 C88.1666405,53.3665108 88.3302383,53.2961426 88.4875034,53.2037186 L102.122066,45.1743836 C102.601249,44.8929105 102.947443,44.4328911 103.083599,43.8962017 L105.243091,35.3889927 C105.525957,34.2767538 104.848345,33.1466604 103.730602,32.8651873 C102.612859,32.5847645 101.477174,33.2579893 101.195363,34.3712784 L99.2480208,42.0393195 L86.3607312,49.6285902 C85.3685893,50.2125418 85.0403381,51.4865227 85.6271795,52.4748293 C86.1221949,53.305595 87.108004,53.6689894 87.9998762,53.4137731" id="Fill-109" fill="#FFFFFF"></path>
                <path d="M105.276523,36.6504488 L108.486157,29.4549978 C108.851652,28.6358728 107.975724,27.8042557 106.529499,27.5972437 C105.083273,27.3902318 103.614992,27.8863467 103.249497,28.7054717 L100.039863,35.9009227 L105.276523,36.6504488" id="Fill-110" fill="#40B24F"></path>
                <polyline id="Fill-111" stroke="#40B34F" stroke-width="1.3" stroke-linecap="round" stroke-linejoin="round" fill="#40B34F" points="95.0311128 109.680518 85.3360453 109.680518 85.4746813 108.848702 90.2534222 106.320696 95.0311128 106.320696 95.0311128 109.680518"></polyline>
                <g id="Fill-112">
                    <use fill="#40B34F" fill-rule="evenodd" xlink:href="#path-5"></use>
                    <use stroke="#40B34F" mask="url(#mask-6)" stroke-width="1.56" stroke-linecap="round" stroke-linejoin="round" xlink:href="#path-5"></use>
                </g>
                <g id="Fill-113">
                    <use fill="#40B34F" fill-rule="evenodd" xlink:href="#path-7"></use>
                    <use stroke="#40B34F" mask="url(#mask-8)" stroke-width="1.56" stroke-linecap="round" stroke-linejoin="round" xlink:href="#path-7"></use>
                </g>
                <path d="M97.4794854,22.2006118 C97.4794854,22.2006118 100.23028,23.0036189 101.318332,22.7266406 C102.21846,22.4975008 104.216283,20.8242485 104.216283,20.8242485 L101.841081,17.0475144 L95.8387725,18.5495171" id="Fill-100" fill="#FFFFFF"></path>
                <path d="M14.0088739,32.7657378 C14.0088739,32.7657378 12.6564408,34.1965104 11.8409591,34.3285606 C10.8834974,34.4836015 8.67695288,33.9176297 8.67695288,33.9176297 L7.61586394,28.179355 L14.008874,27.5502417" id="Fill-86" fill="#FFFFFF"></path>
            </g>
        </g>
    </g>
</svg>