<?xml version="1.0" encoding="UTF-8" standalone="no"?>
<svg width="80px" height="80px" viewBox="0 0 80 80" version="1.1" xmlns="http://www.w3.org/2000/svg" xmlns:xlink="http://www.w3.org/1999/xlink">
    <!-- Generator: Sketch 40.1 (33804) - http://www.bohemiancoding.com/sketch -->
    <title>treadmil</title>
    <desc>Created with Sketch.</desc>
    <defs></defs>
    <g id="Page-3" stroke="none" stroke-width="1" fill="none" fill-rule="evenodd">
        <g id="treadmil" stroke="#000000" fill="#000000">
            <path d="M72.9625751,62.4124469 L73.5436233,62.316684 C77.0363826,61.9271617 79.6595108,58.7281617 79.2712827,55.230226 C79.0784627,53.4806111 78.3007123,52.0247555 76.9406196,50.8626592 C75.580527,49.7950318 73.9331455,49.3097466 72.1835306,49.5025666 L71.8897713,49.5025666 L58.691308,21.7507238 C61.5072563,20.7801534 64.3232045,19.616763 66.9411564,18.1609074 L69.0751172,16.9988111 C70.9192009,16.0282407 71.693069,13.6018147 70.6267357,11.7564369 C70.4339157,11.3669146 70.2372135,11.0783317 69.9486305,10.8816294 L69.9486305,10.8816294 C69.8528676,10.7858665 67.5222045,8.26367755 63.4483971,8.3594405 C59.5661155,8.45520345 55.492308,10.9773924 51.4120301,15.7344814 C48.1107966,16.5135259 44.7138003,16.8978718 41.3168039,16.8978718 L38.3093298,16.8978718 C36.1766631,16.8978718 34.4270482,18.6461926 34.4270482,20.7801534 C34.4270482,22.91282 36.1766631,24.6624349 38.3093298,24.6624349 L41.3168039,24.6624349 C42.7726595,24.6624349 44.2285151,24.5653779 45.6843707,24.469615 L58.3017858,51.1603008 L6.76579193,56.5942009 C3.2730326,56.9837232 0.64990435,60.1840173 1.03813251,63.681953 C1.33189181,66.6894271 3.7583178,69.0200902 6.76579193,69.4096124 C7.15531418,70.672648 8.31741047,71.6432184 9.77326606,71.6432184 L13.7526047,71.6432184 C15.5009255,71.6432184 16.8558418,70.1873628 16.8558418,68.5399813 L64.4189675,63.3830173 L64.4189675,66.1032026 C63.8379193,66.6842507 63.4483971,67.4632953 63.4483971,68.3381027 C63.4483971,70.0864235 64.9042527,71.4413398 66.5516341,71.4413398 L70.5309728,71.4413398 C72.2792936,71.4413398 73.6342098,69.9854842 73.6342098,68.3381027 C73.6342098,67.5590582 73.3417446,66.7851901 72.8564594,66.2999049 L72.8564594,66.2041419 L72.8564594,62.4124469 L72.9625751,62.4124469 Z M63.4483971,10.199642 C64.0294452,10.199642 64.5147304,10.2954049 65.0000156,10.3911679 L63.2516948,11.3617383 C60.5315095,12.8175938 57.8165006,13.9809842 54.9047894,14.8544976 C57.918734,11.8470235 60.7282118,10.2954049 63.4483971,10.199642 L63.4483971,10.199642 Z M38.3093298,22.6190607 C37.2429964,22.6190607 36.368189,21.7455474 36.368189,20.6779199 C36.368189,19.6115866 37.2429964,18.7367792 38.3093298,18.7367792 L41.3168039,18.7367792 C49.274187,18.7367792 57.2354524,16.6998754 64.2222652,13.0104138 L66.3549319,11.8470235 C66.8402171,11.5545582 67.3255023,11.5545582 67.8107875,11.6554976 C68.2960727,11.8470235 68.6855949,12.1407828 68.9741778,12.626068 C69.459463,13.5966383 69.1657037,14.7587346 68.1951333,15.2440198 L66.0624667,16.4074102 C58.4894294,20.4812177 49.9509981,22.6190607 41.3129216,22.6190607 L38.3093298,22.6190607 Z M47.8235078,24.1771497 C50.9267449,23.7876275 53.9393954,23.2065794 56.8511066,22.236009 L69.858044,49.8002082 L60.4460993,50.7707786 L47.8235078,24.1771497 Z M2.9792733,63.3830173 C2.68680809,60.9565913 4.53218593,58.7229853 6.95861192,58.4344024 L72.3750565,51.5446467 C74.8014825,51.2508874 77.0363826,53.0962652 77.3249655,55.5226912 C77.6174307,57.9491172 75.7720529,60.1840173 73.3456269,60.4713061 L16.5672588,66.4875485 C16.4714959,66.4875485 16.3757329,66.4875485 16.3757329,66.5833114 C15.7946848,65.805561 14.9198773,65.2232188 13.853544,65.2232188 L9.87549947,65.2232188 C8.51540683,65.2232188 7.35201645,66.0980262 6.86673125,67.3571796 C4.82465114,66.9780101 3.2730326,65.4263915 2.9792733,63.3830173 L2.9792733,63.3830173 Z M13.7577811,69.5959619 L9.77844243,69.5959619 C9.10163135,69.5959619 8.61634615,69.0149138 8.61634615,68.4338656 C8.61634615,67.8528175 9.19739429,67.2704753 9.77844243,67.2704753 L13.7577811,67.2704753 C14.4345921,67.2704753 14.9198773,67.8528175 14.9198773,68.4338656 C14.9198773,69.0200902 14.4345921,69.5959619 13.7577811,69.5959619 L13.7577811,69.5959619 Z M66.3601083,63.0957285 L71.0214343,62.6104433 L71.0214343,65.2283952 L70.5361491,65.2283952 L66.5568105,65.2283952 L66.3652846,65.2283952 L66.3652846,63.0957285 L66.3601083,63.0957285 Z M70.5361491,69.5959619 L66.5568105,69.5959619 C65.8799994,69.5959619 65.3947142,69.0149138 65.3947142,68.4338656 C65.3947142,67.8528175 65.9757624,67.2704753 66.5568105,67.2704753 L70.5361491,67.2704753 C71.2129602,67.2704753 71.6982454,67.8528175 71.6982454,68.4338656 C71.6982454,69.0200902 71.2129602,69.5959619 70.5361491,69.5959619 L70.5361491,69.5959619 Z" id="Page-1"></path>
        </g>
    </g>
</svg>