<?xml version="1.0" encoding="UTF-8" standalone="no"?>
<svg width="80px" height="80px" viewBox="0 0 80 80" version="1.1" xmlns="http://www.w3.org/2000/svg" xmlns:xlink="http://www.w3.org/1999/xlink">
    <!-- Generator: Sketch 40.1 (33804) - http://www.bohemiancoding.com/sketch -->
    <title>tv</title>
    <desc>Created with Sketch.</desc>
    <defs></defs>
    <g id="Page-3" stroke="none" stroke-width="1" fill="none" fill-rule="evenodd">
        <g id="tv" fill="#000000">
            <path d="M76.8333333,22.5805755 L53,22.5805755 C53,21.3672422 52.0466667,20.4139089 50.8333333,20.4139089 L41.7333333,20.4139089 L62.36,3.9472422 C62.7933333,3.51390886 62.88,2.9072422 62.5333333,2.3872422 C62.1866667,1.95390886 61.4933333,1.8672422 60.9733333,2.21390886 L40,19.0272422 L19.0266667,2.21390886 C18.5933333,1.8672422 17.9,1.95390886 17.4666667,2.3872422 C17.12,2.82057553 17.2066667,3.51390886 17.64,3.9472422 L38.2666667,20.4139089 L29.1666667,20.4139089 C27.9533333,20.4139089 27,21.3672422 27,22.5805755 L3.16666667,22.5805755 C1.95333333,22.5805755 1,23.5339089 1,24.7472422 L1,76.7472422 C1,77.9605755 1.95333333,78.9139089 3.16666667,78.9139089 L76.8333333,78.9139089 C78.0466667,78.9139089 79,77.9605755 79,76.7472422 L79,24.7472422 C79,23.5339089 78.0466667,22.5805755 76.8333333,22.5805755 L76.8333333,22.5805755 L76.8333333,22.5805755 Z M76.8333333,76.8569544 L3.16666667,76.8569544 L3.16666667,24.8569544 L28.4895833,24.8569544 L51.5104167,24.8569544 L76.8333333,24.8569544 L76.8333333,76.8569544 L76.8333333,76.8569544 L76.8333333,76.8569544 Z" id="Shape"></path>
            <path d="M8.62666667,35.5805755 L8.62666667,65.9139089 C8.62666667,68.8605755 11.0533333,71.3739089 14.0866667,71.3739089 L53.0866667,71.3739089 C56.0333333,71.3739089 58.5466667,68.9472422 58.5466667,65.9139089 L58.5466667,35.5805755 C58.5466667,32.6339089 56.12,30.1205755 53.0866667,30.1205755 L14,30.1205755 C11.0533333,30.2072422 8.62666667,32.6339089 8.62666667,35.5805755 L8.62666667,35.5805755 L8.62666667,35.5805755 Z M56.2933333,35.5805755 L56.2933333,65.9139089 C56.2933333,67.7339089 54.82,69.2072422 53,69.2072422 L14,69.2072422 C12.18,69.2072422 10.7066667,67.7339089 10.7066667,65.9139089 L10.7066667,35.5805755 C10.7066667,33.7605755 12.18,32.2872422 14,32.2872422 L53,32.2872422 C54.82,32.3739089 56.2933333,33.7605755 56.2933333,35.5805755 L56.2933333,35.5805755 L56.2933333,35.5805755 Z" id="Shape"></path>
            <path d="M66,41.0405755 C68.9466667,41.0405755 71.46,38.6139089 71.46,35.5805755 C71.46,32.5472422 69.0333333,30.1205755 66,30.1205755 C62.9666667,30.1205755 60.54,32.5472422 60.54,35.5805755 C60.54,38.6139089 63.0533333,41.0405755 66,41.0405755 L66,41.0405755 L66,41.0405755 Z M66,32.3739089 C67.82,32.3739089 69.2933333,33.8472422 69.2933333,35.6672422 C69.2933333,37.4872422 67.82,38.9605755 66,38.9605755 C64.18,38.9605755 62.7066667,37.4872422 62.7066667,35.6672422 C62.7066667,33.8472422 64.18,32.3739089 66,32.3739089 L66,32.3739089 L66,32.3739089 Z" id="Shape"></path>
            <path d="M66,54.0405755 C68.9466667,54.0405755 71.46,51.6139089 71.46,48.5805755 C71.46,45.5472422 69.0333333,43.1205755 66,43.1205755 C62.9666667,43.1205755 60.54,45.5472422 60.54,48.5805755 C60.54,51.6139089 63.0533333,54.0405755 66,54.0405755 L66,54.0405755 L66,54.0405755 Z M66,45.3739089 C67.82,45.3739089 69.2933333,46.8472422 69.2933333,48.6672422 C69.2933333,50.4872422 67.82,51.9605755 66,51.9605755 C64.18,51.9605755 62.7066667,50.4872422 62.7066667,48.6672422 C62.7066667,46.8472422 64.18,45.3739089 66,45.3739089 L66,45.3739089 L66,45.3739089 Z" id="Shape"></path>
            <path d="M61.6666667,71.3739089 L70.3333333,71.3739089 C70.94,71.3739089 71.46,70.8539089 71.46,70.2472422 C71.46,69.6405755 70.94,69.1205755 70.3333333,69.1205755 L61.6666667,69.1205755 C61.06,69.1205755 60.54,69.6405755 60.54,70.2472422 C60.54,70.8539089 61.06,71.3739089 61.6666667,71.3739089 L61.6666667,71.3739089 L61.6666667,71.3739089 Z" id="Shape"></path>
            <path d="M61.6666667,67.0405755 L70.3333333,67.0405755 C70.94,67.0405755 71.46,66.5205755 71.46,65.9139089 C71.46,65.3072422 70.94,64.7872422 70.3333333,64.7872422 L61.6666667,64.7872422 C61.06,64.7872422 60.54,65.3072422 60.54,65.9139089 C60.54,66.5205755 61.06,67.0405755 61.6666667,67.0405755 L61.6666667,67.0405755 L61.6666667,67.0405755 Z" id="Shape"></path>
            <path d="M61.6666667,62.7072422 L70.3333333,62.7072422 C70.94,62.7072422 71.46,62.1872422 71.46,61.5805755 C71.46,60.9739089 70.94,60.4539089 70.3333333,60.4539089 L61.6666667,60.4539089 C61.06,60.4539089 60.54,60.9739089 60.54,61.5805755 C60.54,62.1872422 61.06,62.7072422 61.6666667,62.7072422 L61.6666667,62.7072422 L61.6666667,62.7072422 Z" id="Shape"></path>
        </g>
    </g>
</svg>