<?xml version="1.0" encoding="UTF-8" standalone="no"?>
<svg width="80px" height="80px" viewBox="0 0 80 80" version="1.1" xmlns="http://www.w3.org/2000/svg" xmlns:xlink="http://www.w3.org/1999/xlink">
    <!-- Generator: Sketch 40.1 (33804) - http://www.bohemiancoding.com/sketch -->
    <title>wood</title>
    <desc>Created with Sketch.</desc>
    <defs></defs>
    <g id="Page-3" stroke="none" stroke-width="1" fill="none" fill-rule="evenodd">
        <g id="wood" fill="#000000">
            <path d="M56.2857143,2 L2,56.2857143 L23.7142857,78 L78,23.7142857 L56.2857143,2 L56.2857143,2 L56.2857143,2 Z M10.3075299,60.7545775 L17.3260061,53.7361013 C17.8538207,53.2082867 17.8538207,52.3444998 17.3260061,51.8166852 C16.7981915,51.2888706 15.9345701,51.2888706 15.4067556,51.8166852 L8.38827961,58.8351614 L5.83866663,56.2857143 L56.2857143,5.83850106 L63.76988,13.3228326 L52.1859567,24.9067558 C51.6583077,25.4345704 51.6583077,26.2981918 52.1859567,26.8260064 C52.7137713,27.3538209 53.5775582,27.3538209 54.1053728,26.8260064 L65.6891305,15.2420831 L68.9656895,18.5184765 L63.9345527,23.5496133 C63.4067381,24.0774278 63.4067381,24.9410492 63.9345527,25.4688638 C64.4623673,25.9966784 65.3261542,25.9966784 65.8539688,25.4688638 L70.8849397,20.437727 L74.1613334,23.7142857 L23.7142857,74.1613334 L10.3075299,60.7545775 L10.3075299,60.7545775 L10.3075299,60.7545775 Z" id="Shape"></path>
            <path d="M33.4753767,40.9595423 L21.9597082,52.4753767 C21.4318936,53.0031912 21.4318936,53.8668126 21.9597082,54.3946272 C22.4875228,54.9224418 23.3511441,54.9224418 23.8789587,54.3946272 L35.3946272,42.8789587 C35.9224418,42.3511441 35.9224418,41.4873572 35.3946272,40.9595426 C34.8668126,40.431728 34.0031912,40.4317278 33.4753767,40.9595423 L33.4753767,40.9595423 L33.4753767,40.9595423 Z" id="Shape"></path>
            <path d="M29.6368756,54.5309709 L21.9597079,62.2081386 C21.4318933,62.7359532 21.4318933,63.5997401 21.9597079,64.1275547 C22.4875225,64.6552037 23.3511439,64.6552037 23.8789584,64.1275547 L31.5561261,56.450387 C32.0839407,55.9225724 32.0839407,55.0587855 31.5561261,54.5309709 C31.0283116,54.0031563 30.1646902,54.0031563 29.6368756,54.5309709 L29.6368756,54.5309709 L29.6368756,54.5309709 Z" id="Shape"></path>
            <path d="M54.7239729,14.4188842 C54.1961583,13.8910697 53.332537,13.8910697 52.8047224,14.4188842 L35.5311368,31.6924699 C35.0033222,32.2202844 35.0033222,33.0839058 35.5311368,33.6117204 C36.0589513,34.139535 36.9225727,34.139535 37.4503873,33.6117204 L54.7239729,16.3381348 C55.2517875,15.8103202 55.2517875,14.9466988 54.7239729,14.4188842 L54.7239729,14.4188842 L54.7239729,14.4188842 Z" id="Shape"></path>
            <path d="M50.6924701,38.2452566 L39.1768017,49.7610909 C38.6489871,50.2889055 38.6489871,51.1525269 39.1768017,51.6803415 C39.7046162,52.208156 40.5682376,52.208156 41.0960522,51.6803415 L52.6117207,40.164673 C53.1395352,39.6368584 53.1395352,38.7730715 52.6117207,38.2452569 C52.0839061,37.7174423 51.2202847,37.7174421 50.6924701,38.2452566 L50.6924701,38.2452566 L50.6924701,38.2452566 Z" id="Shape"></path>
        </g>
    </g>
</svg>