<?xml version="1.0" encoding="UTF-8" standalone="no"?>
<svg width="80px" height="80px" viewBox="0 0 80 80" version="1.1" xmlns="http://www.w3.org/2000/svg" xmlns:xlink="http://www.w3.org/1999/xlink">
    <!-- Generator: Sketch 40.1 (33804) - http://www.bohemiancoding.com/sketch -->
    <title>yard-waste</title>
    <desc>Created with Sketch.</desc>
    <defs></defs>
    <g id="Page-3" stroke="none" stroke-width="1" fill="none" fill-rule="evenodd">
        <g id="yard-waste" fill="#000000">
            <path d="M77.1428571,58.1071429 C77.05,58.1071429 72.4071429,57.8285714 71.0142857,54.3928571 C69.7142857,51.05 67.95,34.6142857 67.3928571,28.0214286 L67.3928571,27.7428571 C67.3928571,21.5214286 53.4642857,18.3642857 39.7214286,18.3642857 C26.0714286,18.3642857 12.3285714,21.5214286 12.1428571,27.65 L12.1428571,27.65 C11.5857143,33.9642857 9.82142857,50.9571429 8.52142857,54.3928571 C7.12857143,57.8285714 2.48571429,58.1071429 2.39285714,58.1071429 C1.65,58.1071429 1,58.7571429 1.09285714,59.5928571 C1.09285714,60.3357143 1.74285714,60.8928571 2.48571429,60.8928571 L2.57857143,60.8928571 C2.85714286,60.8928571 9.17142857,60.5214286 11.2142857,55.4142857 C12.5142857,51.9785714 14,38.6071429 14.65,31.8285714 C16.6,33.3142857 19.7571429,34.5214286 23.4714286,35.45 C23.6571429,36.1928571 23.9357143,37.1214286 23.9357143,38.2357143 L25.05,35.8214286 C29.5071429,36.75 34.7071429,37.2142857 39.9071429,37.2142857 L42.4142857,37.2142857 C42.7857143,39.5357143 43.6214286,44.7357143 43.6214286,46.5 C43.6214286,48.45 43.9,40.1857143 44.4571429,37.1214286 C53.0928571,36.6571429 61.1714286,34.8928571 65.0714286,31.9214286 C65.7214286,38.7 67.2071429,52.0714286 68.5071429,55.4142857 C70.55,60.6142857 76.8642857,60.8928571 77.1428571,60.8928571 L77.2357143,60.8928571 C77.9785714,60.8928571 78.6285714,60.3357143 78.6285714,59.5928571 C78.5357143,58.85 77.8857143,58.2 77.1428571,58.1071429 L77.1428571,58.1071429 L77.1428571,58.1071429 Z M39.8142857,34.4285714 C24.6785714,34.4285714 14.9285714,30.5285714 14.9285714,27.8357143 C14.9285714,25.1428571 24.5857143,21.2428571 39.8142857,21.2428571 C54.5785714,21.2428571 64.1428571,24.9571429 64.6071429,27.65 L64.6071429,28.0214286 L64.6071429,28.2071429 C63.9571429,30.7142857 54.4857143,34.4285714 39.8142857,34.4285714 L39.8142857,34.4285714 L39.8142857,34.4285714 Z" id="Shape"></path>
            <path d="M54.1142857,24.5857143 C53.65,24.4 53.1857143,24.2142857 52.6285714,23.9357143 C51.7,23.4714286 50.5857143,22.9142857 49.3785714,22.7285714 C48.6357143,22.6357143 47.6142857,22.7285714 46.6857143,22.8214286 C45.9428571,22.9142857 45.1071429,23.0071429 44.2714286,22.9142857 C43.6214286,22.8214286 42.8785714,22.7285714 42.1357143,22.45 C41.2071429,22.1714286 40.2785714,21.9857143 39.2571429,21.9857143 C38.2357143,21.9857143 37.3071429,22.2642857 36.3785714,22.45 C35.6357143,22.6357143 34.9857143,22.8214286 34.2428571,22.9142857 C33.4071429,23.0071429 32.6642857,22.9142857 31.8285714,22.8214286 C30.9,22.7285714 29.8785714,22.6357143 29.1357143,22.7285714 C27.9285714,22.9142857 26.8142857,23.4714286 25.8857143,23.9357143 C25.3285714,24.2142857 24.8642857,24.4928571 24.4,24.5857143 C21.7071429,25.4214286 19.7571429,26.0714286 19.7571429,27.4642857 C19.7571429,28.8571429 21.7071429,29.5071429 24.4,30.3428571 C24.8642857,30.5285714 25.3285714,30.7142857 25.8857143,30.9928571 C26.8142857,31.4571429 27.9285714,32.0142857 29.1357143,32.2 C29.8785714,32.2928571 30.9,32.2 31.8285714,32.1071429 C32.5714286,32.0142857 33.4071429,31.9214286 34.2428571,32.0142857 C34.8928571,32.1071429 35.6357143,32.2 36.3785714,32.4785714 C37.3071429,32.7571429 38.2357143,32.9428571 39.2571429,32.9428571 C40.2785714,32.9428571 41.2071429,32.6642857 42.1357143,32.4785714 C42.8785714,32.2928571 43.5285714,32.1071429 44.2714286,32.0142857 C45.1071429,31.9214286 45.85,32.0142857 46.6857143,32.1071429 C47.6142857,32.2 48.6357143,32.2928571 49.3785714,32.2 C50.5857143,32.0142857 51.7,31.4571429 52.6285714,30.9928571 C53.1857143,30.7142857 53.65,30.4357143 54.1142857,30.3428571 C56.8071429,29.5071429 58.7571429,28.8571429 58.7571429,27.4642857 C58.6642857,26.0714286 56.8071429,25.4214286 54.1142857,24.5857143 L54.1142857,24.5857143 L54.1142857,24.5857143 Z M53.8357143,29.5071429 C53.2785714,29.6928571 52.8142857,29.9714286 52.1642857,30.25 C51.2357143,30.7142857 50.3071429,31.1785714 49.1928571,31.3642857 C48.5428571,31.4571429 47.6142857,31.3642857 46.7785714,31.2714286 C45.9428571,31.1785714 45.1071429,31.0857143 44.2714286,31.1785714 C43.5285714,31.2714286 42.7857143,31.4571429 42.0428571,31.6428571 C41.2071429,31.8285714 40.2785714,32.1071429 39.35,32.1071429 C38.4214286,32.1071429 37.5857143,31.8285714 36.6571429,31.6428571 C35.9142857,31.4571429 35.1714286,31.2714286 34.4285714,31.1785714 L33.8714286,31.1785714 C33.2214286,31.1785714 32.5714286,31.2714286 31.9214286,31.3642857 C30.9928571,31.4571429 30.1571429,31.55 29.5071429,31.4571429 C28.3928571,31.2714286 27.4642857,30.8071429 26.5357143,30.3428571 C25.9785714,30.0642857 25.4214286,29.7857143 24.8642857,29.6 C22.9142857,28.95 20.8714286,28.3 20.8714286,27.5571429 C20.8714286,26.8142857 22.9142857,26.1642857 24.8642857,25.5142857 C25.4214286,25.3285714 25.8857143,25.05 26.5357143,24.7714286 C27.4642857,24.3071429 28.3928571,23.8428571 29.5071429,23.6571429 C30.1571429,23.5642857 31.0857143,23.6571429 31.9214286,23.75 C32.7571429,23.8428571 33.5928571,23.9357143 34.4285714,23.8428571 C35.1714286,23.75 35.9142857,23.5642857 36.6571429,23.3785714 C37.4928571,23.1928571 38.4214286,22.9142857 39.35,22.9142857 C40.2785714,22.9142857 41.1142857,23.1928571 42.0428571,23.3785714 C42.7857143,23.5642857 43.5285714,23.75 44.2714286,23.8428571 C45.1071429,23.9357143 46.0357143,23.8428571 46.7785714,23.75 C47.7071429,23.6571429 48.5428571,23.5642857 49.1928571,23.6571429 C50.3071429,23.8428571 51.2357143,24.3071429 52.1642857,24.7714286 C52.7214286,25.05 53.2785714,25.3285714 53.8357143,25.5142857 C55.7857143,26.1642857 57.8285714,26.8142857 57.8285714,27.5571429 C57.7357143,28.2071429 55.7857143,28.8571429 53.8357143,29.5071429 L53.8357143,29.5071429 L53.8357143,29.5071429 Z" id="Shape"></path>
            <path d="M48.7285714,25.7928571 L48.2642857,25.7 C47.8928571,25.6071429 47.5214286,25.5142857 47.15,25.3285714 C46.5,25.05 45.7571429,24.7714286 44.9214286,24.6785714 C44.3642857,24.5857143 43.7142857,24.6785714 43.0642857,24.7714286 C42.5071429,24.8642857 41.95,24.9571429 41.3928571,24.9571429 C40.9285714,24.9571429 40.4642857,24.7714286 39.9071429,24.6785714 C39.2571429,24.4928571 38.6071429,24.3071429 37.9571429,24.3071429 C37.3071429,24.3071429 36.6571429,24.4928571 36.0071429,24.6785714 C35.5428571,24.7714286 34.9857143,24.9571429 34.5214286,24.9571429 C33.9642857,24.9571429 33.4071429,24.8642857 32.85,24.7714286 C32.2,24.6785714 31.6428571,24.5857143 30.9928571,24.6785714 C30.1571429,24.7714286 29.4142857,25.05 28.7642857,25.3285714 C28.3928571,25.5142857 28.0214286,25.6071429 27.65,25.7 L27.1857143,25.7928571 C25.2357143,26.2571429 24.0285714,26.4428571 24.0285714,27.3714286 C24.0285714,28.2071429 25.2357143,28.4857143 27.1857143,28.95 L27.65,29.0428571 C28.0214286,29.1357143 28.3928571,29.2285714 28.7642857,29.4142857 C29.4142857,29.6928571 30.1571429,29.9714286 30.9928571,30.0642857 C31.55,30.1571429 32.2,30.0642857 32.85,29.9714286 C33.4071429,29.8785714 33.9642857,29.7857143 34.5214286,29.7857143 C34.9857143,29.7857143 35.45,29.9714286 36.0071429,30.0642857 C36.6571429,30.25 37.3071429,30.4357143 37.9571429,30.4357143 C38.6071429,30.4357143 39.2571429,30.25 39.9071429,30.0642857 C40.3714286,29.9714286 40.9285714,29.7857143 41.3928571,29.7857143 C41.95,29.7857143 42.5071429,29.8785714 43.0642857,29.9714286 C43.7142857,30.0642857 44.2714286,30.1571429 44.9214286,30.0642857 C45.7571429,29.9714286 46.5,29.6928571 47.15,29.4142857 C47.5214286,29.2285714 47.8928571,29.1357143 48.2642857,29.0428571 L48.7285714,28.95 C50.6785714,28.4857143 51.8857143,28.3 51.8857143,27.3714286 C51.7928571,26.4428571 50.6785714,26.1642857 48.7285714,25.7928571 L48.7285714,25.7928571 L48.7285714,25.7928571 Z M39.8142857,28.0214286 C39.5357143,27.9285714 39.2571429,27.8357143 38.9785714,27.8357143 L38.8857143,27.8357143 C38.6071429,27.8357143 38.3285714,27.8357143 38.05,27.9285714 C37.7714286,27.9285714 37.5857143,28.0214286 37.3071429,28.0214286 C37.0285714,28.0214286 36.6571429,27.8357143 36.3785714,27.7428571 C36.1,27.65 35.9142857,27.5571429 35.7285714,27.4642857 L35.45,27.3714286 C35.3571429,27.3714286 35.1714286,27.2785714 35.0785714,27.2785714 C35.1714286,27.2785714 35.3571429,27.1857143 35.45,27.1857143 L35.7285714,27.0928571 C35.9142857,27 36.1928571,27 36.3785714,26.8142857 C36.6571429,26.7214286 36.9357143,26.5357143 37.3071429,26.5357143 C37.4928571,26.5357143 37.7714286,26.5357143 38.05,26.6285714 C38.3285714,26.6285714 38.6071429,26.7214286 38.8857143,26.7214286 L38.9785714,26.7214286 C39.2571429,26.7214286 39.5357143,26.6285714 39.8142857,26.5357143 C40.3714286,26.35 40.8357143,26.35 41.3928571,26.5357143 C41.6714286,26.6285714 41.95,26.7214286 42.2285714,26.7214286 L42.3214286,26.7214286 C42.6,26.7214286 42.8785714,26.7214286 43.1571429,26.6285714 C43.4357143,26.6285714 43.6214286,26.5357143 43.9,26.5357143 C44.1785714,26.5357143 44.55,26.7214286 44.8285714,26.8142857 C45.1071429,26.9071429 45.2928571,27 45.4785714,27.0928571 L45.7571429,27.1857143 C45.85,27.1857143 46.0357143,27.2785714 46.1285714,27.2785714 C46.0357143,27.2785714 45.85,27.3714286 45.7571429,27.3714286 L45.5714286,27.4642857 C45.3857143,27.5571429 45.1071429,27.5571429 44.9214286,27.7428571 C44.6428571,27.8357143 44.3642857,28.0214286 43.9928571,28.0214286 C43.8071429,28.0214286 43.5285714,28.0214286 43.25,27.9285714 C42.9714286,27.9285714 42.6928571,27.8357143 42.4142857,27.8357143 L42.3214286,27.8357143 C42.0428571,27.8357143 41.7642857,27.9285714 41.4857143,28.0214286 C40.8357143,28.1142857 40.3714286,28.1142857 39.8142857,28.0214286 L39.8142857,28.0214286 L39.8142857,28.0214286 Z M39.8142857,29.1357143 C39.2571429,29.3214286 38.6071429,29.4142857 38.05,29.4142857 C37.4928571,29.4142857 36.8428571,29.2285714 36.2857143,29.1357143 C35.7285714,29.0428571 35.1714286,28.8571429 34.6142857,28.8571429 L34.3357143,28.8571429 C33.7785714,28.8571429 33.3142857,28.95 32.7571429,29.0428571 C32.2,29.1357143 31.6428571,29.2285714 31.1785714,29.1357143 C30.4357143,29.0428571 29.8785714,28.7642857 29.2285714,28.5785714 C28.7642857,28.3928571 28.3928571,28.2071429 27.9285714,28.1142857 L27.4642857,28.0214286 C26.5357143,27.8357143 25.5142857,27.5571429 25.1428571,27.3714286 C25.5142857,27.1857143 26.5357143,26.9071429 27.4642857,26.7214286 L27.9285714,26.6285714 C28.3928571,26.5357143 28.7642857,26.35 29.2285714,26.1642857 C29.8785714,25.8857143 30.4357143,25.7 31.1785714,25.6071429 C31.6428571,25.5142857 32.2,25.6071429 32.7571429,25.7 C33.3142857,25.7928571 33.9642857,25.8857143 34.6142857,25.8857143 C35.1714286,25.8857143 35.7285714,25.7 36.2857143,25.6071429 C36.8428571,25.4214286 37.4928571,25.3285714 38.05,25.3285714 C38.6071429,25.3285714 39.2571429,25.5142857 39.8142857,25.6071429 C40,25.6071429 40.0928571,25.7 40.2785714,25.7 C40.0928571,25.7 39.8142857,25.7928571 39.6285714,25.7928571 C39.35,25.8857143 39.1642857,25.8857143 38.8857143,25.8857143 C38.7,25.8857143 38.4214286,25.8857143 38.2357143,25.7928571 C37.8642857,25.7 37.5857143,25.7 37.3071429,25.7 C36.8428571,25.7928571 36.4714286,25.8857143 36.1928571,26.0714286 C36.0071429,26.1642857 35.8214286,26.2571429 35.6357143,26.2571429 L35.45,26.35 C34.2428571,26.5357143 33.5,26.7214286 33.5,27.2785714 C33.5,27.9285714 34.15,28.0214286 35.2642857,28.3 L35.5428571,28.3928571 C35.7285714,28.3928571 35.9142857,28.4857143 36.1,28.5785714 C36.4714286,28.6714286 36.8428571,28.8571429 37.2142857,28.95 C37.4928571,28.95 37.8642857,28.95 38.1428571,28.8571429 C38.3285714,28.8571429 38.6071429,28.7642857 38.8857143,28.7642857 C39.0714286,28.7642857 39.35,28.8571429 39.5357143,28.8571429 C39.7214286,28.95 39.9071429,28.95 40.1857143,28.95 C40.0928571,29.0428571 39.9071429,29.0428571 39.8142857,29.1357143 L39.8142857,29.1357143 L39.8142857,29.1357143 Z M48.5428571,27.9285714 L48.0785714,28.0214286 C47.6142857,28.1142857 47.2428571,28.3 46.7785714,28.4857143 C46.1285714,28.7642857 45.5714286,28.95 44.8285714,29.0428571 C44.3642857,29.1357143 43.8071429,29.0428571 43.25,28.95 C42.7857143,28.8571429 42.4142857,28.8571429 41.95,28.8571429 C42.1357143,28.8571429 42.3214286,28.7642857 42.5071429,28.7642857 C42.6928571,28.7642857 42.9714286,28.7642857 43.1571429,28.8571429 C43.5285714,28.95 43.8071429,28.95 44.0857143,28.95 C44.55,28.8571429 44.9214286,28.7642857 45.2,28.5785714 C45.3857143,28.4857143 45.5714286,28.3928571 45.7571429,28.3928571 L46.0357143,28.3 C47.0571429,28.1142857 47.8,27.9285714 47.8,27.2785714 C47.8,26.6285714 47.15,26.5357143 46.0357143,26.2571429 L45.7571429,26.1642857 C45.5714286,26.1642857 45.3857143,26.0714286 45.2,25.9785714 C44.8285714,25.8857143 44.4571429,25.7 44.0857143,25.6071429 C43.8071429,25.6071429 43.4357143,25.6071429 43.1571429,25.7 C42.9714286,25.7 42.7857143,25.7928571 42.4142857,25.7928571 C42.3214286,25.7928571 42.1357143,25.7928571 41.95,25.7 C42.4142857,25.7 42.8785714,25.6071429 43.25,25.6071429 C43.8071429,25.5142857 44.3642857,25.4214286 44.8285714,25.5142857 C45.5714286,25.6071429 46.1285714,25.8857143 46.7785714,26.0714286 C47.2428571,26.2571429 47.6142857,26.4428571 48.0785714,26.5357143 L48.5428571,26.6285714 C49.4714286,26.8142857 50.4928571,27.0928571 50.8642857,27.2785714 C50.4928571,27.5571429 49.3785714,27.7428571 48.5428571,27.9285714 L48.5428571,27.9285714 L48.5428571,27.9285714 Z" id="Shape"></path>
            <path d="M20.9642857,38.3285714 C20.4071429,38.3285714 20.0357143,38.7928571 20.1285714,39.35 C20.2214286,40.5571429 19.9428571,41.8571429 19.6642857,43.1571429 C18.7357143,47.2428571 17.8071429,51.5142857 16.1357143,55.3214286 C15.95,55.7857143 16.1357143,56.3428571 16.6,56.5285714 C16.6928571,56.6214286 16.8785714,56.6214286 16.9714286,56.6214286 C17.3428571,56.6214286 17.7142857,56.4357143 17.8071429,56.0642857 C19.5714286,52.0714286 20.5,47.7071429 21.4285714,43.5285714 C21.7071429,42.2285714 22.0785714,40.7428571 21.9857143,39.2571429 C21.8928571,38.7 21.5214286,38.3285714 20.9642857,38.3285714 L20.9642857,38.3285714 L20.9642857,38.3285714 Z" id="Shape"></path>
            <path d="M35.7285714,39.6285714 C35.2642857,39.5357143 34.8,39.9071429 34.7071429,40.4642857 C34.3357143,43.7142857 34.2428571,47.15 34.4285714,50.4 C34.4285714,50.8642857 34.8928571,51.2357143 35.3571429,51.2357143 L35.45,51.2357143 C36.0071429,51.2357143 36.3785714,50.7714286 36.2857143,50.2142857 C36.1,47.0571429 36.1928571,43.8071429 36.5642857,40.65 C36.6571429,40.1857143 36.2857143,39.7214286 35.7285714,39.6285714 L35.7285714,39.6285714 L35.7285714,39.6285714 Z" id="Shape"></path>
            <path d="M52.0714286,41.0214286 C52.0714286,40.5571429 51.6071429,40.0928571 51.05,40.1857143 C50.5857143,40.1857143 50.1214286,40.65 50.2142857,41.2071429 C50.4,43.3428571 50.8642857,45.3857143 51.7,47.3357143 C51.8857143,47.7071429 52.1642857,47.8928571 52.5357143,47.8928571 C52.6285714,47.8928571 52.7214286,47.8928571 52.9071429,47.8 C53.3714286,47.6142857 53.65,47.0571429 53.4642857,46.5928571 C52.7214286,44.8285714 52.2571429,42.9714286 52.0714286,41.0214286 L52.0714286,41.0214286 L52.0714286,41.0214286 Z" id="Shape"></path>
            <path d="M64.7928571,59.7785714 C63.6785714,59.1285714 63.0285714,57.8285714 62.3785714,56.3428571 C59.8714286,50.5857143 57.7357143,45.2928571 56.9,39.7214286 C56.8071429,39.2571429 56.3428571,38.8857143 55.8785714,38.9785714 C55.4142857,39.0714286 55.0428571,39.5357143 55.1357143,40 C56.0642857,45.7571429 58.2,51.1428571 60.8,56.9928571 C61.3571429,58.3857143 62.1928571,60.3357143 63.9571429,61.2642857 C64.1428571,61.3571429 64.2357143,61.3571429 64.4214286,61.3571429 C64.7,61.3571429 65.0714286,61.1714286 65.2571429,60.8928571 C65.35,60.6142857 65.2571429,60.0571429 64.7928571,59.7785714 L64.7928571,59.7785714 L64.7928571,59.7785714 Z" id="Shape"></path>
        </g>
    </g>
</svg>