<?xml version="1.0" encoding="UTF-8" standalone="no"?>
<svg width="60px" height="60px" viewBox="0 0 60 60" version="1.1" xmlns="http://www.w3.org/2000/svg" xmlns:xlink="http://www.w3.org/1999/xlink">
    <!-- Generator: Sketch 3.8.2 (29753) - http://www.bohemiancoding.com/sketch -->
    <title>1465173426_yelp-square-social-media</title>
    <desc>Created with Sketch.</desc>
    <defs></defs>
    <g id="Page-1" stroke="none" stroke-width="1" fill="none" fill-rule="evenodd">
        <g id="1465173426_yelp-square-social-media">
            <g id="Group">
                <g id="soical">
                    <g id="social">
                        <g id="square-black" fill="#990517">
                            <path d="M2.995937,0 L57.004063,0 C58.658673,0 60,1.33731 60,2.995937 L60,57.004063 C60,58.658673 58.66269,60 57.004063,60 L2.995937,60 C1.341327,60 0,58.66269 0,57.004063 L0,2.995937 C0,1.341327 1.33731,0 2.995937,0 L2.995937,0 Z" id="square-48"></path>
                        </g>
                        <g id="icon" transform="translate(15.000000, 10.000000)" fill="#FFFFFF">
                            <path d="M18.492136,23.948168 C17.869059,24.575861 18.396367,25.719322 18.396367,25.719322 L23.086751,33.55163 C23.086751,33.55163 23.856367,34.584322 24.524444,34.584322 C25.194828,34.584322 25.857136,34.033938 25.857136,34.033938 L29.565598,28.732014 C29.565598,28.732014 29.939444,28.063938 29.947521,27.477784 C29.961367,26.644707 28.704828,26.416245 28.704828,26.416245 L19.925213,23.597399 C19.925213,23.597399 19.065598,23.370091 18.492136,23.948168 L18.492136,23.948168 L18.492136,23.948168 Z M18.047905,19.999707 C18.497905,20.761245 19.735982,20.539707 19.735982,20.539707 L28.495982,17.979322 C28.495982,17.979322 29.690213,17.493553 29.860982,16.847399 C30.02829,16.198938 29.663674,15.418938 29.663674,15.418938 L25.477521,10.488553 C25.477521,10.488553 25.115213,9.864322 24.361751,9.802014 C23.532136,9.730476 23.020982,10.735476 23.020982,10.735476 L18.070982,18.525091 C18.070982,18.523938 17.633674,19.299322 18.047905,19.999707 L18.047905,19.999707 L18.047905,19.999707 Z M13.909059,16.962784 C14.940598,16.708938 15.104444,15.210091 15.104444,15.210091 L15.034059,2.738168 C15.034059,2.738168 14.87829,1.200091 14.187136,0.783553 C13.103674,0.125861 12.781751,0.469707 12.471367,0.514707 L5.198674,3.218168 C5.198674,3.218168 4.485598,3.453553 4.115213,4.047784 C3.585598,4.890091 4.652905,6.123553 4.652905,6.123553 L12.212905,16.427399 C12.212905,16.426245 12.959444,17.197014 13.909059,16.962784 L13.909059,16.962784 L13.909059,16.962784 Z M12.113674,22.009707 C12.139059,21.048553 10.958674,20.470476 10.958674,20.470476 L3.141367,16.520861 C3.141367,16.520861 1.982905,16.043168 1.419828,16.37663 C0.989444,16.63163 0.607521,17.090861 0.570598,17.499322 L0.061751,23.767014 C0.061751,23.767014 -0.014402,24.852784 0.267136,25.34663 C0.666367,26.047014 1.977136,25.560091 1.977136,25.560091 L11.102905,23.543168 C11.457136,23.303168 12.079059,23.282399 12.113674,22.009707 L12.113674,22.009707 L12.113674,22.009707 Z M14.382136,25.392784 C13.598674,24.990091 12.660598,25.824322 12.660598,25.824322 L6.549828,32.551245 C6.549828,32.551245 5.787136,33.579322 5.980982,34.210476 C6.16329,34.802399 6.465598,35.097784 6.893674,35.304322 L13.030982,37.24163 C13.030982,37.24163 13.775213,37.396245 14.33829,37.232399 C15.137905,37.00163 14.990213,35.748553 14.990213,35.748553 L15.128674,26.640091 C15.129828,26.641245 15.099828,25.763168 14.382136,25.392784 L14.382136,25.392784 L14.382136,25.392784 Z" id="yelp"></path>
                        </g>
                    </g>
                </g>
            </g>
        </g>
    </g>
</svg>